<svg width="26" height="26" viewBox="0 0 26 26" fill="none" xmlns="http://www.w3.org/2000/svg">
<path d="M0.517139 0.517068C1.20655 -0.172346 2.32431 -0.172346 3.01372 0.517068L25.4829 22.9864C26.1724 23.6758 26.1724 24.7935 25.4829 25.4829C24.7935 26.1724 23.6758 26.1724 22.9864 25.4829L0.517139 3.01365C-0.172273 2.32424 -0.172273 1.20648 0.517139 0.517068Z" fill="white"/>
<path d="M25.4829 0.51706C26.1723 1.20647 26.1723 2.32423 25.4829 3.01365L3.01364 25.4829C2.32423 26.1723 1.20647 26.1723 0.517059 25.4829C-0.172353 24.7935 -0.172353 23.6758 0.517059 22.9863L22.9863 0.51706C23.6757 -0.172353 24.7934 -0.172354 25.4829 0.51706Z" fill="white"/>
</svg>
