<svg width="124" height="215" viewBox="0 0 124 215" fill="none" xmlns="http://www.w3.org/2000/svg">
<path fill-rule="evenodd" clip-rule="evenodd" d="M117.944 3.94812C116.43 3.64748 114.613 2.74555 114.613 2.74555L117.944 1.24233C117.944 1.24233 118.247 -0.260889 116.127 0.0397545C114.007 0.340398 108.557 1.24233 106.437 3.34684C104.317 5.45134 100.987 8.15714 100.987 8.15714L94.6276 20.7842C94.6276 20.7842 90.9939 26.797 90.6911 29.8035C90.3883 32.8099 86.4518 38.5221 86.4518 38.5221C86.4518 38.5221 81.304 47.2408 79.4872 49.0447C77.6703 50.5479 76.7619 52.953 76.7619 52.953H75.2479C75.2479 52.953 73.1282 48.1427 73.7338 45.1363C74.3394 42.1299 78.2759 39.1234 77.3675 38.2215C76.7619 37.3196 74.9451 35.5157 74.9451 35.5157H74.0366L74.3394 34.3131H73.1282C73.1282 34.3131 73.7338 31.3067 72.5226 31.6073C71.3114 31.908 68.8889 31.908 68.2833 31.3067C67.6777 30.7054 63.7411 27.9996 61.6215 28.9016C59.5018 29.5028 52.8401 32.5093 53.1429 37.0189C50.4176 38.5221 47.9951 40.6267 48.9035 43.3324C49.812 46.0382 51.6288 52.0511 57.3822 48.4434C59.8046 50.2473 62.8327 50.5479 62.8327 50.5479C62.8327 50.5479 63.7412 56.2601 60.7131 56.2601C57.685 56.2601 54.3541 56.5608 52.5372 57.7634C50.7204 58.9659 42.8474 61.3711 37.3968 60.7698C32.2491 60.4691 30.4322 60.1685 24.9817 60.4691C19.2283 60.1685 13.1722 60.1685 13.1722 60.1685C13.1722 60.1685 7.4188 62.5737 5.60195 65.2794C3.4823 67.6846 2.57387 69.1878 2.57387 69.1878L0.151404 73.0962C0.151404 73.0962 -0.454212 74.5994 0.757021 74.2988C1.96825 74.2988 2.27106 73.0962 2.27106 73.0962V76.1026C2.27106 76.1026 2.27106 77.3052 3.4823 76.4033C3.7851 76.4033 5.60195 77.6058 5.60195 76.1026C5.60195 74.5994 4.69353 71.2923 4.99634 70.691C5.29915 70.0897 7.11599 68.5865 7.72161 68.5865C8.32723 68.5865 8.93285 69.1878 8.63004 70.0897C8.32723 70.9917 8.02442 71.593 8.02442 72.7955C8.02442 73.9981 9.53846 73.9981 9.53846 73.9981L10.4469 71.593C10.4469 71.593 10.4469 70.691 11.3553 69.7891C12.5665 69.1878 14.3834 66.1814 14.0806 64.6782C18.3199 65.2794 28.9182 67.0833 28.9182 67.0833C28.9182 67.0833 33.7631 68.2859 37.6996 67.3839C41.3333 66.7827 54.0513 65.5801 55.8681 65.8807C57.685 66.1814 60.7131 70.9917 60.7131 70.9917C60.7131 70.9917 63.7412 73.0962 63.7412 74.9C63.7412 76.7039 64.9524 82.7168 64.9524 82.7168C64.9524 82.7168 64.6496 85.7232 63.4383 87.5271H63.1355L63.4383 87.2264H63.1355C48.9035 88.7297 34.6716 90.2329 20.7424 91.7361C20.7424 91.7361 20.7424 91.7361 21.0452 91.7361C21.0452 92.3374 21.0452 92.638 21.0452 93.2393C21.0452 92.3374 21.0452 91.7361 21.0452 91.7361C21.0452 95.0432 20.7424 94.7425 21.6508 96.2457C22.5592 97.749 22.5592 97.1477 22.862 97.749C22.2564 100.455 24.0733 102.86 25.2845 103.161L25.5873 103.461C25.5873 103.461 25.5873 103.762 25.5873 104.062C25.8901 105.566 26.4957 106.768 27.4042 107.67C28.6154 108.873 28.6154 108.271 28.9182 109.474C28.9182 110.677 29.5238 110.977 31.0379 112.18C31.9463 112.781 32.5519 113.382 33.1575 113.683C33.7631 113.984 34.3687 114.284 34.3687 114.284C34.3687 114.284 34.3687 114.284 34.0659 113.984C34.3687 114.284 34.6716 114.284 34.6716 114.284C34.6716 114.284 32.8547 112.48 31.0379 110.977C29.5238 109.474 30.735 110.075 30.4322 108.873C31.3407 107.971 31.6435 108.271 32.8547 107.971C34.9744 107.37 45.5727 101.056 54.3541 95.3438C54.0513 95.6445 54.0513 95.6445 53.7485 95.9451C53.1429 96.847 52.84 97.749 52.2344 98.6509C43.7558 105.265 34.9744 112.48 34.6716 113.683C34.6716 113.683 34.6716 113.683 34.6716 113.984C36.7912 112.48 43.7558 106.768 50.7204 101.357C50.4176 102.559 50.1148 103.762 50.1148 105.265L49.5092 105.866C47.0867 108.873 44.6642 110.376 41.6361 113.382C40.4249 114.585 38.0024 115.487 36.4884 116.088C36.4884 116.088 36.7912 116.088 37.094 116.088C37.094 116.088 37.094 116.088 36.7912 116.088C37.094 116.088 37.3968 116.389 37.6996 116.389C39.5165 116.69 42.5446 114.886 44.0586 113.082C44.6642 112.18 47.0867 110.075 50.1148 107.069C50.1148 107.971 50.4176 108.873 50.4176 109.775C49.2064 110.977 48.2979 111.879 47.3895 113.082C45.5727 114.585 45.2698 116.389 43.453 117.892C43.1502 118.493 42.2418 119.395 41.9389 120.297V120.598C41.9389 120.598 41.9389 120.598 42.2418 120.598C42.2418 120.598 42.2418 120.598 42.2418 120.899C42.2418 120.899 42.2418 120.899 42.5446 120.899C43.7558 120.297 45.2698 118.193 46.1783 117.291C47.9951 115.186 49.5092 113.382 51.0232 111.879C51.326 112.781 51.6288 113.984 52.2344 114.886C51.0232 116.389 49.812 118.493 48.6007 119.997C47.9951 121.199 47.0867 121.8 45.5727 122.702V123.003C45.5727 123.003 45.5727 123.003 45.8755 123.003C45.8755 123.003 45.8755 123.003 45.8755 123.304C45.8755 123.304 45.8755 123.304 46.1783 123.304C49.5092 123.003 50.7204 119.997 51.9316 118.193C52.2344 117.591 52.8401 116.99 53.1429 116.389C53.4457 117.291 54.0513 117.892 54.6569 118.794L55.2625 119.395C54.3541 120.598 53.4457 121.8 52.2344 123.304C52.2344 123.905 51.6288 125.408 51.6288 126.009C51.0232 125.408 50.4176 125.108 50.1148 124.506C50.4176 124.807 50.7204 125.108 51.0232 125.408C50.7204 125.108 50.4176 124.807 49.812 124.506C49.812 124.506 49.5092 124.506 49.5092 124.206C47.9951 123.003 47.0867 123.304 45.5727 123.003C44.967 122.702 44.0586 122.101 43.453 121.8C43.7558 122.101 43.7558 122.101 44.0586 122.101C43.7558 122.101 43.453 121.8 43.1502 121.8C43.453 122.101 43.7558 122.402 44.0586 122.402C45.8755 123.604 47.3895 123.304 49.2063 124.506C49.812 125.108 50.4176 125.709 51.0232 126.31L51.326 126.611C51.326 126.611 51.326 126.611 51.0232 126.31L51.326 126.611L51.6288 126.911C52.2344 124.807 53.7485 123.003 54.9597 121.199C55.2625 122.101 55.5653 123.604 55.8681 125.408C55.2625 126.31 54.9597 127.212 54.3541 128.114C54.9597 128.114 55.2625 127.513 55.8681 127.212C55.8681 127.513 56.1709 128.114 56.1709 128.415C55.2625 128.415 54.3541 128.415 53.4457 128.415C52.8401 128.114 51.9316 127.513 51.326 127.212C51.0232 126.911 51.0232 126.911 50.7204 126.611L50.4176 126.31C50.4176 126.31 50.4176 126.611 50.7204 126.611L50.4176 126.31C50.4176 126.611 50.7204 126.611 50.7204 126.911C50.7204 126.911 50.7204 126.911 51.0232 126.911C51.9316 127.212 52.5372 127.813 53.4457 128.114C54.3541 128.415 55.2625 128.415 56.1709 128.715C57.0794 132.924 58.2906 137.434 59.199 139.238C57.3822 145.551 54.3541 153.669 54.0513 155.473C53.1429 157.878 53.7485 163.289 54.0513 165.093C54.3541 167.198 52.5372 183.132 51.6288 184.034C50.7204 184.936 48.2979 184.334 47.6923 186.138C47.0867 187.942 49.5092 192.452 50.4176 195.158C51.326 197.863 49.5092 205.68 49.5092 206.582C49.2064 207.484 52.2344 207.183 52.8401 207.183C52.8401 207.183 55.5653 203.275 57.685 195.759C59.199 189.746 57.3822 184.936 57.9878 183.132C58.5934 181.328 63.4383 160.583 63.7412 157.577C63.7412 156.374 64.6496 154.571 65.558 151.564C66.4664 155.773 66.4664 162.087 67.072 164.191C67.9805 166.296 75.2479 189.145 75.5507 191.249C76.4591 195.759 73.431 211.092 75.5507 213.497C77.6703 215.902 79.4872 214.699 79.4872 214.699C79.4872 214.699 81.9097 206.281 82.2125 204.177C82.5153 201.17 82.8181 195.759 82.2125 192.752C81.9097 191.55 79.4872 185.236 79.1844 182.831C78.8816 180.426 77.6703 164.492 75.8535 159.682C74.9451 157.276 75.2479 152.767 74.9451 151.564C74.6423 150.662 73.431 139.238 73.1282 138.035C73.431 136.833 73.7338 136.231 73.7338 136.231L74.6423 133.826C74.9451 133.826 75.2479 133.826 75.2479 133.826C75.5507 133.826 75.8535 133.826 76.1563 133.826C77.0647 133.826 77.3675 134.127 79.4872 134.728C81.0012 135.029 81.6068 135.329 81.9097 135.329C82.2125 135.329 82.5153 135.329 82.8181 135.329H83.1209C83.4237 135.329 83.7265 135.329 84.0293 135.329C84.9377 135.329 84.9377 135.029 86.149 134.728C86.4518 134.728 86.7546 134.728 87.0574 134.728C87.3602 134.728 87.3602 134.728 87.663 134.728C88.2686 134.728 89.4799 135.029 90.9939 135.029C91.9023 135.029 92.8107 135.029 93.4164 134.728C95.2332 134.127 96.7473 132.323 96.1416 132.624C96.1416 132.624 96.1416 132.323 96.1416 132.624C96.1416 132.624 95.8388 132.624 95.8388 132.924C96.1416 132.624 96.4444 132.323 96.1416 132.624C96.1416 132.624 96.1416 132.323 96.1416 132.624C95.536 132.924 94.022 134.728 89.177 134.728C90.3883 133.225 84.9377 112.48 82.2125 102.259C82.2125 101.657 82.2125 101.357 82.2125 100.755V100.455C85.8462 108.873 95.8388 129.617 96.1416 131.722C96.1416 131.722 96.1416 132.022 96.4445 132.022C96.4445 132.022 96.4445 132.022 96.4445 131.722V132.022H96.1416C96.1416 132.022 96.1416 132.022 96.4445 132.323C96.7473 132.323 98.2613 133.526 100.078 133.526C101.592 133.526 102.803 132.924 104.015 130.82C104.015 130.82 104.015 130.82 104.317 130.82C104.317 130.82 104.317 130.82 104.015 130.82V130.519L103.712 130.82C103.712 130.82 103.712 130.519 104.015 130.519L103.712 130.82C103.712 130.519 104.015 130.519 104.015 130.218L103.712 130.519C103.712 130.519 103.712 130.218 104.015 130.218C102.803 131.12 101.592 132.624 99.4725 132.624C98.8669 132.624 97.9585 132.323 97.0501 132.022C97.9585 129.918 84.6349 103.461 82.2125 98.3502C86.149 105.265 100.987 128.114 104.923 130.218L105.226 130.519C105.226 130.519 105.226 130.519 105.226 130.218C105.226 130.218 105.226 130.218 105.529 130.218C105.226 130.519 105.226 130.519 104.923 130.519H105.226C105.226 130.519 105.529 130.519 105.832 130.218C105.529 130.519 105.529 130.519 105.226 130.519H105.529C106.134 130.519 107.648 129.918 108.557 129.016C110.374 128.415 113.099 126.611 112.796 125.709C112.796 126.009 112.493 126.009 112.493 126.31C112.493 126.009 112.796 126.009 112.493 125.709C112.493 125.709 112.493 125.709 112.796 125.709C109.465 122.402 106.134 118.794 102.501 115.487C95.8388 108.873 90.3883 102.559 83.7265 96.2457H83.4237L81.9097 95.6445H81.6068L82.5153 97.1477C82.5153 97.1477 82.5153 97.1477 82.5153 96.847L82.8181 97.1477C82.8181 97.1477 82.8181 97.1477 82.8181 96.847C84.9377 98.3502 88.2686 103.762 89.4799 105.566C91.2967 108.271 93.7192 110.677 95.2332 113.082C96.1416 114.284 97.3529 115.487 98.2613 116.389C100.078 119.696 104.015 124.807 106.74 128.114C106.437 128.415 106.134 128.415 105.226 129.317C104.923 129.317 104.923 129.617 104.923 129.617C104.923 129.617 104.923 129.617 104.923 129.317C104.015 127.513 90.6911 110.075 89.7827 107.971C88.2686 105.265 84.3321 98.3502 81.9097 95.6445C81.9097 95.6445 81.9097 95.3438 81.6068 95.3438C81.304 93.8406 81.304 92.638 81.6068 91.1348C81.9097 89.3309 83.1209 87.5271 84.0293 86.0239C84.0293 85.7232 84.3321 85.7232 84.3321 85.7232C86.149 82.7168 87.663 73.6975 87.663 73.6975C87.663 73.6975 89.177 70.3904 88.8742 68.2859C88.5714 66.1814 86.4518 58.9659 86.4518 58.9659C86.4518 58.9659 84.9377 55.6588 86.4518 52.3518C87.9658 49.0447 94.3248 35.8164 95.536 34.0125C96.7473 32.2086 97.9585 31.0061 100.381 23.1893C102.803 15.3726 104.015 9.66035 104.015 9.66035C104.015 9.66035 106.437 8.15714 108.254 6.95456C110.374 5.75199 114.31 6.05263 114.31 6.05263C114.31 6.05263 118.852 6.95456 118.549 6.05263C118.247 5.45134 117.035 5.1507 117.035 5.1507C117.035 5.1507 119.458 5.1507 120.366 4.85005C120.366 4.85005 122.183 4.85005 122.183 4.54941C122.183 3.94812 122.183 3.94812 122.183 3.94812C122.183 3.94812 124 3.94812 124 3.04619C124 2.74555 120.669 2.74555 120.669 2.74555C119.458 3.64748 118.852 3.94812 117.944 3.94812ZM45.5727 124.506C45.2698 124.506 45.2698 124.506 44.967 124.506C44.967 124.506 45.2698 124.506 45.5727 124.506ZM45.8755 124.807C45.5727 124.807 45.2698 124.807 44.967 124.506C44.967 124.506 44.6642 124.506 44.6642 124.206H44.967C45.2698 124.206 45.8755 124.506 46.1783 124.506C45.8755 124.506 45.5727 124.506 45.2698 124.206C45.5727 124.506 45.5727 124.807 45.8755 124.807ZM48.6007 125.709C48.9035 125.709 48.9035 125.709 48.6007 125.709C48.9035 126.009 49.2064 126.31 49.812 126.611C49.5092 126.611 49.2064 126.009 48.6007 125.709ZM48.9035 125.709C49.5092 126.009 49.812 126.31 50.1148 126.611C49.5092 126.611 49.2064 126.009 48.9035 125.709ZM51.6288 128.415C51.9316 128.415 51.9316 128.715 52.2344 128.715C51.9316 128.715 51.6288 128.715 51.6288 128.415ZM51.6288 128.415C51.9316 128.415 51.9316 128.415 52.2344 128.715C52.2344 128.715 51.9316 128.715 51.6288 128.415C52.2344 128.715 52.5372 128.715 52.8401 129.016C52.5372 129.016 52.2344 128.715 51.6288 128.415ZM54.0513 129.617C54.0513 129.617 54.3541 129.617 54.0513 129.617C54.3541 129.617 54.3541 129.617 54.0513 129.617ZM97.0501 132.624C97.3529 132.624 97.3529 132.624 97.0501 132.624C97.3529 132.624 97.3529 132.624 97.0501 132.624ZM97.0501 132.624C97.0501 132.624 97.3529 132.624 97.0501 132.624C97.3529 132.624 97.0501 132.624 97.0501 132.624ZM112.796 126.611C112.796 126.911 112.493 127.212 112.19 127.513C112.493 127.212 112.493 126.911 112.796 126.611ZM112.493 126.611V126.911C112.493 126.911 112.493 126.911 112.493 126.611ZM100.987 119.095C97.0501 113.984 93.1136 107.971 88.5714 102.86C95.2332 110.075 101.289 115.788 107.951 123.304C108.86 123.905 110.979 126.009 111.888 126.31C111.888 126.31 111.888 126.31 112.19 126.31C111.585 127.513 109.465 128.415 108.254 128.715C107.951 128.715 107.951 128.715 107.951 128.715C106.74 126.009 103.712 123.003 100.987 119.095ZM59.199 90.8342L57.3822 91.4354C57.9878 91.1348 58.8962 90.8342 59.199 90.8342C59.199 90.5335 59.199 90.8342 59.199 90.8342ZM58.8962 90.8342C58.5934 91.1348 58.5934 91.1348 58.2906 91.4354L53.7485 93.2393C55.8681 92.0367 57.685 91.4354 58.8962 90.8342ZM58.2906 91.4354C58.2906 91.4354 57.9878 91.4354 58.2906 91.4354L57.9878 91.7361C57.9878 91.4354 57.9878 91.4354 58.2906 91.4354ZM20.4396 93.5399C20.4396 92.638 20.4396 92.0367 20.4396 92.0367C20.4396 92.3374 20.4396 92.638 20.4396 92.638C20.4396 92.3374 20.4396 92.0367 20.4396 91.7361C20.4396 91.7361 20.4396 91.7361 20.7424 91.7361C20.7424 91.7361 20.7424 91.7361 20.4396 91.7361C20.4396 91.7361 20.4396 91.7361 20.7424 91.7361C20.4396 92.9387 20.4396 93.2393 20.4396 93.5399ZM22.5592 97.1477C22.862 97.1477 23.1648 97.1477 23.4676 97.1477C22.862 97.1477 22.862 97.1477 22.5592 97.1477C22.5592 97.4483 22.5592 97.1477 22.5592 97.1477ZM24.9817 103.762C24.6789 103.762 24.6789 103.461 24.9817 103.762C24.9817 103.461 24.6789 103.161 24.9817 102.86C24.6789 102.86 24.6789 103.161 24.9817 103.762C21.9536 100.755 23.1648 100.154 23.1648 98.3502C23.1648 97.749 23.1648 97.4483 22.862 97.4483C27.1013 96.5464 49.5092 93.5399 59.199 90.5335C58.8962 90.5335 58.8962 90.5335 58.5934 90.5335H58.8962C58.2906 90.5335 57.3822 90.8342 56.4738 91.1348C57.3822 90.8342 57.9878 90.8342 58.8962 90.5335C58.5934 90.5335 58.5934 90.5335 58.2906 90.5335H58.5934C51.9316 92.0367 28.6154 95.6445 23.1648 96.847C23.4676 96.847 23.4676 96.847 23.4676 96.847C23.1648 96.847 22.2564 97.1477 22.2564 97.4483H21.9536C21.9536 97.4483 21.6508 97.1477 21.6508 96.847C21.0452 95.6445 20.7424 92.638 20.7424 92.3374C21.6508 92.638 22.5592 92.638 23.4676 92.638C26.1929 92.638 28.6154 92.0367 31.6435 91.7361C38.6081 91.4354 45.2698 90.2329 51.9316 89.3309C54.6569 89.0303 59.199 89.3309 61.9243 88.1284C62.2271 88.1284 62.2271 88.429 62.5299 88.429L62.2271 88.7297C61.6215 89.0303 60.7131 89.6316 60.1074 89.9322C60.4103 89.9322 60.4103 89.6316 60.7131 89.6316C60.4103 89.6316 60.4103 89.9322 60.4103 89.9322C60.7131 89.9322 60.7131 89.9322 61.0159 89.6316C60.7131 89.9322 60.4103 89.9322 60.4103 90.2329C60.1075 90.2329 59.8046 90.5335 59.5018 90.5335C59.8046 90.5335 59.8046 90.5335 60.1074 90.5335H59.8046H60.1074C60.1074 90.5335 59.8046 90.5335 59.8046 90.8342L25.5873 103.161C25.5873 103.161 25.2845 103.161 25.2845 103.461V103.161V103.461C25.2845 103.461 24.9817 103.461 24.9817 103.762C25.2845 103.461 25.2845 103.161 25.2845 103.161C24.9817 102.86 24.9817 103.161 24.9817 103.762C24.9817 103.461 24.9817 103.461 24.9817 103.762ZM25.2845 104.664C25.2845 104.664 25.2845 104.964 25.2845 104.664C25.2845 104.964 25.2845 104.664 25.2845 104.664ZM24.9817 104.363C25.2845 104.664 25.2845 105.265 25.5873 105.566C25.2845 105.265 24.9817 104.964 24.9817 104.363ZM25.5873 105.866C25.2845 105.566 25.2845 104.964 25.2845 104.664C25.5873 104.964 25.5873 105.566 25.5873 105.866ZM28.9182 109.173L28.6154 108.873L28.3126 108.572L28.0098 108.271C27.4042 107.67 27.1013 107.069 26.1929 105.866C25.8901 105.566 25.8901 104.964 25.5873 104.664H25.8901L26.4957 104.062C27.707 104.363 48.9035 95.3438 57.9878 91.7361C57.3822 92.3374 56.4738 92.9387 55.5653 93.5399C45.8755 98.9515 30.735 107.971 28.9182 109.173ZM75.2479 134.127L75.5507 133.225C75.5507 133.526 75.5507 133.826 75.5507 134.127C75.5507 134.127 75.5507 134.127 75.2479 134.127ZM75.8535 134.127C75.8535 134.127 75.8535 133.826 75.8535 134.127C75.8535 133.826 75.8535 134.127 75.8535 134.127ZM81.6068 135.329C80.0928 135.329 78.8816 134.728 77.3675 134.427C77.0647 134.427 76.7619 134.127 76.4591 134.127C77.0647 133.225 77.3675 131.12 77.3675 129.317L77.9731 127.813C78.8816 126.009 79.79 123.905 80.3956 121.199C81.0012 127.813 81.6068 133.826 82.8181 135.029C82.5153 135.329 81.9097 135.329 81.6068 135.329ZM83.1209 135.329C83.1209 135.329 83.1209 135.029 83.1209 135.329C83.1209 135.029 83.1209 135.329 83.1209 135.329ZM83.1209 135.329C83.1209 135.329 83.4237 135.329 83.1209 135.329C83.4237 135.329 83.4237 135.329 83.1209 135.329ZM89.4799 134.728C89.4799 135.029 89.4799 135.029 89.4799 134.728C89.4799 135.029 89.4799 135.029 89.4799 134.728C89.4799 135.029 89.4799 135.029 89.4799 134.728C89.4799 135.029 89.4799 135.029 89.4799 134.728ZM89.177 134.728C89.177 134.728 89.4799 135.029 89.177 134.728C89.177 135.029 88.8742 135.029 88.2686 134.728C87.3602 134.728 87.3602 134.427 87.0574 134.427C86.7546 134.427 86.7546 134.427 86.149 134.728C85.8462 135.029 85.5434 135.029 85.2405 135.029C84.9377 135.029 84.6349 135.029 84.0293 135.029C83.7265 135.029 83.4237 135.029 83.1209 135.029C82.5153 133.225 81.6068 124.807 81.304 116.389C81.9096 113.082 82.2125 109.775 82.5153 106.468C84.9377 116.99 88.2686 132.624 88.8742 134.427C88.8742 134.728 89.177 134.728 89.177 134.728Z" fill="url(#paint0_linear)"/>
<defs>
<linearGradient id="paint0_linear" x1="-7.39258e-07" y1="110.406" x2="124" y2="110.406" gradientUnits="userSpaceOnUse">
<stop stop-color="#C89B63"/>
<stop offset="0.496519" stop-color="#FCCA85"/>
<stop offset="1" stop-color="#C89B63"/>
</linearGradient>
</defs>
</svg>
