<svg width="169" height="72" viewBox="0 0 169 72" fill="none" xmlns="http://www.w3.org/2000/svg">
<path d="M116.128 20.2872C115.631 20.5853 115.333 20.7841 115.035 20.9829C115.631 21.4798 116.725 21.8773 117.818 21.9767C118.116 21.5791 118.315 21.3804 118.613 21.0822C120.799 18.6971 122.091 18.7964 122.588 18.6971C121.694 18.2995 119.309 18.1008 116.128 20.2872Z" fill="white"/>
<path d="M114.24 21.4797C112.849 20.8835 111.259 19.8896 109.37 18.2001C106.19 15.318 103.209 15.6162 101.718 15.9143C101.917 15.9143 102.116 16.0137 102.314 16.1131C103.408 16.4112 105.395 17.3057 107.582 19.989C108.774 21.3804 109.768 22.2748 110.762 22.8711H110.861C114.141 24.8588 116.625 22.8711 117.42 22.1754L117.52 22.076C117.52 22.076 117.619 21.8773 117.719 21.8773C116.625 22.076 115.532 21.9767 114.24 21.4797Z" fill="white"/>
<path d="M72.897 25.952C67.0335 25.952 65.4434 30.4242 65.4434 33.6044C65.4434 36.884 67.1329 41.3563 72.897 41.3563C78.6612 41.3563 80.3507 36.884 80.3507 33.6044C80.3507 30.5236 78.6612 25.952 72.897 25.952ZM72.897 39.0705C68.6236 39.0705 68.0273 34.9958 68.0273 33.6044C68.0273 32.2131 68.723 28.2378 72.897 28.2378C77.1705 28.2378 77.7668 32.2131 77.7668 33.6044C77.7668 34.9958 77.1705 39.0705 72.897 39.0705Z" fill="white"/>
<path d="M87.3076 36.2877L83.1335 26.1507H80.3508L87.2082 41.4556H87.407L94.2644 26.1507H91.4817L87.3076 36.2877Z" fill="white"/>
<path d="M95.7549 41.2569H105.892V38.9711H98.3388V34.8964H104.202V32.6106H98.3388V28.4365H105.892V26.1507H95.7549V41.2569Z" fill="white"/>
<path d="M118.116 35.3933L108.476 25.952H108.377V41.2569H110.961V32.0143L120.601 41.555L120.7 41.4556V26.1507H118.116V35.3933Z" fill="white"/>
<path d="M129.247 26.1507H123.582V41.3562H126.166V35.7908H129.545C131.93 35.7908 134.514 33.9025 134.514 30.9211C134.514 28.9334 133.322 26.1507 129.247 26.1507ZM129.446 33.4056H126.166V28.3371H129.446C131.632 28.3371 132.129 30.0266 132.129 30.8217C132.03 31.7161 131.533 33.4056 129.446 33.4056Z" fill="white"/>
<path d="M139.285 26.1507H136.701V41.3562H139.285V26.1507Z" fill="white"/>
<path d="M149.123 28.1384C150.713 28.1384 152.304 29.0328 153.198 30.0267L154.888 28.4365C153.397 26.8464 151.707 25.8526 149.123 25.8526C143.359 25.8526 141.67 30.5236 141.67 33.6044C141.67 36.884 143.359 41.4556 149.123 41.4556C151.608 41.4556 153.397 40.5612 154.788 39.0705L153.297 37.1822C152.304 38.0766 150.813 38.9711 149.123 38.9711C144.85 38.8717 144.254 34.8964 144.254 33.505C144.254 32.2131 144.85 28.1384 149.123 28.1384Z" fill="white"/>
<path d="M161.546 33.4056L168.503 26.1507H165.323L159.559 32.1137V26.1507H156.975V41.2569H159.559V34.6976L165.82 41.2569H169V41.1575L161.546 33.4056Z" fill="white"/>
<path d="M69.4187 24.3618C70.2138 24.3618 70.9095 23.6662 70.9095 22.8711C70.9095 22.076 70.2138 21.3804 69.4187 21.3804C68.6237 21.3804 67.928 22.076 67.928 22.8711C67.928 23.6662 68.5243 24.3618 69.4187 24.3618Z" fill="white"/>
<path d="M75.5803 24.3618C76.3754 24.3618 77.0711 23.6662 77.0711 22.8711C77.0711 22.076 76.3754 21.3804 75.5803 21.3804C74.7853 21.3804 74.0896 22.076 74.0896 22.8711C74.0896 23.6662 74.7853 24.3618 75.5803 24.3618Z" fill="white"/>
<path d="M58.7849 22.9705L52.9213 35.6915L47.0578 22.9705H46.859L40.5979 41.2569H41.4923C41.4923 41.2569 43.48 41.2569 44.0763 39.468L47.2565 29.7285L52.8219 41.4556H53.0207L58.5861 29.7285L61.7664 39.468C62.3627 41.2569 64.3503 41.2569 64.3503 41.2569H65.2448L58.9837 22.9705H58.7849Z" fill="white"/>
<path d="M43.7781 56.2636L41.7904 53.4809H41.6911V56.2636H40.896V50.1019C41.2935 50.1019 41.7904 50.1019 42.3867 50.1019C43.5793 50.1019 44.4738 50.4994 44.4738 51.692C44.4738 52.7852 43.6787 53.3815 42.6849 53.3815C42.8836 53.5803 43.0824 53.7791 43.1818 54.0772L44.8713 56.2636H43.7781ZM42.188 50.7976C41.9892 50.7976 41.7904 50.7976 41.5917 50.7976V52.8846C41.6911 52.8846 41.8898 52.8846 42.0886 52.8846C42.983 52.8846 43.4799 52.4871 43.4799 51.7914C43.5793 51.0957 43.0824 50.7976 42.188 50.7976Z" fill="white"/>
<path d="M46.6602 56.2636V50.2013H49.741V50.897H47.4552V52.7852H49.6416V53.4809H47.4552V55.568H49.741V56.2636H46.6602Z" fill="white"/>
<path d="M52.9212 56.363C52.4242 56.363 51.9273 56.2636 51.5298 56.1642L51.6292 55.3692C52.0267 55.5679 52.4242 55.5679 52.9212 55.5679C53.6168 55.5679 54.2131 55.2698 54.2131 54.4747C54.2131 53.0834 51.4304 53.6797 51.4304 51.692C51.4304 50.6982 52.2255 50.0025 53.6168 50.0025C54.0144 50.0025 54.4119 50.0025 54.71 50.1019L54.6107 50.7976C54.3125 50.6982 53.915 50.5988 53.5175 50.5988C52.7224 50.5988 52.3249 50.9963 52.3249 51.5926C52.3249 52.8846 55.1076 52.4871 55.1076 54.3753C55.207 55.5679 54.3125 56.363 52.9212 56.363Z" fill="white"/>
<path d="M59.4805 56.363C57.5922 56.363 56.6978 55.1704 56.6978 53.2822C56.6978 51.1951 57.9897 50.1019 59.5798 50.1019C61.2694 50.1019 62.3626 51.1951 62.3626 53.1828C62.3626 55.2698 61.0706 56.363 59.4805 56.363ZM59.5798 50.7976C58.586 50.7976 57.6916 51.5926 57.6916 53.1828C57.6916 54.6735 58.2879 55.6673 59.5798 55.6673C60.5737 55.6673 61.5675 54.8723 61.5675 53.2822C61.4681 51.692 60.7724 50.7976 59.5798 50.7976Z" fill="white"/>
<path d="M67.1328 56.2636L65.1452 53.4809H65.0458V56.2636H64.2507V50.1019C64.6483 50.1019 65.1452 50.1019 65.7415 50.1019C66.9341 50.1019 67.8285 50.4994 67.8285 51.692C67.8285 52.7852 67.0334 53.3815 66.0396 53.3815C66.2384 53.5803 66.4372 53.7791 66.5365 54.0772L68.226 56.2636H67.1328ZM65.5427 50.7976C65.3439 50.7976 65.1452 50.7976 64.9464 50.7976V52.8846C65.0458 52.8846 65.2446 52.8846 65.4433 52.8846C66.3378 52.8846 66.8347 52.4871 66.8347 51.7914C66.9341 51.0957 66.4372 50.7976 65.5427 50.7976Z" fill="white"/>
<path d="M71.6052 50.897V56.2636H70.8101V50.897H69.0212V50.2013H73.3941V50.897H71.6052Z" fill="white"/>
<path d="M83.4315 56.2636H82.4377L81.2451 52.1889C81.1457 51.7914 81.0463 51.4933 81.0463 51.0957C81.0463 51.4933 80.947 51.7914 80.8476 52.1889L79.655 56.363H78.6612L77.071 50.2013H77.9655L78.9593 54.1766C79.0587 54.5741 79.1581 54.9717 79.1581 55.3692C79.2575 54.9717 79.2575 54.5741 79.3568 54.276L80.4501 50.2013H81.4439L82.6365 54.276C82.7358 54.5741 82.8352 54.9717 82.8352 55.3692C82.9346 54.9717 82.9346 54.6735 83.034 54.3754L84.1272 50.2013H84.9223L83.4315 56.2636Z" fill="white"/>
<path d="M90.1897 56.2636L89.6928 54.8723H87.1089L86.612 56.2636H85.7175L87.9039 50.1019H88.7984L91.0842 56.2636H90.1897ZM88.5996 51.9902C88.5002 51.692 88.4009 51.3939 88.4009 51.0957C88.3015 51.3939 88.2021 51.5927 88.1027 51.8908L87.3076 54.1766H89.4941L88.5996 51.9902Z" fill="white"/>
<path d="M94.5625 56.2636H93.6681L91.4817 50.1019H92.3761L93.7675 54.0772C93.8669 54.4747 94.0656 54.8723 94.165 55.3692C94.2644 54.9717 94.4632 54.4747 94.5625 54.0772L95.9539 50.2013H96.8483L94.5625 56.2636Z" fill="white"/>
<path d="M98.4385 56.2636V50.2013H101.519V50.897H99.2335V52.7852H101.42V53.4809H99.2335V55.568H101.519V56.2636H98.4385Z" fill="white"/>
<path d="M106.588 56.2636L104.6 53.4809H104.501V56.2636H103.706V50.1019C104.103 50.1019 104.6 50.1019 105.196 50.1019C106.389 50.1019 107.283 50.4994 107.283 51.692C107.283 52.7852 106.488 53.3815 105.494 53.3815C105.693 53.5803 105.892 53.7791 105.991 54.0772L107.681 56.2636H106.588ZM104.998 50.7976C104.799 50.7976 104.6 50.7976 104.401 50.7976V52.8846C104.501 52.8846 104.699 52.8846 104.898 52.8846C105.793 52.8846 106.29 52.4871 106.29 51.7914C106.389 51.0957 105.892 50.7976 104.998 50.7976Z" fill="white"/>
<path d="M109.47 56.2636V50.2013H110.265V55.568H112.451V56.2636H109.47Z" fill="white"/>
<path d="M115.234 54.0772V56.2636H114.439V54.0772L112.551 50.2013H113.445L114.439 52.2883C114.638 52.6859 114.737 52.984 114.936 53.3815C115.035 52.984 115.234 52.5865 115.433 52.1889L116.426 50.2013H117.321L115.234 54.0772Z" fill="white"/>
<path d="M122.787 53.9778C122.588 53.9778 122.489 53.9778 122.29 53.9778V56.363H121.495V50.2013C121.992 50.2013 122.489 50.2013 122.986 50.2013C124.377 50.2013 125.172 50.897 125.172 51.9902C125.172 53.1828 124.178 53.9778 122.787 53.9778ZM122.886 50.7976C122.688 50.7976 122.489 50.7976 122.29 50.7976V53.1828C122.489 53.1828 122.588 53.1828 122.787 53.1828C123.682 53.1828 124.278 52.6859 124.278 51.8908C124.278 51.2945 123.781 50.7976 122.886 50.7976Z" fill="white"/>
<path d="M130.837 56.2636V53.4809H127.756V56.2636H126.862V50.2013H127.756V52.7852H130.837V50.2013H131.632V56.2636H130.837Z" fill="white"/>
<path d="M136.303 56.363C134.415 56.363 134.017 55.2698 134.017 54.1766V50.1019H134.812V54.0772C134.812 54.9716 135.111 55.5679 136.303 55.5679C137.396 55.5679 137.893 55.1704 137.893 53.8784V50.0025H138.688V53.7791C138.788 55.5679 137.993 56.363 136.303 56.363Z" fill="white"/>
<path d="M146.043 56.363C144.154 56.363 143.26 55.1704 143.26 53.2822C143.26 51.1951 144.552 50.1019 146.142 50.1019C147.832 50.1019 148.925 51.1951 148.925 53.1828C148.925 55.2698 147.633 56.363 146.043 56.363ZM146.142 50.7976C145.148 50.7976 144.254 51.5926 144.254 53.1828C144.254 54.6735 144.85 55.6673 146.142 55.6673C147.136 55.6673 148.13 54.8723 148.13 53.2822C148.03 51.692 147.335 50.7976 146.142 50.7976ZM145.844 57.655V56.9593C147.335 56.7605 147.931 57.4562 149.322 57.2575V57.9531C147.732 58.2513 147.136 57.5556 145.844 57.655Z" fill="white"/>
<path d="M153.099 56.363C151.211 56.363 150.813 55.2698 150.813 54.1766V50.1019H151.608V54.0772C151.608 54.9716 151.906 55.5679 153.099 55.5679C154.192 55.5679 154.689 55.1704 154.689 53.8784V50.0025H155.484V53.7791C155.484 55.5679 154.689 56.363 153.099 56.363Z" fill="white"/>
<path d="M160.056 56.363C158.167 56.363 157.273 55.1704 157.273 53.2822C157.273 51.1951 158.565 50.1019 160.155 50.1019C161.845 50.1019 162.938 51.1951 162.938 53.1828C163.037 55.2698 161.646 56.363 160.056 56.363ZM160.155 50.7976C159.161 50.7976 158.267 51.5926 158.267 53.1828C158.267 54.6735 158.863 55.6673 160.155 55.6673C161.149 55.6673 162.143 54.8723 162.143 53.2822C162.143 51.692 161.348 50.7976 160.155 50.7976Z" fill="white"/>
<path d="M167.311 56.363C165.323 56.363 164.528 55.071 164.528 53.3815C164.528 51.4933 165.422 50.1019 167.509 50.1019C168.006 50.1019 168.503 50.2013 168.901 50.3007L168.801 51.0957C168.404 50.9964 167.907 50.897 167.41 50.897C166.019 50.897 165.422 51.9902 165.422 53.2822C165.422 54.7729 166.118 55.6673 167.509 55.6673C167.907 55.6673 168.503 55.568 168.901 55.3692L169 56.0649C168.503 56.2636 167.907 56.363 167.311 56.363Z" fill="white"/>
<path d="M84.0279 68.5871V69.2827H80.5496V63.2204H81.3446V68.5871H84.0279Z" fill="white"/>
<path d="M87.0092 68.5871C87.3074 68.5871 87.5062 68.5871 87.7049 68.4877C87.9037 68.3883 88.1024 68.2889 88.2018 68.0901C88.3012 67.8914 88.4006 67.792 88.5 67.4938C88.5994 67.2951 88.5994 67.0963 88.5994 66.7982V63.121H89.3944V66.7982C89.3944 67.1957 89.295 67.4938 89.1957 67.792C89.0963 68.0901 88.8975 68.3883 88.6987 68.5871C88.5 68.7858 88.2018 68.9846 87.9037 69.084C87.6055 69.1834 87.3074 69.2827 86.9099 69.2827C86.5123 69.2827 86.2142 69.1834 85.916 69.084C85.6179 68.9846 85.3197 68.7858 85.121 68.5871C84.9222 68.3883 84.7234 68.0901 84.6241 67.792C84.5247 67.4938 84.4253 67.1957 84.4253 66.7982V63.121H85.4191V66.7982C85.4191 67.0963 85.4191 67.2951 85.5185 67.4938C85.6179 67.6926 85.7173 67.8914 85.8166 68.0901C85.916 68.2889 86.1148 68.3883 86.3136 68.4877C86.5123 68.5871 86.8105 68.5871 87.0092 68.5871Z" fill="white"/>
<path d="M95.5563 69.2827H94.7613C94.6619 69.2827 94.6619 69.2827 94.6619 69.2827L94.5625 69.1833L92.873 66.5994C92.873 66.6988 92.873 66.6988 92.7736 66.7982L91.1835 69.1833L91.0841 69.2827H90.9848H90.1897L92.2767 66.2019L90.2891 63.2204H91.0841C91.1835 63.2204 91.1835 63.2204 91.1835 63.2204C91.1835 63.2204 91.2829 63.2204 91.2829 63.3198L92.873 65.8043C92.873 65.705 92.873 65.705 92.9724 65.6056L94.4631 63.4192C94.4631 63.4192 94.4631 63.3198 94.5625 63.3198H94.6619H95.457L93.4693 66.2019L95.5563 69.2827Z" fill="white"/>
<path d="M100.128 68.5871V69.2827H96.4507V63.2204H100.128V63.8167H97.2457V65.9037H99.6309V66.5H97.2457V68.5871H100.128Z" fill="white"/>
<path d="M108.178 63.2204L105.693 69.2827H104.998L102.513 63.2204H103.209C103.308 63.2204 103.308 63.2204 103.408 63.3198L103.507 63.4192L105.197 67.6926C105.197 67.792 105.296 67.8914 105.296 67.9908C105.296 68.0901 105.395 68.1895 105.395 68.3883C105.395 68.2889 105.495 68.1895 105.495 67.9908C105.495 67.8914 105.594 67.792 105.594 67.6926L107.284 63.4192L107.383 63.3198C107.482 63.3198 107.482 63.2204 107.582 63.2204H108.178Z" fill="white"/>
<path d="M109.768 63.2204H108.973V69.2827H109.768V63.2204Z" fill="white"/>
<path d="M114.737 68.5871V69.2827H111.358V63.2204H112.153V68.5871H114.737Z" fill="white"/>
<path d="M119.11 68.5871V69.2827H115.632V63.2204H116.526V68.5871H119.11Z" fill="white"/>
<path d="M124.974 69.2827H124.377C124.278 69.2827 124.278 69.2827 124.179 69.1833L124.079 69.084L123.483 67.5932H120.8L120.203 69.084C120.203 69.1833 120.203 69.1833 120.104 69.1833C120.104 69.1833 120.005 69.2827 119.905 69.2827H119.309L121.694 63.2204H122.489L124.974 69.2827ZM123.284 66.9969L122.29 64.5124C122.29 64.413 122.191 64.3136 122.191 64.2142C122.191 64.1148 122.092 64.0155 122.092 63.9161C121.992 64.1148 121.992 64.3136 121.893 64.5124L120.899 66.9969H123.284Z" fill="white"/>
<path d="M128.85 64.1149C128.85 64.2142 128.85 64.2142 128.85 64.1149C128.75 64.2142 128.75 64.2142 128.651 64.2142C128.651 64.2142 128.551 64.2142 128.452 64.1149C128.353 64.1149 128.353 64.0155 128.253 63.9161C128.154 63.8167 128.054 63.8167 127.856 63.7173C127.756 63.7173 127.558 63.6179 127.359 63.6179C127.16 63.6179 127.061 63.6179 126.862 63.7173C126.762 63.7173 126.564 63.8167 126.464 63.9161C126.365 64.0155 126.266 64.1149 126.266 64.2142C126.266 64.3136 126.166 64.413 126.166 64.6118C126.166 64.8105 126.166 64.9099 126.266 65.0093C126.365 65.1087 126.464 65.2081 126.564 65.3074C126.663 65.4068 126.862 65.4068 127.061 65.5062C127.259 65.6056 127.458 65.6056 127.558 65.705C127.756 65.8044 127.955 65.8044 128.054 65.9037C128.253 66.0031 128.353 66.1025 128.551 66.2019C128.75 66.3013 128.75 66.5 128.85 66.5994C128.949 66.7982 128.949 66.9969 128.949 67.1957C128.949 67.4939 128.949 67.6926 128.85 67.9908C128.75 68.1895 128.651 68.3883 128.452 68.5871C128.253 68.7858 128.054 68.8852 127.856 68.9846C127.558 69.084 127.359 69.1834 126.961 69.1834C126.564 69.1834 126.166 69.084 125.868 68.9846C125.57 68.8852 125.272 68.6865 125.073 68.3883L125.272 67.9908L125.371 67.8914H125.471H125.57C125.57 67.8914 125.669 67.9908 125.769 67.9908C125.868 67.9908 125.868 68.0902 125.967 68.1895C126.067 68.2889 126.166 68.2889 126.266 68.2889C126.365 68.2889 126.464 68.3883 126.564 68.3883C126.663 68.3883 126.862 68.3883 126.961 68.3883C127.16 68.3883 127.359 68.3883 127.458 68.2889C127.657 68.1895 127.756 68.1895 127.856 68.0902C127.955 67.9908 128.054 67.8914 128.054 67.6926C128.154 67.5932 128.154 67.3945 128.154 67.1957C128.154 66.9969 128.154 66.8976 128.054 66.6988C127.955 66.5994 127.856 66.5 127.756 66.4007C127.657 66.3013 127.458 66.3013 127.259 66.2019C127.061 66.1025 126.862 66.1025 126.762 66.0031C126.564 65.9037 126.365 65.9037 126.266 65.8044C126.166 65.705 125.967 65.6056 125.769 65.5062C125.669 65.4068 125.57 65.2081 125.471 65.0093C125.371 64.8105 125.371 64.6118 125.371 64.3136C125.371 64.1148 125.371 63.9161 125.471 63.7173C125.57 63.5186 125.669 63.3198 125.868 63.2204C126.067 63.0216 126.266 62.9223 126.464 62.8229C126.663 62.7235 126.961 62.7235 127.259 62.7235C127.558 62.7235 127.955 62.8229 128.154 62.9223C128.452 63.0216 128.651 63.2204 128.85 63.4192V64.1149Z" fill="white"/>
<path d="M77.8662 67.792H65.344V68.3883H77.8662V67.792Z" fill="white"/>
<path d="M143.956 67.792H131.433V68.3883H143.956V67.792Z" fill="white"/>
<path fill-rule="evenodd" clip-rule="evenodd" d="M38.7095 1.30511C38.2126 1.20573 37.6163 0.907584 37.6163 0.907584L38.7095 0.410672C38.7095 0.410672 38.8089 -0.086241 38.1132 0.0131415C37.4175 0.112524 35.6286 0.410672 34.9329 1.10635C34.2373 1.80203 33.1441 2.69647 33.1441 2.69647L31.057 6.87053C31.057 6.87053 29.8644 8.85818 29.7651 9.85201C29.6657 10.8458 28.3737 12.7341 28.3737 12.7341C28.3737 12.7341 26.6842 15.6162 26.0879 16.2125C25.4916 16.7094 25.1935 17.5045 25.1935 17.5045H24.6966C24.6966 17.5045 24.0009 15.9143 24.1996 14.9205C24.3984 13.9267 25.6904 12.9329 25.3922 12.6347C25.1935 12.3366 24.5972 11.7403 24.5972 11.7403H24.299L24.3984 11.3427H24.0009C24.0009 11.3427 24.1996 10.3489 23.8021 10.4483C23.4046 10.5477 22.6095 10.5477 22.4108 10.3489C22.212 10.1502 20.92 9.25571 20.2243 9.55386C19.5287 9.75263 17.3422 10.7465 17.4416 12.2372C16.5472 12.7341 15.7521 13.4298 16.0503 14.3242C16.3484 15.2187 16.9447 17.2063 18.833 16.0137C19.628 16.61 20.6219 16.7094 20.6219 16.7094C20.6219 16.7094 20.92 18.5977 19.9262 18.5977C18.9324 18.5977 17.8392 18.6971 17.2429 19.0946C16.6466 19.4921 14.0626 20.2872 12.2737 20.0884C10.5842 19.989 9.98794 19.8896 8.19906 19.989C6.31079 19.8896 4.32314 19.8896 4.32314 19.8896C4.32314 19.8896 2.43487 20.6847 1.83858 21.5791C1.1429 22.3742 0.844751 22.8711 0.844751 22.8711L0.0496912 24.1631C0.0496912 24.1631 -0.149074 24.66 0.248456 24.5606C0.645986 24.5606 0.745369 24.1631 0.745369 24.1631V25.1569C0.745369 25.1569 0.745369 25.5544 1.1429 25.2563C1.24228 25.2563 1.83858 25.6538 1.83858 25.1569C1.83858 24.66 1.54043 23.5668 1.63981 23.368C1.73919 23.1693 2.33549 22.6724 2.53425 22.6724C2.73302 22.6724 2.93178 22.8711 2.8324 23.1693C2.73302 23.4674 2.63364 23.6662 2.63364 24.0637C2.63364 24.4612 3.13055 24.4612 3.13055 24.4612L3.4287 23.6662C3.4287 23.6662 3.4287 23.368 3.72684 23.0699C4.12437 22.8711 4.72067 21.8773 4.62129 21.3804C6.01264 21.5791 9.49103 22.1754 9.49103 22.1754C9.49103 22.1754 11.0811 22.573 12.3731 22.2748C13.5657 22.0761 17.7398 21.6785 18.3361 21.7779C18.9324 21.8773 19.9262 23.4674 19.9262 23.4674C19.9262 23.4674 20.92 24.1631 20.92 24.7594C20.92 25.3557 21.3175 27.3433 21.3175 27.3433C21.3175 27.3433 21.2182 28.3372 20.8206 28.9335H20.7213L20.8206 28.8341H20.7213C16.0503 29.331 11.3793 29.8279 6.8077 30.3248C6.8077 30.3248 6.8077 30.3248 6.90708 30.3248C6.90708 30.5236 6.90708 30.623 6.90708 30.8217C6.90708 30.5236 6.90708 30.3248 6.90708 30.3248C6.90708 31.418 6.8077 31.3186 7.10585 31.8155C7.404 32.3125 7.404 32.1137 7.50338 32.3125C7.30461 33.2069 7.90091 34.002 8.29844 34.1013L8.39782 34.2007C8.39782 34.2007 8.39782 34.3001 8.39782 34.3995C8.4972 34.8964 8.69597 35.2939 8.99412 35.5921C9.39165 35.9896 9.39165 35.7908 9.49103 36.1884C9.49103 36.5859 9.68979 36.6853 10.1867 37.0828C10.4849 37.2816 10.6836 37.4803 10.8824 37.5797C11.0811 37.6791 11.2799 37.7785 11.2799 37.7785C11.2799 37.7785 11.2799 37.7785 11.1805 37.6791C11.2799 37.7785 11.3793 37.7785 11.3793 37.7785C11.3793 37.7785 10.783 37.1822 10.1867 36.6853C9.68979 36.1884 10.0873 36.3871 9.98794 35.9896C10.2861 35.6915 10.3855 35.7908 10.783 35.6915C11.4787 35.4927 14.9571 33.4057 17.8392 31.5174C17.7398 31.6168 17.7398 31.6168 17.6404 31.7162C17.4416 32.0143 17.3422 32.3125 17.1435 32.6106C14.3608 34.797 11.4787 37.1822 11.3793 37.5797C11.3793 37.5797 11.3793 37.5797 11.3793 37.6791C12.075 37.1822 14.3608 35.2939 16.6466 33.505C16.5472 33.9026 16.4478 34.3001 16.4478 34.797L16.249 34.9958C15.454 35.9896 14.6589 36.4865 13.6651 37.4803C13.2676 37.8779 12.4725 38.176 11.9756 38.3748C11.9756 38.3748 12.075 38.3748 12.1744 38.3748C12.1744 38.3748 12.1744 38.3748 12.075 38.3748C12.1744 38.3748 12.2737 38.4742 12.3731 38.4742C12.9694 38.5736 13.9632 37.9773 14.4602 37.381C14.6589 37.0828 15.454 36.3871 16.4478 35.3933C16.4478 35.6915 16.5472 35.9896 16.5472 36.2878C16.1497 36.6853 15.8515 36.9834 15.5534 37.381C14.9571 37.8779 14.8577 38.4742 14.2614 38.9711C14.162 39.1698 13.8639 39.468 13.7645 39.7661V39.8655C13.7645 39.8655 13.7645 39.8655 13.8639 39.8655C13.8639 39.8655 13.8639 39.8655 13.8639 39.9649C13.8639 39.9649 13.8639 39.9649 13.9632 39.9649C14.3608 39.7661 14.8577 39.0705 15.1558 38.7723C15.7521 38.0766 16.249 37.4803 16.746 36.9834C16.8453 37.2816 16.9447 37.6791 17.1435 37.9773C16.746 38.4742 16.3484 39.1698 15.9509 39.6668C15.7521 40.0643 15.454 40.2631 14.9571 40.5612V40.6606C14.9571 40.6606 14.9571 40.6606 15.0564 40.6606C15.0564 40.6606 15.0564 40.6606 15.0564 40.76C15.0564 40.76 15.0564 40.76 15.1558 40.76C16.249 40.6606 16.6466 39.6668 17.0441 39.0705C17.1435 38.8717 17.3422 38.6729 17.4416 38.4742C17.541 38.7723 17.7398 38.9711 17.9385 39.2692L18.1373 39.468C17.8392 39.8655 17.541 40.2631 17.1435 40.76C17.1435 40.9587 16.9447 41.4556 16.9447 41.6544C16.746 41.4556 16.5472 41.3563 16.4478 41.1575C16.5472 41.2569 16.6466 41.3563 16.746 41.4556C16.6466 41.3563 16.5472 41.2569 16.3484 41.1575C16.3484 41.1575 16.249 41.1575 16.249 41.0581C15.7521 40.6606 15.454 40.76 14.9571 40.6606C14.7583 40.5612 14.4602 40.3624 14.2614 40.2631C14.3608 40.3624 14.3608 40.3624 14.4602 40.3624C14.3608 40.3624 14.2614 40.2631 14.162 40.2631C14.2614 40.3624 14.3608 40.4618 14.4602 40.4618C15.0564 40.8594 15.5534 40.76 16.1497 41.1575C16.3484 41.3563 16.5472 41.555 16.746 41.7538L16.8453 41.8532C16.8453 41.8532 16.8453 41.8532 16.746 41.7538L16.8453 41.8532L16.9447 41.9526C17.1435 41.2569 17.6404 40.6606 18.0379 40.0643C18.1373 40.3624 18.2367 40.8594 18.3361 41.4556C18.1373 41.7538 18.0379 42.0519 17.8392 42.3501C18.0379 42.3501 18.1373 42.1513 18.3361 42.0519C18.3361 42.1513 18.4355 42.3501 18.4355 42.4495C18.1373 42.4495 17.8392 42.4495 17.541 42.4495C17.3422 42.3501 17.0441 42.1513 16.8453 42.0519C16.746 41.9526 16.746 41.9526 16.6466 41.8532L16.5472 41.7538C16.5472 41.7538 16.5472 41.8532 16.6466 41.8532L16.5472 41.7538C16.5472 41.8532 16.6466 41.8532 16.6466 41.9526C16.6466 41.9526 16.6466 41.9526 16.746 41.9526C17.0441 42.0519 17.2429 42.2507 17.541 42.3501C17.8392 42.4495 18.1373 42.4495 18.4355 42.5489C18.7336 43.9402 19.1311 45.4309 19.4293 46.0272C18.833 48.1143 17.8392 50.7976 17.7398 51.3939C17.4416 52.189 17.6404 53.9778 17.7398 54.5741C17.8392 55.2698 17.2429 60.5371 16.9447 60.8352C16.6466 61.1334 15.8515 60.9346 15.6527 61.5309C15.454 62.1272 16.249 63.6179 16.5472 64.5124C16.8453 65.4068 16.249 67.9908 16.249 68.2889C16.1497 68.5871 17.1435 68.4877 17.3422 68.4877C17.3422 68.4877 18.2367 67.1957 18.9324 64.7112C19.4293 62.7235 18.833 61.1334 19.0317 60.5371C19.2305 59.9408 20.8206 53.0834 20.92 52.0896C20.92 51.692 21.2182 51.0957 21.5163 50.1019C21.8145 51.4933 21.8145 53.5803 22.0132 54.276C22.3114 54.9717 24.6966 62.5247 24.7959 63.2204C25.0941 64.7112 24.1003 69.7797 24.7959 70.5747C25.4916 71.3698 26.0879 70.9723 26.0879 70.9723C26.0879 70.9723 26.883 68.1895 26.9824 67.4939C27.0817 66.5 27.1811 64.7112 26.9824 63.7173C26.883 63.3198 26.0879 61.2328 25.9885 60.4377C25.8891 59.6426 25.4916 54.3754 24.8953 52.7853C24.5972 51.9902 24.6966 50.4995 24.5972 50.1019C24.4978 49.8038 24.1003 46.0272 24.0009 45.6297C24.1003 45.2322 24.1996 45.0334 24.1996 45.0334L24.4978 44.2384C24.5972 44.2384 24.6966 44.2384 24.6966 44.2384C24.7959 44.2384 24.8953 44.2384 24.9947 44.2384C25.2928 44.2384 25.3922 44.3377 26.0879 44.5365C26.5848 44.6359 26.7836 44.7353 26.883 44.7353C26.9824 44.7353 27.0817 44.7353 27.1811 44.7353H27.2805C27.3799 44.7353 27.4793 44.7353 27.5786 44.7353C27.8768 44.7353 27.8768 44.6359 28.2743 44.5365C28.3737 44.5365 28.4731 44.5365 28.5725 44.5365C28.6719 44.5365 28.6719 44.5365 28.7712 44.5365C28.97 44.5365 29.3675 44.6359 29.8644 44.6359C30.1626 44.6359 30.4607 44.6359 30.6595 44.5365C31.2558 44.3377 31.7527 43.7414 31.5539 43.8408C31.5539 43.8408 31.5539 43.7414 31.5539 43.8408C31.5539 43.8408 31.4546 43.8408 31.4546 43.9402C31.5539 43.8408 31.6533 43.7414 31.5539 43.8408C31.5539 43.8408 31.5539 43.7414 31.5539 43.8408C31.3552 43.9402 30.8583 44.5365 29.2681 44.5365C29.6657 44.0396 27.8768 37.1822 26.9824 33.8032C26.9824 33.6044 26.9824 33.505 26.9824 33.3063V33.2069C28.1749 35.9896 31.4546 42.847 31.5539 43.5427C31.5539 43.5427 31.5539 43.6421 31.6533 43.6421C31.6533 43.6421 31.6533 43.6421 31.6533 43.5427V43.6421H31.5539C31.5539 43.6421 31.5539 43.6421 31.6533 43.7414C31.7527 43.7414 32.2496 44.139 32.8459 44.139C33.3428 44.139 33.7404 43.9402 34.1379 43.2445C34.1379 43.2445 34.1379 43.2445 34.2373 43.2445C34.2373 43.2445 34.2373 43.2445 34.1379 43.2445V43.1451L34.0385 43.2445C34.0385 43.2445 34.0385 43.1451 34.1379 43.1451L34.0385 43.2445C34.0385 43.1451 34.1379 43.1451 34.1379 43.0458L34.0385 43.1451C34.0385 43.1451 34.0385 43.0458 34.1379 43.0458C33.7404 43.3439 33.3428 43.8408 32.6472 43.8408C32.4484 43.8408 32.1502 43.7414 31.8521 43.6421C32.1502 42.9464 27.7774 34.2007 26.9824 32.5112C28.2743 34.797 33.1441 42.3501 34.436 43.0458L34.5354 43.1451C34.5354 43.1451 34.5354 43.1451 34.5354 43.0458C34.5354 43.0458 34.5354 43.0458 34.6348 43.0458C34.5354 43.1451 34.5354 43.1451 34.436 43.1451H34.5354C34.5354 43.1451 34.6348 43.1451 34.7342 43.0458C34.6348 43.1451 34.6348 43.1451 34.5354 43.1451H34.6348C34.8336 43.1451 35.3305 42.9464 35.6286 42.6482C36.2249 42.4495 37.1194 41.8532 37.02 41.555C37.02 41.6544 36.9206 41.6544 36.9206 41.7538C36.9206 41.6544 37.02 41.6544 36.9206 41.555C36.9206 41.555 36.9206 41.555 37.02 41.555C35.9268 40.4618 34.8336 39.2692 33.641 38.176C31.4546 35.9896 29.6657 33.9026 27.4793 31.8155H27.3799L26.883 31.6168H26.7836L27.0817 32.1137C27.0817 32.1137 27.0817 32.1137 27.0817 32.0143L27.1811 32.1137C27.1811 32.1137 27.1811 32.1137 27.1811 32.0143C27.8768 32.5112 28.97 34.3001 29.3675 34.8964C29.9638 35.7908 30.7589 36.5859 31.2558 37.381C31.5539 37.7785 31.9515 38.176 32.2496 38.4742C32.8459 39.5674 34.1379 41.2569 35.0323 42.3501C34.9329 42.4495 34.8336 42.4495 34.5354 42.7476C34.436 42.7476 34.436 42.847 34.436 42.847C34.436 42.847 34.436 42.847 34.436 42.7476C34.1379 42.1513 29.7651 36.3871 29.4669 35.6915C28.97 34.797 27.678 32.5112 26.883 31.6168C26.883 31.6168 26.883 31.5174 26.7836 31.5174C26.6842 31.0205 26.6842 30.623 26.7836 30.126C26.883 29.5297 27.2805 28.9335 27.5786 28.4365C27.5786 28.3372 27.678 28.3372 27.678 28.3372C28.2743 27.3433 28.7712 24.3619 28.7712 24.3619C28.7712 24.3619 29.2681 23.2687 29.1688 22.573C29.0694 21.8773 28.3737 19.4921 28.3737 19.4921C28.3737 19.4921 27.8768 18.3989 28.3737 17.3057C28.8706 16.2125 30.9577 11.8397 31.3552 11.2434C31.7527 10.6471 32.1502 10.2495 32.9453 7.66559C33.7404 5.08165 34.1379 3.19338 34.1379 3.19338C34.1379 3.19338 34.9329 2.69647 35.5292 2.29894C36.2249 1.90141 37.5169 2.00079 37.5169 2.00079C37.5169 2.00079 39.0076 2.29894 38.9083 2.00079C38.8089 1.80203 38.4113 1.70264 38.4113 1.70264C38.4113 1.70264 39.2064 1.70264 39.5045 1.60326C39.5045 1.60326 40.1008 1.60326 40.1008 1.50388C40.1008 1.30511 40.1008 1.30511 40.1008 1.30511C40.1008 1.30511 40.6971 1.30511 40.6971 1.00697C40.6971 0.907584 39.6039 0.907584 39.6039 0.907584C39.2064 1.20573 39.0076 1.30511 38.7095 1.30511ZM14.9571 41.1575C14.8577 41.1575 14.8577 41.1575 14.7583 41.1575C14.7583 41.1575 14.8577 41.1575 14.9571 41.1575ZM15.0564 41.2569C14.9571 41.2569 14.8577 41.2569 14.7583 41.1575C14.7583 41.1575 14.6589 41.1575 14.6589 41.0581H14.7583C14.8577 41.0581 15.0564 41.1575 15.1558 41.1575C15.0564 41.1575 14.9571 41.1575 14.8577 41.0581C14.9571 41.1575 14.9571 41.2569 15.0564 41.2569ZM15.9509 41.555C16.0503 41.555 16.0503 41.555 15.9509 41.555C16.0503 41.6544 16.1497 41.7538 16.3484 41.8532C16.249 41.8532 16.1497 41.6544 15.9509 41.555ZM16.0503 41.555C16.249 41.6544 16.3484 41.7538 16.4478 41.8532C16.249 41.8532 16.1497 41.6544 16.0503 41.555ZM16.9447 42.4495C17.0441 42.4495 17.0441 42.5489 17.1435 42.5489C17.0441 42.5489 16.9447 42.5489 16.9447 42.4495ZM16.9447 42.4495C17.0441 42.4495 17.0441 42.4495 17.1435 42.5489C17.1435 42.5489 17.0441 42.5489 16.9447 42.4495C17.1435 42.5489 17.2429 42.5489 17.3422 42.6482C17.2429 42.6482 17.1435 42.5489 16.9447 42.4495ZM17.7398 42.847C17.7398 42.847 17.8392 42.847 17.7398 42.847C17.8392 42.847 17.8392 42.847 17.7398 42.847ZM31.8521 43.8408C31.9515 43.8408 31.9515 43.8408 31.8521 43.8408C31.9515 43.8408 31.9515 43.8408 31.8521 43.8408ZM31.8521 43.8408C31.8521 43.8408 31.9515 43.8408 31.8521 43.8408C31.9515 43.8408 31.8521 43.8408 31.8521 43.8408ZM37.02 41.8532C37.02 41.9526 36.9206 42.0519 36.8212 42.1513C36.9206 42.0519 36.9206 41.9526 37.02 41.8532ZM36.9206 41.8532V41.9526C36.9206 41.9526 36.9206 41.9526 36.9206 41.8532ZM33.1441 39.3686C31.8521 37.6791 30.5601 35.6915 29.0694 34.002C31.2558 36.3871 33.2435 38.2754 35.4299 40.76C35.728 40.9587 36.4237 41.6544 36.7218 41.7538C36.7218 41.7538 36.7218 41.7538 36.8212 41.7538C36.6225 42.1513 35.9268 42.4495 35.5292 42.5489C35.4299 42.5489 35.4299 42.5489 35.4299 42.5489C35.0323 41.6544 34.0385 40.6606 33.1441 39.3686ZM19.4293 30.0267L18.833 30.2254C19.0317 30.126 19.3299 30.0267 19.4293 30.0267C19.4293 29.9273 19.4293 30.0267 19.4293 30.0267ZM19.3299 30.0267C19.2305 30.126 19.2305 30.126 19.1311 30.2254L17.6404 30.8217C18.3361 30.4242 18.9324 30.2254 19.3299 30.0267ZM19.1311 30.2254C19.1311 30.2254 19.0317 30.2254 19.1311 30.2254L19.0317 30.3248C19.0317 30.2254 19.0317 30.2254 19.1311 30.2254ZM6.70832 30.9211C6.70832 30.623 6.70832 30.4242 6.70832 30.4242C6.70832 30.5236 6.70832 30.623 6.70832 30.623C6.70832 30.5236 6.70832 30.4242 6.70832 30.3248C6.70832 30.3248 6.70832 30.3248 6.8077 30.3248C6.8077 30.3248 6.8077 30.3248 6.70832 30.3248C6.70832 30.3248 6.70832 30.3248 6.8077 30.3248C6.70832 30.7223 6.70832 30.8217 6.70832 30.9211ZM7.404 32.1137C7.50338 32.1137 7.60276 32.1137 7.70214 32.1137C7.50338 32.1137 7.50338 32.1137 7.404 32.1137C7.404 32.2131 7.404 32.1137 7.404 32.1137ZM8.19906 34.3001C8.09967 34.3001 8.09967 34.2007 8.19906 34.3001C8.19906 34.2007 8.09967 34.1013 8.19906 34.002C8.09967 34.002 8.09967 34.1013 8.19906 34.3001C7.20523 33.3063 7.60276 33.1075 7.60276 32.5112C7.60276 32.3125 7.60276 32.2131 7.50338 32.2131C8.89473 31.9149 16.249 30.9211 19.4293 29.9273C19.3299 29.9273 19.3299 29.9273 19.2305 29.9273H19.3299C19.1311 29.9273 18.833 30.0267 18.5348 30.126C18.833 30.0267 19.0317 30.0267 19.3299 29.9273C19.2305 29.9273 19.2305 29.9273 19.1311 29.9273H19.2305C17.0441 30.4242 9.39165 31.6168 7.60276 32.0143C7.70214 32.0143 7.70214 32.0143 7.70214 32.0143C7.60276 32.0143 7.30461 32.1137 7.30461 32.2131H7.20523C7.20523 32.2131 7.10585 32.1137 7.10585 32.0143C6.90708 31.6168 6.8077 30.623 6.8077 30.5236C7.10585 30.623 7.404 30.623 7.70214 30.623C8.59659 30.623 9.39165 30.4242 10.3855 30.3248C12.6713 30.2254 14.8577 29.8279 17.0441 29.5297C17.9385 29.4304 19.4293 29.5297 20.3237 29.1322C20.4231 29.1322 20.4231 29.2316 20.5225 29.2316L20.4231 29.331C20.2243 29.4304 19.9262 29.6291 19.7274 29.7285C19.8268 29.7285 19.8268 29.6291 19.9262 29.6291C19.8268 29.6291 19.8268 29.7285 19.8268 29.7285C19.9262 29.7285 19.9262 29.7285 20.0256 29.6291C19.9262 29.7285 19.8268 29.7285 19.8268 29.8279C19.7274 29.8279 19.628 29.9273 19.5287 29.9273C19.628 29.9273 19.628 29.9273 19.7274 29.9273H19.628H19.7274C19.7274 29.9273 19.628 29.9273 19.628 30.0267L8.39782 34.1013C8.39782 34.1013 8.29844 34.1013 8.29844 34.2007V34.1013V34.2007C8.29844 34.2007 8.19906 34.2007 8.19906 34.3001C8.29844 34.2007 8.29844 34.1013 8.29844 34.1013C8.19906 34.002 8.19906 34.1013 8.19906 34.3001C8.19906 34.2007 8.19906 34.2007 8.19906 34.3001ZM8.29844 34.5983C8.29844 34.5983 8.29844 34.6976 8.29844 34.5983C8.29844 34.6976 8.29844 34.5983 8.29844 34.5983ZM8.19906 34.4989C8.29844 34.5983 8.29844 34.797 8.39782 34.8964C8.29844 34.797 8.19906 34.6976 8.19906 34.4989ZM8.39782 34.9958C8.29844 34.8964 8.29844 34.6976 8.29844 34.5983C8.39782 34.6976 8.39782 34.8964 8.39782 34.9958ZM9.49103 36.089L9.39165 35.9896L9.29226 35.8902L9.19288 35.7908C8.99412 35.5921 8.89473 35.3933 8.59659 34.9958C8.4972 34.8964 8.4972 34.6976 8.39782 34.5983H8.4972L8.69597 34.3995C9.0935 34.4989 16.0503 31.5174 19.0317 30.3248C18.833 30.5236 18.5348 30.7223 18.2367 30.9211C15.0564 32.71 10.0873 35.6915 9.49103 36.089ZM24.6966 44.3377L24.7959 44.0396C24.7959 44.139 24.7959 44.2384 24.7959 44.3377C24.7959 44.3377 24.7959 44.3377 24.6966 44.3377ZM24.8953 44.3377C24.8953 44.3377 24.8953 44.2384 24.8953 44.3377C24.8953 44.2384 24.8953 44.3377 24.8953 44.3377ZM26.7836 44.7353C26.2867 44.7353 25.8891 44.5365 25.3922 44.4371C25.2928 44.4371 25.1935 44.3377 25.0941 44.3377C25.2928 44.0396 25.3922 43.3439 25.3922 42.7476L25.591 42.2507C25.8891 41.6544 26.1873 40.9587 26.3861 40.0643C26.5848 42.2507 26.7836 44.2384 27.1811 44.6359C27.0817 44.7353 26.883 44.7353 26.7836 44.7353ZM27.2805 44.7353C27.2805 44.7353 27.2805 44.6359 27.2805 44.7353C27.2805 44.6359 27.2805 44.7353 27.2805 44.7353ZM27.2805 44.7353C27.2805 44.7353 27.3799 44.7353 27.2805 44.7353C27.3799 44.7353 27.3799 44.7353 27.2805 44.7353ZM29.3675 44.5365C29.3675 44.6359 29.3675 44.6359 29.3675 44.5365C29.3675 44.6359 29.3675 44.6359 29.3675 44.5365C29.3675 44.6359 29.3675 44.6359 29.3675 44.5365C29.3675 44.6359 29.3675 44.6359 29.3675 44.5365ZM29.2681 44.5365C29.2681 44.5365 29.3675 44.6359 29.2681 44.5365C29.2681 44.6359 29.1688 44.6359 28.97 44.5365C28.6719 44.5365 28.6719 44.4371 28.5725 44.4371C28.4731 44.4371 28.4731 44.4371 28.2743 44.5365C28.1749 44.6359 28.0756 44.6359 27.9762 44.6359C27.8768 44.6359 27.7774 44.6359 27.5786 44.6359C27.4793 44.6359 27.3799 44.6359 27.2805 44.6359C27.0817 44.0396 26.7836 41.2569 26.6842 38.4742C26.883 37.381 26.9823 36.2878 27.0817 35.1945C27.8768 38.6729 28.97 43.8408 29.1688 44.4371C29.1688 44.5365 29.2681 44.5365 29.2681 44.5365Z" fill="white"/>
</svg>
