<svg width="358" height="974" viewBox="0 0 358 974" fill="none" xmlns="http://www.w3.org/2000/svg">
<path d="M-585.041 1014.18C-598.543 1009.18 -611.587 1000.44 -623.896 988.035C-640.401 971.464 -655.592 948.107 -665.879 923.746C-667.113 920.715 -668.247 917.861 -669.421 915.146C-675.095 900.878 -679.012 887.253 -683.309 872.329C-685.108 866.009 -686.769 859.728 -688.59 852.955C-692.39 838.915 -696.312 824.246 -700.902 809.836C-705.454 795.287 -710.053 783.558 -715.102 772.894C-719.137 764.454 -724 755.781 -729.533 747.366C-741.889 728.236 -756.938 710.733 -772.678 693.036C-789.29 674.198 -807.478 655.663 -831.794 652.546C-844.041 651.037 -856.685 653.591 -868.976 655.945C-880.183 658.158 -891.882 660.53 -903.317 659.846C-921.495 658.755 -937.124 649.138 -947.3 632.858C-959.142 614.021 -962.953 587.308 -957.018 563.04C-950.443 535.971 -936.054 510.802 -922.038 486.423L-921.235 485.158C-913.268 471.152 -905.516 457.382 -899.086 443.54C-889.547 423.416 -869.624 372.227 -889.906 332.53C-891.615 329.067 -893.677 325.803 -895.956 322.777C-901.683 315.053 -908.883 308.853 -915.944 302.692C-921.956 297.571 -928.029 292.135 -933.178 286.064C-948.15 268.285 -954.534 243.829 -951.749 215.395C-949.111 189.602 -939.087 162.46 -923.391 139.001C-913.3 123.803 -901.076 109.504 -889.324 95.817C-879.121 83.9303 -868.663 71.6681 -859.509 58.7409C-830.381 17.7449 -812.263 -31.2692 -804.3 -91.3406C-801.409 -112.739 -799.924 -136.023 -799.435 -162.123C-799.314 -166.263 -799.291 -170.579 -799.269 -174.896C-798.757 -214.852 -798.171 -256.13 -787.459 -293.663C-778.884 -323.598 -764.984 -347.563 -744.778 -366.92C-740.516 -370.938 -735.979 -374.879 -731.066 -378.564C-698.797 -403.173 -658.727 -413.66 -619.955 -423.767C-590.341 -431.532 -559.603 -439.578 -531.848 -453.978C-503.6 -468.538 -477.066 -487.605 -451.317 -505.998C-422.758 -526.433 -393.274 -547.503 -361.422 -562.688C-335.963 -574.753 -311.689 -582.083 -287.358 -585.372C-253 -589.864 -215.38 -586.879 -168.915 -575.591C-140.426 -568.765 -107.731 -560.458 -81.8281 -549.739C-78.6296 -548.392 -75.431 -547.044 -72.4095 -545.597C-69.6254 -544.367 -66.7031 -543.097 -63.7808 -541.827C-59.7924 -540.108 -55.7262 -538.666 -51.66 -537.223C-39.4226 -533.034 -26.0669 -530.169 -12.1454 -528.785C1.1847 -527.419 15.2187 -527.494 27.3015 -527.522L28.7216 -527.272C54.1478 -527.569 80.3812 -528.087 107.926 -525.85C133.145 -523.821 155.945 -515.317 180.126 -506.424C208.473 -495.912 237.786 -485.128 271.492 -485.182C281.347 -485.241 291.496 -485.813 301.33 -486.325C326.476 -487.745 352.528 -489.208 376.269 -481.93C403.011 -473.658 425.437 -454.824 444.914 -424.448C454.257 -409.445 462.922 -391.503 472.16 -368.182C482.533 -342.007 492.733 -314.688 502.437 -288.255C548.742 -162.523 596.661 -32.4617 706.442 39.8778C710.849 42.7579 715.394 45.6769 719.84 48.419C743.77 63.5019 768.589 79.1332 780.438 104.829C796.862 140.757 782.073 184.298 769.674 214.051C767.506 219.106 765.338 224.161 763.032 229.176C754.317 248.488 742.879 266.884 732.01 284.845C724.078 297.669 716.029 310.907 708.77 324.516L708.515 324.892C703.251 334.591 686.142 369.429 687.61 411.881C688.702 438.723 697.02 463.723 712.483 486.113C721.602 499.264 734.435 509.285 745.821 517.558C747.66 518.97 749.675 520.283 751.514 521.695C764.877 531.419 778.754 541.436 788.641 554.505C792.426 559.595 796.353 565.769 796.559 572.982C796.743 584.513 787.499 594.582 779.896 600.94C772.901 606.723 764.919 611.781 755.77 616.212C736.727 625.611 716.545 631.111 692.305 637.258L691.675 637.379C678.206 640.744 664.245 644.268 651.492 649.325C647.3 650.978 643.03 652.907 638.583 654.935C607.323 670.137 581.659 695.114 560.042 731.665C553.267 743.026 547.731 753.692 543.041 763.999C534.953 782.146 527.917 802.377 521.075 821.918C518.307 829.636 515.599 837.67 512.83 845.388C504.27 868.917 494.156 893.202 474.386 908.359C469.827 911.846 464.655 914.862 459.224 917.21C424.67 931.933 392.655 915.916 358.645 899.039C356.276 897.925 353.945 896.673 351.437 895.52C333.386 886.564 312.119 876.851 289.701 875.461C268.191 874.029 245.725 880.228 224.311 893.283C203.036 906.376 182.834 926.778 167.474 950.63C157.327 966.557 148.682 983.503 140.231 999.759L138.823 1002.64C133.209 1013.58 126.598 1026.48 119.611 1039.12C111.626 1053.72 104.536 1065.14 97.6188 1075.42C82.9982 1096.65 65.5463 1114.69 47.0895 1127.84C25.5071 1143.08 3.34304 1150.85 -18.4958 1151.12C-29.849 1151.2 -41.2494 1149.33 -53.2106 1145.22C-73.7574 1138.25 -92.5506 1126.1 -110.731 1114.42L-114.387 1112.05C-174.224 1073.6 -235.69 1041.99 -297.321 1018.38C-298.802 1017.81 -300.282 1017.25 -301.763 1016.68C-405.222 978.025 -462.594 989.605 -496.902 1001.86C-501.862 1003.6 -506.762 1005.65 -511.623 1007.56C-522.408 1011.98 -533.507 1016.46 -545.051 1018.28C-558.347 1020.5 -571.854 1019.23 -585.041 1014.18ZM-818.184 655.035C-799.964 661.803 -785.199 677.139 -771.655 692.578C-755.954 710.414 -740.904 727.917 -728.549 747.047C-723.055 755.6 -718.152 764.135 -714.157 772.713C-708.97 783.415 -704.547 795.244 -699.857 809.832C-695.267 824.242 -691.345 838.911 -687.545 852.95C-685.724 859.724 -684.064 866.005 -682.265 872.325C-677.968 887.249 -674.012 900.736 -668.376 915.142C-667.341 917.818 -666.206 920.672 -664.834 923.742C-654.646 947.926 -639.416 971.145 -623.05 987.677C-599.105 1011.71 -572.04 1022.01 -544.856 1017.58C-533.451 1015.73 -522.351 1011.25 -511.744 1006.93C-506.883 1005.02 -501.983 1002.97 -497.023 1001.23C-424.116 975.241 -347.842 998.199 -296.712 1017.81C-235.12 1041.55 -173.477 1073.06 -113.679 1111.66L-110.023 1114.03C-91.8426 1125.7 -73.0493 1137.85 -52.7788 1144.75C-40.9557 1148.82 -29.6935 1150.65 -18.3403 1150.56C21.8883 1150.11 64.9839 1121.99 97.0663 1075.27C104.122 1065.03 111.074 1053.57 119.02 1039.11C125.968 1026.6 132.579 1013.71 138.193 1002.76L139.6 999.88C147.952 983.447 156.736 966.54 166.883 950.613C182.281 926.622 202.522 906.082 223.936 893.028C245.388 879.835 268.131 873.714 289.818 875.047C312.511 876.515 333.779 886.227 351.968 895.222C354.338 896.336 356.669 897.589 359.177 898.742C392.909 915.54 424.786 931.518 458.987 916.994C464.418 914.646 469.413 911.729 473.972 908.242C493.525 893.322 503.463 869.137 511.984 845.746C514.753 838.028 517.599 830.033 520.229 822.277C527.071 802.736 534.106 782.504 542.234 764.219C546.963 753.773 552.46 743.246 559.274 731.747C581.067 695.097 606.809 669.844 638.208 654.68C642.694 652.514 646.924 650.723 651.155 648.932C663.908 643.875 677.869 640.351 691.377 636.848L692.007 636.727C716.247 630.58 736.391 625.218 755.296 615.781C764.306 611.31 772.15 606.213 779.106 600.568C786.67 594.349 795.659 584.655 795.398 573.401C795.252 566.503 791.425 560.506 787.64 555.416C777.89 542.386 763.975 532.506 750.612 522.783C748.773 521.371 746.757 520.058 744.918 518.646C733.532 510.373 720.562 500.312 711.343 486.985C695.781 464.418 687.225 439.202 686.311 412.26C684.782 369.493 701.969 334.379 707.233 324.68L707.449 324.443C714.669 310.971 722.757 297.595 730.689 284.771C741.657 266.988 752.957 248.553 761.672 229.241C763.978 224.225 766.146 219.17 768.314 214.116C780.812 184.539 795.424 141.097 779.16 105.662C767.548 80.182 742.868 64.5895 718.899 49.6448C714.453 46.9028 709.908 43.9838 705.501 41.1036C595.444 -31.3136 547.425 -161.552 501.021 -287.461C491.317 -313.894 481.156 -341.351 470.744 -367.388C461.506 -390.709 452.802 -408.513 443.597 -423.477C424.22 -453.676 401.892 -472.333 375.427 -480.527C351.863 -487.904 325.949 -486.403 300.902 -484.805C291.069 -484.294 280.881 -483.583 270.887 -483.563C236.867 -483.449 207.592 -494.371 179.107 -504.922C154.926 -513.815 132.264 -522.28 107.184 -524.27C79.7766 -526.468 53.4439 -526.127 28.1171 -525.653L26.9342 -525.688C14.9507 -525.483 0.817434 -525.584 -12.5126 -526.951C-26.4341 -528.335 -39.7899 -531.199 -52.1654 -535.428C-56.2316 -536.87 -60.3971 -538.49 -64.4244 -540.07C-67.3467 -541.34 -70.2689 -542.61 -73.053 -543.841C-76.1135 -545.149 -79.2731 -546.635 -82.4716 -547.982C-108.237 -558.662 -140.793 -566.93 -169.421 -573.795C-215.786 -584.906 -253.229 -587.991 -287.449 -583.46C-311.78 -580.171 -335.916 -572.802 -361.198 -560.836C-393.05 -545.651 -422.494 -524.72 -450.916 -504.246C-476.665 -485.852 -503.337 -466.824 -531.585 -452.264C-559.479 -437.903 -590.216 -429.857 -619.869 -421.954C-660.294 -411.269 -698.435 -401.282 -730.664 -376.812C-735.401 -373.225 -739.938 -369.285 -744.2 -365.267C-764.229 -346.009 -778.09 -322.182 -786.587 -292.523C-797.26 -255.128 -797.807 -213.989 -798.32 -174.033C-798.342 -169.716 -798.464 -165.576 -798.486 -161.259C-798.875 -134.983 -800.498 -111.737 -803.252 -90.3001C-811.253 -30.0905 -829.271 19.1007 -858.577 60.1958C-867.731 73.123 -878.327 85.3464 -888.391 97.2719C-900.144 110.958 -912.191 125.159 -922.42 140.317C-938.077 163.638 -948.062 190.643 -950.661 216.297C-953.507 244.416 -947.045 268.596 -932.349 286.298C-927.338 292.329 -921.227 297.627 -915.214 302.748C-908.153 308.909 -900.854 315.286 -895.127 323.01C-892.849 326.037 -890.687 329.478 -888.978 332.94C-881.171 348.106 -878.477 366.604 -881.014 387.804C-883.111 405.848 -889.124 425.622 -898.115 444.856C-904.683 458.66 -912.296 472.468 -920.264 486.475L-921.067 487.74C-934.906 512.019 -949.295 537.188 -955.831 564.12C-961.689 588.111 -957.938 614.51 -946.195 633.169C-936.079 649.134 -920.825 658.496 -902.963 659.647C-891.528 660.332 -880.006 658.059 -868.937 655.807C-856.607 653.314 -843.963 650.761 -831.44 652.348C-826.67 652.348 -822.349 653.415 -818.184 655.035Z" fill="url(#paint0_linear)"/>
<path d="M-409.072 931.325C-429.839 923.542 -445.014 904.364 -459.76 883.666C-476.311 860.374 -492.344 838.42 -508.53 827.604C-510.645 826.114 -512.838 824.901 -515.385 823.886C-521.19 821.208 -526.28 820.223 -531.192 819.139C-535.966 818.093 -540.641 817.225 -545.657 814.919C-558.65 809.175 -573.574 793.347 -585.403 772.874C-590.901 763.277 -595.889 752.929 -600.718 743.072C-601.573 741.341 -602.427 739.61 -603.281 737.879C-607.057 730.108 -611.489 720.96 -616.551 711.932C-626.636 693.739 -639.108 675.024 -654.701 654.684C-667.679 637.764 -685.56 617.079 -707.777 606.503C-723.022 599.231 -739.059 596.358 -755.786 593.29C-761.605 592.248 -767.7 591.129 -773.894 589.833C-791.195 586.156 -804.274 578.599 -812.755 567.417C-827.001 548.65 -825.637 524.735 -821.978 508.025C-819.092 495.122 -814.57 482.233 -810.164 469.758C-806.363 458.902 -802.757 448.737 -800.018 438.476C-797.029 426.795 -795.499 415.002 -795.414 401.46C-795.016 372.503 -802.297 340.639 -815.955 311.304C-817.366 308.373 -818.915 305.403 -820.326 302.471C-822.57 298.262 -824.991 294.152 -827.274 290.081C-832.176 281.545 -836.82 273.679 -840.108 264.704C-852.366 230.396 -839.942 182.015 -808.663 141.326C-799.289 129.206 -788.75 117.713 -778.288 106.495C-770.378 97.9881 -762.391 89.2048 -754.817 80.3049C-726.881 46.725 -707.358 9.13768 -696.736 -31.2529C-691.785 -50.4316 -688.885 -69.7403 -686.625 -86.2474C-686.339 -88.8504 -685.877 -91.5526 -685.591 -94.1556C-681.381 -126.065 -677.037 -158.98 -662.855 -186.592C-653.8 -204.466 -640.363 -220.958 -621.016 -238.321C-617.834 -241.153 -614.475 -244.083 -610.231 -247.51C-585.142 -268.326 -560.745 -284.565 -534.716 -301.837C-516.216 -314.071 -497.284 -326.781 -478.063 -341.049C-444.634 -366.076 -405.059 -382.218 -366.822 -397.843C-336.023 -410.343 -304.202 -423.301 -275.552 -440.878C-265.445 -447.127 -255.852 -453.669 -246.574 -460.152C-232.107 -470.242 -218.386 -479.797 -203.198 -487.15C-169.006 -503.763 -126.316 -509.786 -72.844 -505.917C-69.4725 -505.714 -65.5098 -505.493 -61.4088 -505.233C-33.5311 -503.648 8.46252 -501.37 24.5005 -483.142C27.3318 -479.96 29.278 -476.281 31.1639 -472.918C32.4542 -470.617 33.7056 -468.178 35.2722 -465.799C37.8098 -462.103 41.0555 -458.805 45.0092 -455.903C56.2574 -447.669 72.1813 -443.336 87.6313 -444.205C100.047 -444.885 116.132 -449.601 130.288 -453.816C158.323 -462.323 189.201 -464.515 219.612 -460.279C237.816 -457.69 254.892 -451.095 272.995 -443.913C289.934 -437.357 307.385 -430.507 326.361 -426.956C330.898 -426.126 335.474 -425.434 340.011 -424.605C356.854 -421.951 374.251 -419.142 390.368 -410.73C406.525 -402.456 420.219 -388.614 432.441 -368.478C437.036 -357.793 441.342 -345.55 445.997 -329.78C447.896 -323.283 449.932 -316.747 451.791 -310.111C480.2 -214.014 509.627 -114.648 580.398 -47.7722C582.871 -45.4364 585.483 -43.0616 587.956 -40.7258C606.869 -23.1788 626.317 -4.88492 639.082 18.0871C654.307 45.0312 658.968 77.2009 653.198 113.591C652.39 118.581 651.522 123.256 650.377 127.853C644.99 151.232 633.822 173.431 623.164 194.88C619.429 202.325 615.655 209.909 612.019 217.532C606.487 229.243 592.102 260.226 594.038 296.251C595.212 319.091 603.125 341.294 617.402 362.604C625.61 374.753 636.077 384.706 645.235 392.948L647.51 394.93C659.556 405.625 671.939 416.713 678.991 430.325C681.135 434.357 683.979 440.673 683.494 447.692C682.901 457.215 677.24 466.206 666.55 474.527C660.203 479.598 652.653 484.181 642.835 488.872C624.047 497.895 605.211 504.967 582.516 513.039C568.088 518.221 555.513 523.179 547.21 532.023C544.442 534.97 542.227 538.074 539.995 541.769C532.321 555.262 533.735 568.778 535.117 584.522C536.311 597.23 537.767 611.653 534.225 627.949C531.978 638.05 527.565 648.435 520.181 660.37C516.009 667.246 511.208 674.242 506.484 680.963C495.43 696.933 484.082 713.417 478.105 732.008C474.93 741.699 473.215 751.502 471.577 761.029C469.187 774.817 466.992 787.913 460.454 799.49C457.733 804.389 454.301 808.641 450.432 812.322C428.987 832.374 395.591 836.094 348.609 823.467C345.709 822.651 342.946 821.873 340.007 821.195C322.701 816.474 304.843 811.597 286.743 810.229C262.984 808.313 241.179 812.164 221.743 821.899C199.729 832.847 179.881 853.05 167.639 877.481C165.682 881.254 163.864 885.065 162.046 888.877C157.551 898.494 152.8 908.486 146.665 917.045C140.529 925.604 133.401 932.394 126.743 938.57C118.73 945.855 111.481 952.014 104.288 957.443C82.0619 974.443 47.2906 994.173 8.62955 992.237C0.11254 991.778 -8.40862 990.274 -17.6634 987.669C-33.2333 983.138 -47.9869 975.706 -62.4038 968.667L-65.6627 967.004C-108.046 945.983 -158.259 923.651 -208.825 916.873C-250.063 911.379 -297.432 915.489 -357.888 930.078C-359.01 930.358 -360.132 930.639 -361.393 930.88C-372.263 933.485 -383.487 936.289 -394.905 935.014C-400.033 934.167 -404.631 933.022 -409.072 931.325ZM-518.311 821.571C-517.245 822.021 -516.179 822.47 -514.975 822.958C-512.605 824.072 -510.274 825.324 -508.021 826.853C-491.735 837.846 -475.564 859.839 -458.875 883.17C-441.155 908.133 -422.912 930.709 -395.009 933.792C-383.867 934.99 -373.174 932.484 -361.811 929.719C-360.689 929.438 -359.567 929.158 -358.306 928.916C-297.713 914.367 -250.305 910.119 -208.83 915.829C-158.264 922.607 -107.912 944.977 -65.3906 966.038L-62.1317 967.7C-47.7537 974.877 -32.9613 982.171 -17.5294 986.663C-8.45168 989.367 0.0694773 990.871 8.48722 991.153C46.9713 993.189 81.4273 973.519 103.476 956.619C110.531 951.15 117.918 945.03 125.932 937.745C132.589 931.569 139.679 924.918 145.814 916.359C151.812 907.761 156.523 897.906 161.019 888.289C162.837 884.478 164.655 880.666 166.611 876.894C179.031 852.364 198.957 831.884 221.147 820.837C240.721 811.14 262.703 807.19 286.601 809.146C304.839 810.552 322.697 815.429 340.141 820.189C343.041 821.005 345.942 821.822 348.743 822.461C395.488 834.872 428.53 831.351 449.621 811.497C453.451 807.954 456.706 803.802 459.427 798.903C465.887 787.602 468.082 774.506 470.433 760.856C472.071 751.329 473.786 741.526 477 731.697C483.016 712.968 494.541 696.385 505.595 680.414C510.181 673.655 515.12 666.697 519.291 659.821C526.675 647.887 531.011 637.777 533.258 627.676C536.762 611.519 535.443 597.135 534.211 584.565C532.729 568.644 531.354 554.99 539.105 541.22C541.239 537.348 543.631 534.146 546.398 531.198C554.878 522.255 567.631 517.198 582.098 511.878C604.832 503.667 623.628 496.733 642.417 487.71C652.234 483.02 659.647 478.398 665.955 473.465C676.329 465.204 681.912 456.49 682.566 447.282C682.973 440.539 680.229 434.4 678.222 430.407C671.231 417.11 658.848 406.022 646.94 395.366L644.704 393.246C635.546 385.003 624.98 374.874 616.771 362.725C602.357 341.376 594.384 318.858 593.248 295.879C591.39 259.579 605.952 228.496 611.384 216.608C614.882 208.947 618.795 201.402 622.53 193.956C633.326 172.546 644.355 150.308 649.704 127.067C650.71 122.431 651.678 117.933 652.486 112.943C658.178 76.8296 653.44 44.9361 638.491 18.0698C625.687 -4.76417 606.338 -22.881 587.602 -40.5273C584.991 -42.902 582.517 -45.2378 580.044 -47.5736C509.135 -114.489 479.609 -214.031 451.239 -310.267C449.341 -316.764 447.343 -323.438 445.445 -329.935C440.79 -345.705 436.484 -357.949 431.85 -368.496C419.826 -388.277 406.231 -401.943 390.252 -410.316C374.371 -418.512 356.975 -421.321 340.17 -424.113C335.733 -424.765 331.058 -425.634 326.521 -426.463C307.407 -430.054 289.955 -436.904 273.017 -443.46C255.013 -450.465 237.976 -457.198 219.91 -459.748C189.676 -464.083 158.797 -461.892 131.039 -453.306C116.883 -449.091 100.66 -444.415 88.2054 -443.597C72.5783 -442.628 56.3781 -447.039 44.8926 -455.489C40.9388 -458.39 37.5551 -461.728 34.9182 -465.6C33.3516 -467.979 31.962 -470.457 30.6717 -472.759C28.7859 -476.122 26.9389 -479.623 24.2458 -482.766C8.54445 -500.602 -33.2722 -502.979 -60.8737 -504.486C-64.9746 -504.746 -68.9375 -504.967 -72.447 -505.209C-125.742 -509.177 -168.194 -502.939 -202.309 -486.601C-217.497 -479.248 -231.079 -469.654 -245.547 -459.564C-254.825 -453.082 -264.457 -446.401 -274.525 -440.291C-303.351 -422.614 -335.173 -409.656 -365.971 -397.156C-404.208 -381.532 -443.745 -365.528 -477.036 -340.462C-496.158 -326.017 -515.228 -313.346 -533.727 -301.111C-559.58 -283.939 -584.115 -267.738 -609.066 -246.884C-613.31 -243.457 -616.708 -240.388 -619.851 -237.695C-639.159 -220.47 -652.419 -204.077 -661.435 -186.341C-675.44 -158.828 -679.784 -125.913 -684.094 -94.1813C-684.379 -91.5783 -684.841 -88.876 -685.127 -86.2731C-687.387 -69.7659 -690.149 -50.4184 -695.277 -31.1404C-705.938 9.38826 -725.461 46.9756 -753.613 80.7928C-761.048 89.7316 -769.213 98.6142 -777.084 106.983C-787.369 118.101 -798.046 129.556 -807.282 141.715L-807.657 141.46L-807.282 141.715C-838.344 182.167 -850.691 230.271 -838.631 264.225C-835.443 273.023 -830.838 281.028 -825.897 289.425C-823.575 293.358 -821.154 297.468 -818.949 301.815C-817.4 304.785 -815.851 307.756 -814.439 310.687C-800.782 340.022 -793.441 372.201 -793.839 401.158C-793.962 414.838 -795.492 426.632 -798.482 438.312C-801.082 448.612 -804.844 459.33 -808.627 469.595C-813.033 482.069 -817.693 494.92 -820.402 507.723C-824.022 524.295 -825.408 547.756 -811.399 566.308C-803.156 577.274 -790.176 584.654 -773.152 588.253C-767.095 589.51 -761 590.63 -755.181 591.671C-738.316 594.778 -722.28 597.651 -706.896 604.963C-684.403 615.616 -666.561 636.439 -653.445 653.398C-637.714 673.776 -625.242 692.492 -615.195 710.823C-610.172 719.989 -605.602 729.176 -601.826 736.947C-600.972 738.678 -600.118 740.409 -599.263 742.14C-594.473 752.134 -589.446 762.345 -583.948 771.942C-572.219 792.237 -557.531 807.85 -544.677 813.555C-539.661 815.861 -535.124 816.69 -530.35 817.736C-526.975 818.984 -522.753 819.874 -518.311 821.571Z" fill="url(#paint1_linear)"/>
<path d="M-244.521 722.722C-262.188 716.11 -275.192 702.462 -287.014 688.849C-302.637 670.737 -319.362 653.359 -336.728 648.323C-342.352 646.591 -347.498 646.335 -352.427 645.842C-353.157 645.786 -353.886 645.73 -354.616 645.673C-358.264 645.392 -362.149 644.895 -366.47 643.828C-378.802 640.506 -393.547 630.393 -406.633 615.977C-412.77 609.181 -418.376 602.088 -423.883 595.171C-429.153 588.471 -434.086 582.163 -439.55 576.153C-447.271 567.57 -455.718 559.975 -464.791 553.545C-482.561 540.942 -502.52 532.939 -523.684 524.448C-539.892 517.948 -556.653 511.293 -572.339 502.406C-583.501 495.985 -590.981 488.663 -595.434 479.061C-602.848 463.558 -600.319 445.039 -597.479 425.416C-595.582 411.788 -593.568 397.745 -595.275 384.743C-595.559 382.576 -595.982 380.37 -596.444 378.302C-601.715 356.246 -619.346 338.911 -636.304 322.362C-644.931 313.822 -653.974 305.165 -661.185 295.831C-678.362 273.704 -684.363 251.592 -679.528 228.057C-674.81 204.937 -659.244 183.529 -646.062 167.412C-636.49 155.646 -626.226 144.075 -616.218 132.879C-596.123 110.21 -575.342 86.6917 -558.709 60.9621C-553.165 52.3856 -547.957 43.4162 -542.866 34.8611C-530.689 13.8404 -518.041 -7.79323 -499.679 -24.8371C-491.195 -32.7353 -481.701 -39.4549 -472.423 -45.9371C-467.194 -49.6831 -461.789 -53.5284 -456.522 -57.4126C-429.266 -78.5127 -407.375 -105.446 -386.308 -131.567C-384.68 -133.643 -382.915 -135.681 -381.287 -137.757C-378.972 -140.683 -376.697 -143.471 -374.421 -146.26C-355.73 -169.77 -339.43 -190.078 -314.558 -205.886C-291.888 -220.226 -263.952 -228.911 -236.685 -237.337C-230.642 -239.214 -224.46 -241.052 -218.554 -242.967C-212.825 -244.784 -207.688 -246.617 -203.043 -248.291C-183.4 -255.583 -165.596 -264.287 -146.906 -273.487C-141.005 -276.447 -134.788 -279.468 -128.571 -282.489C-114.091 -289.445 -99.1367 -295.969 -84.575 -302.157C-58.4432 -313.436 -33.8268 -324.099 -12.1367 -337.075C-9.08874 -338.901 -5.72564 -340.787 -2.14661 -342.91C3.7335 -346.324 9.79065 -349.836 15.7874 -353.664C18.8743 -355.628 21.4301 -357.294 24.0249 -359.098C34.3261 -366.037 41.1476 -370.677 57.1584 -369.301C60.2146 -369.037 62.8217 -367.707 64.9152 -366.671C69.5769 -364.166 72.883 -360.552 76.6638 -356.507C77.2378 -355.898 77.9111 -355.112 78.4851 -354.503C81.1179 -351.675 83.9276 -348.947 86.9747 -346.002C90.4578 -342.488 94.2171 -338.895 97.5232 -335.282C103.561 -328.663 109.698 -321.867 116.989 -317.579C125.03 -312.782 139.975 -311.855 155.987 -315.25C161.659 -316.336 167.94 -317.997 174.576 -319.857C181.88 -321.975 189.223 -324.231 196.39 -326.388C211.253 -331 225.271 -335.254 239.215 -338.187L239.53 -338.248L240.76 -336.262C255.29 -310.557 273.294 -278.656 306.465 -259.333C313.756 -255.045 321.396 -252 328.937 -249.132C331.622 -248.078 334.306 -247.025 337.129 -245.932C340.449 -243.954 343.669 -242.154 346.574 -240.293C356.354 -234.26 369.955 -224.32 374.869 -207.881C378.985 -193.902 375.869 -179.127 372.91 -164.903C371.091 -156.322 369.332 -147.425 369.011 -138.869C368.169 -112.571 381.37 -89.0292 397.359 -63.2117C399.72 -59.4168 402.081 -55.6219 404.579 -51.7881C424.513 -20.3883 445.081 11.9354 441.078 46.2879C440.485 51.0407 439.695 55.4394 438.489 59.7214C434.641 73.3964 426.846 86.2591 419.484 98.6471C412.238 110.621 404.837 123.147 400.652 136.429C397.382 146.987 396.357 156.985 397.62 167.328C400.612 191.127 415.579 212.632 430.049 233.252L430.148 233.429C439.466 246.933 447.816 260.166 446.26 275.231C444.435 292.308 431.81 304.855 418.392 315.986C411.574 321.67 404.166 327.337 396.973 332.766C389.78 338.195 382.332 344 375.515 349.684C366.988 356.676 357.619 365.07 353.801 376.518C351.737 382.794 351.347 388.945 352.891 395.641C355.82 408.54 365.147 419.364 375.008 430.935C378.375 434.864 381.741 438.793 384.892 442.959C393.411 454.003 398.145 464.727 398.894 474.777C399.519 483.151 397.48 490.926 392.816 497.961C387.898 505.372 380.688 511.393 373.063 517.297C371.138 518.842 369.074 520.348 367.187 521.755C355.574 530.71 343.429 539.963 334.974 550.404C328.619 558.156 324.313 566.038 320.047 573.782C316.113 580.873 312.063 588.38 306.531 595.32C288.448 618.256 252.007 634.386 209.054 638.695C195.715 640.009 182.156 640.516 168.873 641.101C145.342 642.081 121.081 643.005 98.0798 648.457C71.7116 654.751 53.1952 662.807 41.3307 673.182C39.7592 674.529 38.425 676.091 37.0909 677.654C34.6772 680.403 32.1859 683.429 28.4084 685.198C24.238 687.304 19.2346 688.132 14.6241 688.623C-2.98887 690.821 -22.2032 691.824 -46.0925 691.958C-51.631 692.039 -56.8154 691.921 -61.8618 691.843C-66.4549 691.742 -71.1861 691.603 -75.7403 691.365C-101.999 690.385 -126.799 689.517 -151.441 698.682C-159.609 701.749 -167.773 705.862 -175.76 709.875C-195.019 719.511 -214.986 729.544 -235.503 725.111C-238.797 724.631 -241.698 723.815 -244.521 722.722ZM-333.455 648.349C-316.854 654.512 -300.941 671.066 -286.228 688.176C-272.585 703.792 -257.484 719.521 -235.585 724.343C-215.383 728.836 -195.593 718.902 -176.472 709.227C-168.485 705.214 -160.322 701.102 -152.015 698.073C-127.158 688.671 -101.075 689.751 -75.9603 690.558C-71.4061 690.796 -66.8131 690.896 -62.0819 691.035C-57.0356 691.114 -51.9891 691.192 -46.3125 691.15C-22.6002 691.116 -3.20886 690.014 14.2272 687.915C18.8765 687.286 23.7028 686.557 27.6962 684.55C31.1975 682.703 33.6111 679.954 36.0247 677.205C37.3588 675.642 38.8701 673.98 40.4417 672.634C52.345 662.12 71.0383 653.965 97.5447 647.71C120.546 642.258 144.983 641.235 168.476 640.393C181.72 639.947 195.318 639.301 208.657 637.987C251.433 633.777 287.559 617.708 305.564 595.048C311.096 588.107 315.107 580.739 319.041 573.648C323.308 565.904 327.79 557.923 334.007 550.132C342.639 539.592 354.645 530.3 366.397 521.384C368.323 519.839 370.387 518.332 372.273 516.925C379.898 511.021 386.931 505.1 391.81 497.827C396.297 490.891 398.297 483.255 397.733 475.195C397.044 465.461 392.41 454.914 383.989 444.047C380.938 440.057 377.473 435.952 374.106 432.023C364.581 420.845 354.719 409.274 351.829 396.237C350.324 389.403 350.614 383.074 352.856 376.699C356.713 365.113 366.259 356.619 374.825 349.489C381.642 343.805 389.051 338.139 396.282 332.571C403.337 327.103 410.746 321.437 417.563 315.753C430.805 304.721 443.39 292.313 445.099 275.65C446.677 261.038 438.464 247.844 429.108 234.478L429.009 234.301C414.439 213.504 399.472 191.999 396.42 167.885C395.157 157.541 396.121 147.229 399.43 136.532C403.654 123.112 411.056 110.586 418.34 98.4742C425.703 86.0863 433.458 73.3617 437.268 59.8248C438.473 55.5428 439.402 51.1829 439.817 46.5294C443.743 12.4532 423.274 -19.6936 403.439 -50.9164C401.079 -54.7113 398.58 -58.545 396.22 -62.3399C380.131 -88.3344 366.792 -111.915 367.712 -138.489C368.072 -147.184 369.83 -156.08 371.649 -164.662C374.609 -178.885 377.685 -193.523 373.63 -207.186C368.914 -223.272 355.413 -233.034 345.77 -239.028C342.727 -240.928 339.646 -242.69 336.326 -244.667C333.641 -245.721 330.957 -246.775 328.272 -247.829C320.77 -250.835 312.952 -253.78 305.662 -258.068C272.391 -277.569 254.288 -309.646 239.62 -335.39L238.826 -336.806C225.059 -333.972 211.18 -329.679 196.493 -325.167C189.327 -323.01 181.983 -320.753 174.679 -318.635C168.005 -316.637 161.624 -315.154 156.09 -314.028C139.625 -310.612 124.857 -311.638 116.401 -316.552C108.973 -320.879 102.736 -327.851 96.6985 -334.47C93.3924 -338.084 89.7713 -341.637 86.2882 -345.152C83.2411 -348.096 80.4702 -350.963 77.7986 -353.653C77.0864 -354.301 76.5512 -355.048 75.9772 -355.657C72.1964 -359.702 68.9897 -363.139 64.5049 -365.743C62.4503 -366.917 59.9424 -368.07 57.1624 -368.256C41.4279 -369.554 34.7835 -365.014 24.6594 -358.174C22.1035 -356.508 19.5087 -354.704 16.2837 -352.779C10.1877 -349.128 4.09169 -345.477 -1.78842 -342.064C-5.32858 -340.079 -8.73061 -338.055 -11.6405 -336.19C-33.5075 -323.114 -58.1239 -312.452 -84.2557 -301.173C-98.8563 -294.847 -113.811 -288.322 -128.252 -281.504C-134.469 -278.484 -140.685 -275.463 -146.587 -272.503C-165.414 -263.342 -183.08 -254.599 -202.9 -247.208C-207.545 -245.534 -212.683 -243.7 -218.412 -241.884C-224.317 -239.968 -230.538 -237.992 -236.543 -236.253C-263.633 -227.927 -291.568 -219.242 -314.101 -204.862C-338.834 -189.016 -355.095 -168.846 -373.748 -145.474C-376.024 -142.686 -378.161 -139.858 -380.613 -136.971C-382.241 -134.895 -384.007 -132.858 -385.635 -130.781C-406.701 -104.66 -428.593 -77.7269 -456.025 -56.5276C-461.193 -52.4664 -466.56 -48.7592 -471.926 -45.052C-481.204 -38.5698 -490.698 -31.8503 -499.182 -23.952C-517.368 -7.00746 -530.016 14.6262 -542.193 35.6469C-547.185 44.379 -552.492 53.1714 -558.075 61.886C-574.747 87.7537 -595.489 111.134 -615.622 133.941C-625.493 145.176 -635.756 156.747 -645.466 168.474C-658.472 184.492 -674.176 205.861 -678.678 228.744C-683.435 252.002 -677.395 273.976 -660.555 295.71C-653.443 304.867 -644.439 313.662 -635.812 322.202C-618.754 338.929 -600.985 356.303 -595.654 378.673C-595.093 380.918 -594.631 382.986 -594.386 385.291C-592.679 398.294 -594.732 412.474 -596.629 426.102C-599.43 445.588 -602.058 463.929 -594.705 479.117C-590.174 488.442 -582.97 495.687 -571.946 502.07C-556.261 510.957 -539.5 517.612 -523.291 524.111C-502.127 532.602 -482.03 540.644 -464.121 553.287C-455.049 559.716 -446.464 567.35 -438.781 576.071C-433.317 582.081 -428.384 588.389 -423.115 595.089C-417.746 601.967 -412.14 609.061 -406.002 615.856C-393.016 630.096 -378.586 640.269 -366.353 643.413C-362.17 644.442 -358.285 644.939 -354.776 645.181C-354.046 645.237 -353.317 645.294 -352.587 645.35C-347.618 645.705 -342.374 646.137 -336.71 647.731C-335.488 647.628 -334.522 647.9 -333.455 648.349Z" fill="url(#paint2_linear)"/>
<path d="M-245.807 676.446C-259.447 671.414 -270.165 662.882 -278.611 655.288C-282.073 652.226 -285.495 649.027 -289.017 645.651C-300.334 635.012 -311.888 624.157 -323.387 617.343C-327.595 614.817 -331.644 612.783 -335.456 610.965C-336.384 610.555 -337.411 609.968 -338.339 609.558C-341.223 608.15 -344.443 606.349 -348.038 604.293C-357.819 598.261 -369.054 588.391 -381.544 575.037C-383.603 572.818 -385.524 570.637 -387.582 568.418C-396.352 558.794 -404.786 549.563 -414.1 541.873C-422.228 535.263 -430.981 529.818 -440.3 525.853C-453.984 519.915 -469.567 517.02 -484.42 514.181C-504.817 510.379 -526.042 506.343 -543.769 494.645C-553.334 488.376 -559.674 480.181 -563.264 469.63C-568.07 455.457 -566.163 439.149 -564.123 421.834C-562.406 407.261 -560.75 392.373 -563.346 378.822C-563.808 376.754 -564.269 374.686 -564.908 372.717C-571.578 350.864 -590.487 334.362 -608.822 318.469C-616.595 311.66 -624.744 304.596 -631.632 297.291C-651.702 276.437 -659.646 256.461 -656.598 234.511C-653.59 212.699 -639.28 192.576 -626.003 175.592C-615.295 161.909 -603.956 148.106 -592.912 134.817C-576.629 115.1 -559.876 94.7712 -544.643 74.0143C-540.761 68.6967 -536.802 63.1028 -533.097 57.8845C-518.062 36.7736 -502.517 14.9117 -482.501 -2.7102C-472.601 -11.4025 -461.476 -19.1535 -450.743 -26.5679C-447.578 -28.8077 -444.452 -30.9095 -441.288 -33.1493C-407.793 -56.8168 -383.598 -79.2254 -364.949 -103.642C-357.635 -113.211 -351.602 -122.992 -345.825 -132.397C-335.444 -149.153 -325.75 -165.059 -310.289 -178.149C-286.893 -198.249 -252.991 -208.534 -219.849 -216.648L-215.221 -217.73C-211.677 -218.671 -208.033 -219.434 -204.489 -220.375C-174.991 -227.725 -151.662 -234.874 -128.673 -243.46C-81.0034 -261.349 -45.5589 -280.294 -20.3535 -301.524C-13.1044 -307.682 -4.63787 -314.989 3.21583 -322.767C6.76921 -326.388 9.3383 -329.69 11.6527 -332.616C17.7321 -340.446 22.0068 -346.1 38.6356 -347.979C41.5711 -348.346 44.5495 -347.806 46.7985 -347.322C52.3023 -346.22 57.318 -343.914 63.5637 -339.622C71.9632 -333.978 78.3338 -328.011 82.5762 -321.898C84.5786 -318.949 86.3048 -316.078 88.031 -313.207C90.849 -308.389 93.6066 -303.886 97.15 -300.056C104.315 -292.673 118.067 -289.101 133.949 -290.445C139.743 -290.901 145.868 -292.01 152.011 -293.709C167.449 -297.713 182.326 -303.961 196.573 -310.088C202.004 -312.435 207.081 -314.584 212.257 -316.556L212.749 -316.716L212.909 -316.224C224.484 -280.021 239.94 -244.365 274.317 -229.324C283.735 -225.182 293.992 -223.488 303.933 -221.734C305.63 -221.405 307.365 -221.215 309.062 -220.887C312.731 -220.152 317.052 -219.085 321.511 -217.979C334.948 -214.346 352.128 -206.53 357.909 -189.995C362.953 -175.606 357.731 -160.231 352.764 -145.231C349.901 -136.645 346.959 -127.783 345.831 -119.007C342.217 -90.8062 358.301 -65.8563 373.851 -41.6535L374.286 -41.0836C392.434 -12.8699 414.866 22.3637 405.7 57.052C404.611 60.9197 403.207 64.8478 401.605 68.4218C397.131 78.4922 390.171 87.8627 383.603 96.8967C375.369 108.145 366.88 119.768 362.595 132.874C359.615 141.874 358.901 150.766 360.337 159.966C362.95 177.695 373.463 194.369 383.54 210.472C385.305 213.205 386.932 215.899 388.559 218.593C395.205 229.408 402.174 242.252 401.066 256.251C399.673 272.853 388.274 286.341 377.398 297.442C371.371 303.498 364.89 309.574 358.526 315.237C352.085 321.176 345.466 327.214 339.438 333.269C331.723 341.086 324.05 349.808 320.703 360.643C318.854 366.682 318.365 372.656 319.573 378.959C321.971 392.156 331.181 403.394 340.054 414.24C342.946 417.737 345.799 421.372 348.513 424.969C356.282 435.503 360.717 445.696 361.406 455.431C361.97 463.49 360.147 471.027 355.777 477.549C351.075 484.723 344.059 490.053 336.552 495.542C333.387 497.782 330.183 500.16 327.019 502.4C316.955 509.555 306.537 516.909 297.678 524.553C291.353 530.077 285.718 535.796 280.2 541.1C273.387 547.829 266.928 554.359 259.226 560.54C236.611 578.921 202.605 592.754 163.208 599.257C146.169 602.064 128.634 603.986 111.768 605.65C93.8181 607.455 75.3763 609.42 57.4912 612.586C45.5936 614.604 34.352 617.999 23.5033 621.058C14.8994 623.556 6.9258 625.933 -0.991587 627.58C-3.19749 628.003 -5.08422 629.41 -7.10907 630.778C-8.95691 632.047 -10.9817 633.415 -13.4424 634.213C-17.0256 635.292 -20.9065 635.839 -24.8866 636.21C-32.67 636.852 -40.7297 637.416 -48.6123 637.88C-57.1251 638.466 -65.9143 638.974 -74.5049 639.836C-78.347 640.245 -82.6034 640.538 -87.2527 641.167C-111.665 643.688 -135.641 646.779 -158.859 657.239C-164.152 659.625 -169.561 662.426 -174.932 665.088C-191.829 673.749 -209.357 682.531 -227.518 680.848C-234.144 680.027 -240.299 678.592 -245.807 676.446ZM-444.707 522.973C-443.089 523.578 -441.47 524.182 -439.89 524.925C-430.571 528.89 -421.679 534.374 -413.453 541.161C-404 548.89 -395.705 558.082 -386.797 567.745C-384.738 569.964 -382.817 572.144 -380.759 574.363C-368.268 587.718 -357.171 597.549 -347.39 603.581C-343.972 605.736 -340.713 607.399 -337.83 608.806C-336.902 609.217 -336.012 609.765 -334.946 610.214C-331.135 612.032 -327.086 614.066 -322.878 616.592C-311.379 623.406 -299.587 634.477 -288.409 645.077C-284.749 648.492 -281.464 651.652 -278.002 654.714C-255.511 674.907 -239.155 678.765 -227.522 679.803C-209.499 681.447 -192.248 672.588 -175.389 664.065C-170.157 661.364 -164.747 658.563 -159.316 656.216C-135.96 645.795 -111.984 642.704 -87.3949 640.084C-82.6463 639.631 -78.4892 639.161 -74.6471 638.752C-66.0954 638.028 -57.2674 637.382 -48.7545 636.797C-41.01 636.293 -32.9505 635.729 -25.1671 635.087C-21.1869 634.717 -17.3448 634.307 -13.8998 633.19C-11.6161 632.491 -9.72936 631.084 -7.88151 629.815C-5.81778 628.309 -3.83194 627.079 -1.44897 626.557C6.33023 624.871 14.442 622.533 23.007 620.173C33.8946 616.976 45.2355 613.758 57.1719 611.601C75.057 608.436 93.637 606.51 111.448 604.665C128.354 602.864 145.85 601.08 162.889 598.273C202.147 591.731 236.114 578.036 258.414 559.715C266.116 553.535 272.537 547.143 279.251 540.237C284.669 534.755 290.403 529.214 296.767 523.551C305.665 515.77 316.083 508.416 326.147 501.26C329.312 499.02 332.476 496.78 335.68 494.402C343.011 489.012 350.026 483.682 354.69 476.646C358.883 470.224 360.766 463.002 360.163 455.081C359.435 445.484 355.099 435.468 347.43 425.111C344.715 421.515 341.862 417.879 338.971 414.382C329.998 403.36 320.689 391.944 318.33 378.609C317.161 372.168 317.551 366.017 319.438 359.84C322.825 348.867 330.536 340.006 338.429 332.09C344.456 326.035 351.114 319.859 357.516 314.058C363.781 308.219 370.361 302.319 376.388 296.263C387.187 285.439 398.409 272.05 399.724 255.724C400.892 242.04 393.983 229.511 387.337 218.696C385.71 216.002 383.945 213.27 382.318 210.576C372.103 194.433 361.629 177.622 358.917 159.715C357.559 150.239 358.312 141.209 361.193 132.032C365.516 118.788 374.044 107.027 382.278 95.7783C388.846 86.7444 395.806 77.3738 400.241 67.4416C401.882 63.7294 403.247 59.9395 404.297 56.21C413.485 21.975 390.975 -12.9824 373.104 -41.1183L372.668 -41.6882C357.753 -64.9672 340.974 -91.1561 344.528 -119.672C345.656 -128.448 348.636 -137.448 351.5 -146.034C356.583 -161.448 361.434 -176.034 356.627 -190.207C351.044 -206.387 334.102 -213.988 320.803 -217.582C316.382 -218.826 312.161 -219.716 308.492 -220.451C306.795 -220.779 305.099 -221.107 303.363 -221.298C293.422 -223.052 283.027 -224.785 273.471 -228.965C238.818 -244.085 223.323 -279.602 211.648 -315.982C206.61 -313.971 201.71 -311.922 196.456 -309.674C182.071 -303.585 167.194 -297.337 151.718 -293.196C145.437 -291.535 139.35 -290.565 133.517 -289.97C117.32 -288.566 103.291 -292.216 95.8895 -299.815C92.208 -303.683 89.4892 -308.324 86.5331 -313.181C84.945 -316.014 83.0807 -318.923 81.2163 -321.833C77.0732 -327.77 70.7027 -333.737 62.4412 -339.341C56.2948 -343.456 51.2791 -345.763 45.9524 -346.964C43.8415 -347.409 41.0012 -347.91 38.2038 -347.505C22.0283 -345.647 17.8703 -340.407 11.7908 -332.577C9.47649 -329.651 6.86843 -326.211 3.31505 -322.59C-4.53865 -314.812 -13.0052 -307.505 -20.2543 -301.347C-45.6367 -280.018 -81.1201 -260.935 -128.79 -243.046C-151.778 -234.46 -175.246 -227.35 -204.744 -219.999C-208.288 -219.059 -211.794 -218.256 -215.476 -217.355L-220.104 -216.272C-253.069 -208.257 -286.832 -197.933 -310.013 -178.072C-325.336 -164.943 -335.129 -149.214 -345.371 -132.419C-351.188 -122.875 -357.22 -113.095 -364.535 -103.526C-383.183 -79.1087 -407.556 -56.6008 -441.089 -32.7953C-444.254 -30.5554 -447.379 -28.4538 -450.544 -26.2139C-461.277 -18.7995 -472.226 -11.1478 -482.126 -2.45548C-502.142 15.1665 -516.961 36.04 -532.544 58.04C-536.288 63.3965 -540.209 68.8522 -544.09 74.1698C-559.363 95.0648 -576.116 115.394 -592.398 135.11C-603.305 148.439 -614.781 162.203 -625.489 175.885C-638.59 192.77 -652.86 212.755 -655.791 234.291C-658.838 256.241 -651.115 275.409 -631.045 296.263C-624.157 303.569 -616.008 310.632 -608.196 317.303C-589.761 333.374 -570.714 349.915 -563.945 371.945C-563.307 373.913 -562.845 375.981 -562.423 378.187C-559.826 391.738 -561.56 406.903 -563.276 421.476C-565.278 438.653 -567.185 454.961 -562.439 468.819C-558.948 479.193 -552.708 487.21 -543.38 493.264C-525.752 504.785 -504.665 508.782 -484.407 512.545C-470.952 515.587 -457.242 518.253 -444.707 522.973Z" fill="url(#paint3_linear)"/>
<path d="M-213.892 602.246C-226.29 597.564 -238.82 589.118 -251.859 576.653C-264.423 564.62 -275.912 550.355 -285.955 537.839C-291.5 531.06 -296.075 525.599 -300.568 520.905C-327.112 492.863 -353.105 479.286 -385.066 476.85C-388.438 476.647 -392.124 476.503 -396.717 476.403C-402.217 476.346 -407.756 476.427 -413.117 476.409C-439.45 476.75 -464.461 477.164 -482.304 461.111C-498.485 446.569 -497.843 424.687 -497.264 401.445C-497.06 393.304 -496.817 385.024 -497.281 377.141C-497.845 369.082 -499.113 362.464 -501.305 356.48C-504.175 348.666 -509.034 341.038 -516.298 333.478C-525.72 323.521 -537.818 314.601 -549.58 306.073C-575.041 287.428 -601.353 268.097 -600.825 237.089C-600.429 217.672 -588.714 199.354 -578.213 183.228C-551.001 141.097 -525.232 107.801 -499.257 81.7195C-471.594 53.8766 -441.429 30.9122 -415.524 11.966C-410.119 8.12075 -405.421 4.6725 -401.117 1.56088C-397.421 -0.976769 -393.687 -3.65257 -389.991 -6.19022C-367.64 -21.5152 -344.542 -37.3753 -328.821 -59.3365C-320.764 -70.4854 -315.646 -82.3126 -310.606 -93.8634C-304.375 -108.06 -298.337 -121.567 -287.837 -132.922C-274.646 -146.95 -255.348 -156.724 -227.012 -163.656C-219.824 -165.36 -213.935 -166.684 -208.539 -167.848C-193.412 -170.747 -177.889 -172.937 -162.896 -174.829C-149.578 -176.597 -135.945 -178.424 -122.61 -180.783C-113.825 -182.336 -105.515 -184.32 -97.5416 -186.697C-85.0006 -190.472 -72.8607 -196 -60.7291 -203.617C-41.7545 -215.42 -25.0885 -232.792 -13.8914 -252.449C-12.4232 -255.017 -11.2313 -257.663 -10.0609 -260.762C-9.41736 -262.519 -8.77381 -264.276 -8.30729 -265.934C-5.42633 -275.111 -3.28402 -281.663 12.4994 -287.954C26.8064 -293.766 43.6675 -291.704 52.6104 -283.224C54.134 -281.752 55.4805 -280.181 56.4731 -278.411C58.2597 -275.224 59.5153 -271.74 60.6327 -268.295C61.9098 -264.358 63.1869 -260.421 65.4871 -256.941C72.0901 -247.033 90.0595 -238.845 114.243 -244.263C133.523 -248.675 151.12 -259.823 166.732 -269.74L167.263 -270.038L167.384 -269.407C176.219 -238.299 187.788 -213.725 201.771 -196.671C208.625 -188.183 216.178 -182.181 224.492 -178.351C234.661 -173.7 245.35 -172.481 256.491 -171.283C260.967 -170.768 265.759 -170.314 270.473 -169.584C275.877 -168.659 281.619 -167.341 287.303 -165.294C301.574 -160.383 310.724 -154.23 315.368 -146.364C317.987 -141.9 319.169 -137.095 319.289 -131.695C319.279 -124.244 316.904 -116.863 314.273 -109.106C312.364 -103.382 310.554 -97.4814 309.396 -91.2481C308.99 -89.2754 308.861 -87.2249 308.592 -85.2133C306.689 -63.0899 318.289 -40.744 329.491 -19.106C331.895 -14.4046 334.238 -10.0183 336.404 -5.53272C348.189 18.8033 351.587 40.6298 346.3 59.4156C344.589 65.4934 341.873 71.4372 338.267 76.8325C332.762 85.2709 324.848 92.7333 317.327 99.859C312.241 104.689 306.939 109.756 302.465 115.056C296.088 122.354 292.094 129.131 290.012 135.999C288.669 140.242 288.016 144.68 287.994 148.996C288.094 164.528 296.566 178.391 305.572 193.001C315.075 208.496 324.915 224.383 323.685 242.522C322.408 263.48 306.692 281.716 291.446 299.339C275.336 317.911 260.229 335.573 261.451 355.595C261.731 361.487 263.547 367.216 267.081 373.726C269.425 378.113 272.26 382.339 274.996 386.389C276.8 388.984 278.565 391.717 280.192 394.411C284.913 402 294.61 421.575 282.748 437.765C278.435 443.557 272.145 447.899 265.479 451.986C250.791 461.269 234.96 470.379 218.515 479.018C168.397 505.609 118.469 525.695 69.7167 538.956C35.3575 548.218 0.688156 553.815 -36.3592 556.208C-38.6256 556.316 -40.8919 556.423 -43.1583 556.531C-57.5637 557.396 -72.2453 558.183 -86.8931 562.558C-101.541 566.933 -115.326 575.128 -128.718 582.986C-147.105 593.762 -166.024 604.836 -186.952 606.101C-195.72 607.062 -204.832 605.541 -213.892 602.246ZM-353.17 482.696C-334.437 489.758 -317.418 501.852 -300.059 520.154C-295.605 524.986 -290.853 530.348 -285.346 537.265C-275.303 549.781 -263.814 564.046 -251.349 575.902C-228.893 597.279 -208.415 606.619 -186.619 605.449C-166.006 604.244 -147.127 593.309 -128.878 582.494C-115.486 574.636 -101.562 566.479 -86.8757 561.967C-72.228 557.592 -57.2312 556.744 -42.8258 555.879C-40.5595 555.772 -38.293 555.664 -36.1648 555.518C0.882532 553.124 35.4138 547.488 69.7341 538.364C118.348 525.064 168.414 505.018 218.356 478.526C234.839 469.748 250.632 460.776 265.319 451.494C271.847 447.368 278.098 443.164 282.373 437.51C293.802 421.795 284.404 402.751 279.782 395.339C278.155 392.645 276.351 390.05 274.586 387.317C271.85 383.267 269.014 379.041 266.533 374.615C263.037 367.967 261.122 362.061 260.704 356.13C259.46 335.655 274.745 317.894 290.893 299.183C305.962 281.66 321.64 263.562 322.839 242.881C323.952 225.156 314.251 209.307 304.847 193.989C296.138 179.911 287.27 165.34 287.109 149.493C287.032 144.999 287.822 140.6 289.205 136.219C291.502 129.114 295.497 122.337 301.913 114.9C306.524 109.639 311.826 104.572 316.774 99.7035C324.295 92.5778 332.071 85.0766 337.538 76.7763C341.143 71.3809 343.782 65.7134 345.492 59.6356C350.702 41.126 347.403 19.4766 335.679 -4.5443C333.513 -9.02986 331.169 -13.4162 328.766 -18.1176C317.563 -39.7555 305.864 -62.2785 307.846 -84.6781C308.014 -86.8667 308.282 -88.8783 308.688 -90.851C309.708 -97.1232 311.695 -103.123 313.604 -108.847C316.096 -116.643 318.433 -123.886 318.542 -131.16C318.522 -136.383 317.301 -141.05 314.781 -145.337C310.236 -153.026 301.224 -159.14 287.191 -163.835C281.467 -165.744 275.903 -167.161 270.499 -168.086C265.785 -168.816 261.17 -169.37 256.655 -169.746C245.375 -170.983 234.648 -172.064 224.379 -176.892C215.789 -180.8 208.275 -186.94 201.283 -195.467C187.3 -212.521 175.692 -236.956 166.956 -267.888C151.383 -258.109 133.825 -247.1 114.683 -242.648C90.1456 -237.032 71.6624 -245.514 64.9602 -255.599C62.5607 -259.256 61.1844 -263.37 59.9073 -267.307C58.751 -270.614 57.6725 -274.197 55.847 -277.245C54.8545 -279.015 53.646 -280.548 52.2217 -281.843C43.5161 -290.107 27.0694 -292.053 13.1165 -286.439C-2.21373 -280.169 -4.31717 -273.755 -7.0815 -264.992C-7.54802 -263.335 -8.19156 -261.578 -8.83508 -259.821C-10.0055 -256.722 -11.2363 -253.938 -12.7045 -251.369C-24.0785 -231.613 -40.9216 -214.142 -59.935 -202.201C-72.2436 -194.484 -84.3835 -188.957 -97.1016 -185.083C-105.075 -182.705 -113.385 -180.721 -122.17 -179.169C-135.544 -176.672 -149.315 -174.883 -162.456 -173.214C-177.488 -171.184 -192.972 -169.132 -208.099 -166.234C-213.595 -165.246 -219.345 -163.883 -226.533 -162.179C-254.692 -155.346 -273.952 -145.711 -286.965 -131.782C-297.427 -120.565 -303.425 -107.197 -309.657 -92.9999C-314.697 -81.449 -319.991 -69.5226 -328.048 -58.3737C-343.947 -36.3133 -367.045 -20.4532 -389.435 -4.99001C-393.13 -2.45239 -396.826 0.085224 -400.56 2.76097C-404.865 5.87262 -409.661 9.14393 -414.968 13.1663C-440.833 31.9743 -470.861 54.9775 -498.523 82.8204C-524.498 108.902 -550.228 142.059 -577.44 184.191L-577.816 183.936L-577.44 184.191C-587.765 200.218 -599.441 218.398 -599.897 237.5C-600.408 267.916 -574.333 287.031 -549.148 305.598C-537.425 314.264 -525.15 323.085 -515.767 333.18C-508.404 340.917 -503.544 348.546 -500.576 356.537C-498.384 362.52 -497.017 369.315 -496.453 377.375C-495.85 385.296 -496.132 393.714 -496.474 401.817C-497.113 424.743 -497.855 446.448 -481.911 460.774C-464.444 476.572 -439.609 476.257 -413.415 475.878C-408.014 475.758 -402.476 475.677 -396.976 475.734C-392.521 475.795 -388.697 475.977 -385.325 476.181C-373.812 476.589 -363.159 478.991 -353.17 482.696Z" fill="url(#paint4_linear)"/>
<path d="M-24.0062 445.048C-43.5688 437.753 -56.0237 418.446 -68.0815 399.847C-69.6481 397.468 -71.0765 395.129 -72.6819 392.888C-86.8804 371.301 -103.047 350.353 -124.699 343.067C-132.456 340.436 -140.58 339.641 -149.762 340.485C-159.536 341.312 -169.262 344.09 -178.772 346.631C-194.78 351.07 -211.418 355.63 -228.326 351.617C-230.437 351.172 -232.608 350.412 -234.641 349.69C-262.574 339.295 -280.301 307.472 -288.733 288.701L-289.708 286.34C-296.073 271.877 -302.636 257.061 -315.382 248.852C-320.678 245.424 -326.54 243.476 -332.441 241.666C-335.303 240.711 -338.165 239.757 -341.126 238.625C-345.568 236.928 -349.992 234.639 -353.984 231.876C-379.222 215.083 -393.958 182.165 -389.938 151.991C-385.706 120.535 -364.212 92.894 -333.495 79.6253C-324.818 75.8065 -315.446 73.2267 -306.211 70.608C-289.535 65.91 -272.189 60.9531 -259.344 49.2137C-248.719 39.5329 -242.03 26.3593 -235.595 13.5611C-229.865 2.20452 -223.979 -9.70453 -215.106 -18.9841C-197.283 -37.8195 -180.853 -35.2826 -163.457 -32.4735C-153.891 -30.9738 -144.049 -29.3965 -133.512 -31.3501C-127.839 -32.4369 -121.946 -37.4865 -115.56 -42.6958C-104.067 -52.2814 -91.0024 -63.2135 -77.6699 -51.2621C-75.7708 -49.5351 -73.8114 -47.4929 -71.9685 -45.0363C-69.8883 -42.3638 -68.4772 -39.4324 -66.928 -36.4622C-64.9214 -32.4687 -62.7767 -28.4364 -59.4922 -25.2759C-49.1249 -15.5008 -31.3042 -20.0259 -21.0369 -30.5528C-16.0112 -35.6975 -12.0344 -41.8828 -8.09633 -47.93C-4.41306 -53.6016 -0.652065 -59.5495 4.01963 -64.4957C21.45 -82.9945 48.9919 -86.5725 77.9582 -88.8552L77.9798 -88.4019L77.9582 -88.8552C110.136 -91.4266 129.66 -83.9938 135.977 -66.7124C140.46 -54.5684 136.352 -41.5625 132.538 -29.0703C128.003 -14.5451 123.8 -0.67157 132.44 11.0027C142.189 24.0326 160.649 21.4761 168.29 19.7507C170.85 19.1295 173.587 18.4091 176.147 17.7879C185.834 15.1478 195.975 12.4861 206.097 15.186C214.977 17.5359 222.413 23.9521 227.596 33.6097C234.565 46.4535 236.19 63.4577 231.827 76.8391C224.251 100.049 204.504 115.66 186.142 127.933C183.763 129.5 181.561 130.967 179.182 132.534C162.53 143.5 145.347 154.764 133.767 172.076C126.184 183.657 122.823 196.128 124.207 207.101C126.061 222.232 136.242 234.787 145.987 246.773C157.812 261.43 169.142 275.203 166.138 293.29C163.657 308.99 149.418 321.977 128.312 328.111C122.937 329.729 117.226 330.954 111.692 332.08C100.131 334.491 88.0779 337.061 77.8329 343.271C62.2389 352.597 51.7632 370.221 51.2031 388.101C51.0426 392.379 51.6116 396.713 52.0814 400.871C53.0383 408.593 53.8787 416.731 50.7735 424.056C42.8619 442.103 14.2446 447.913 -9.7266 447.278L-10.4561 447.222C-14.911 447.161 -19.0509 447.039 -23.0782 445.458C-23.8681 445.087 -23.8681 445.087 -24.0062 445.048ZM-122.77 342.566C-101.727 350.427 -85.758 371.021 -71.758 392.253C-70.1915 394.632 -68.7242 396.834 -67.1576 399.213C-55.0997 417.812 -42.7441 436.942 -23.2808 444.06C-19.3528 445.463 -15.213 445.585 -10.9351 445.745L-10.2055 445.802C13.4894 446.358 41.7138 440.886 49.3706 423.214C52.5362 416.204 51.5404 408.619 50.6612 400.62C50.2303 396.325 49.6613 391.99 49.8218 387.712C50.3603 369.379 61.052 351.518 77 341.994C87.3831 335.822 99.5742 333.291 111.174 330.741C116.708 329.616 122.282 328.352 127.617 326.872C148.408 320.798 162.255 308.148 164.796 292.763C167.644 275.229 156.591 261.534 144.726 247.014C134.882 234.852 124.701 222.297 122.787 206.851C121.343 195.562 124.781 182.815 132.541 171.135C144.199 153.546 161.382 142.282 178.211 131.217C180.59 129.651 182.93 128.222 185.171 126.617C217.629 105.043 226.317 89.0029 230.563 76.036C234.886 62.7928 233.184 46.0647 226.413 33.575C222.879 27.0646 216.302 18.6542 205.527 15.6218C195.543 12.9609 185.717 15.5622 176.03 18.2023C173.431 18.9616 170.733 19.5439 168.173 20.1651C160.394 21.8515 141.443 24.5678 131.395 11.0068C122.419 -1.06032 126.798 -15.0331 131.411 -29.8347C135.225 -42.3269 139.255 -55.0564 134.833 -66.8853C128.676 -83.6745 109.527 -90.8525 77.8027 -88.3027C48.9746 -85.9811 21.7478 -82.4635 4.53331 -64.2021C-0.138376 -59.2559 -3.86052 -53.4461 -7.54379 -47.7745C-11.3437 -41.6884 -15.3206 -35.5031 -20.5233 -30.2591C-31.0065 -19.4949 -49.6345 -14.7498 -60.3383 -24.9178C-63.761 -28.1172 -65.8669 -32.2876 -68.0116 -36.3199C-69.4615 -39.1131 -71.0107 -42.0834 -72.9528 -44.717C-74.6964 -46.9966 -76.5178 -48.9999 -78.4169 -50.727C-91.1753 -62.0696 -103.277 -51.9099 -114.986 -42.087C-121.411 -36.7396 -127.481 -31.5907 -133.469 -30.4435C-144.183 -28.3907 -154.163 -30.0069 -163.729 -31.5066C-180.849 -34.2379 -197.002 -36.6971 -214.571 -18.2372C-223.267 -9.05689 -229.114 2.71403 -234.844 14.0705C-241.317 27.0069 -247.868 40.2195 -258.809 49.9606C-271.969 61.7604 -289.315 66.7174 -306.168 71.5146C-315.264 74.1721 -324.637 76.7519 -333.314 80.5707C-363.539 93.6797 -384.955 121.045 -389.109 152.224C-393.051 182.122 -378.475 214.548 -353.652 231.224C-349.62 233.849 -345.334 236.099 -340.931 237.935C-338.108 239.027 -335.247 239.982 -332.385 240.936C-326.523 242.884 -320.484 244.733 -315.05 248.2C-302.204 256.586 -295.542 271.58 -289.078 286.219L-288.103 288.58C-279.153 308.69 -259.561 343.422 -228.447 350.987C-211.815 354.922 -195.354 350.462 -179.346 346.022C-169.836 343.482 -159.972 340.742 -150.159 339.777C-140.839 338.971 -132.439 339.845 -124.682 342.475C-123.875 342.255 -123.322 342.411 -122.77 342.566Z" fill="url(#paint5_linear)"/>
<path d="M-104.537 302.678C-108.327 301.313 -112.337 299.141 -116.843 296.084C-125.618 290.185 -134.129 281.231 -141.453 273.356C-144.285 270.174 -146.68 267.561 -148.661 265.066C-155.377 256.617 -160.197 248.85 -165.6 238.385C-167.904 233.86 -170.053 228.783 -172.439 223.491C-175.503 216.367 -178.804 209.028 -182.636 201.987C-187.698 192.959 -194.729 184.571 -203.568 177.312C-206.594 174.821 -209.658 172.468 -212.762 170.253C-214.6 168.841 -216.478 167.567 -218.317 166.155C-221.006 164.057 -223.557 161.997 -225.831 160.015C-240.014 147.377 -253.008 126.279 -247.453 105.481C-244.209 93.4249 -235.91 83.5366 -223.792 77.5557C-217.89 74.5954 -211.078 72.6367 -204.542 70.6004C-200.959 69.5218 -197.375 68.4433 -193.892 67.1877C-190.231 65.8329 -186.708 64.4392 -183.323 63.0066C-177.439 60.6378 -172.047 58.4285 -165.982 57.0051C-155.565 54.4212 -145.135 54.9712 -135.12 55.4047C-130.113 55.6215 -124.829 55.9159 -119.567 55.7572C-115.526 55.7018 -111.33 55.0939 -107.311 54.5852C-100.042 53.6498 -92.5948 52.6151 -85.1183 54.123L-84.7039 54.2397C-83.4218 54.4514 -82.1787 54.8013 -80.7585 55.0519C-79.1009 55.5184 -77.4045 55.8468 -75.885 56.2745C-73.6749 56.8965 -71.2878 57.4192 -68.9007 57.942C-61.0487 59.7047 -51.8452 59.3135 -45.7757 58.9347L-42.7409 58.7453C-36.3563 58.3062 -30.2868 57.9274 -23.9195 58.0796C-12.0914 58.4271 1.66131 61.9996 16.6481 68.6027C22.8682 71.3968 31.4968 75.1669 36.926 82.3597C39.9384 86.4871 41.591 90.6791 43.304 95.1861C44.9177 99.5162 46.6696 103.885 49.6431 108.151C52.5173 112.239 56.1559 115.201 59.4578 117.77L60.9209 118.928C63.6099 121.026 66.3982 123.301 69.1303 126.306C74.4561 132.278 78.279 142 79.3609 151.398C80.3434 160.619 79.2326 168.803 78.0961 175.49C77.3441 179.75 76.316 183.933 75.3871 188.293C74.5533 191.785 73.7195 195.277 72.9461 199.084C71.8443 204.588 71.2306 208.888 71.1479 212.889C70.927 216.852 71.1983 220.655 71.3314 224.42C71.6192 232.401 71.9847 240.107 68.586 247.946C65.6364 254.718 59.8638 260.398 51.7388 264.372C45.8761 267.195 39.2408 269.054 32.7825 270.814C31.6601 271.094 30.5377 271.375 29.5534 271.694C23.7254 273.333 18.1347 275.189 13.0362 276.884C11.2447 277.424 9.59122 278.002 8.11479 278.481C7.13049 278.8 6.14618 279.119 5.30004 279.477C1.99314 280.634 -0.998546 281.73 -4.6247 281.902C-10.8712 282.38 -17.4544 282.465 -24.4131 282.295C-42.1336 282.227 -60.5838 282.103 -74.2828 292.111C-75.9536 293.281 -77.4863 294.489 -78.8808 295.737C-81.1993 297.618 -83.5178 299.5 -86.0736 301.166C-91.3409 305.05 -97.2334 305.33 -104.537 302.678ZM7.94579 66.1535C-3.66136 61.8432 -14.3148 59.4411 -23.7772 59.1631C-30.1056 58.8728 -36.037 59.2905 -42.5598 59.6908L-45.5946 59.8801C-51.8022 60.22 -61.0058 60.6112 -68.9959 58.8097C-71.5211 58.248 -73.7312 57.626 -76.1183 57.1032C-77.7759 56.6367 -79.2953 56.2091 -80.9918 55.8807C-82.2349 55.5308 -83.517 55.3191 -84.7991 55.1073L-85.2134 54.9907C-92.5518 53.5217 -99.9984 54.5564 -107.13 55.5307C-111.149 56.0393 -115.345 56.6473 -119.386 56.7027C-124.648 56.8614 -129.932 56.5669 -134.939 56.3502C-145.368 55.8001 -155.383 55.3666 -165.623 57.8512C-171.551 59.3135 -177.081 61.4839 -182.827 63.8917C-186.212 65.3242 -189.734 66.7179 -193.533 68.0339C-197.017 69.2894 -200.739 70.3291 -204.322 71.4077C-210.819 73.3059 -217.493 75.3034 -223.395 78.2637C-235.198 84.1842 -243.419 93.7963 -246.546 105.438C-252.024 125.959 -239.189 146.566 -225.244 158.988C-222.969 160.97 -220.557 162.99 -217.729 165.128C-215.891 166.54 -214.052 167.952 -212.174 169.225C-209.071 171.441 -206.006 173.794 -202.981 176.285C-194.042 183.72 -187.012 192.109 -181.85 201.313C-177.88 208.394 -174.717 215.694 -171.554 222.994C-169.306 228.248 -167.118 233.187 -164.715 237.889C-159.45 248.315 -154.453 255.982 -147.875 264.393C-145.894 266.888 -143.637 269.461 -140.668 272.682C-133.482 280.519 -124.932 289.335 -116.295 295.194C-103.626 303.679 -94.039 305.632 -87.0794 301.032C-84.5236 299.366 -82.2051 297.484 -79.8867 295.603C-78.354 294.394 -76.7824 293.048 -75.1116 291.878C-61.0196 281.533 -42.5695 281.657 -24.5727 281.803C-17.7133 281.796 -11.1691 281.849 -4.92254 281.371C-1.39564 281.021 1.55728 280.064 4.86418 278.907C5.84848 278.588 6.69466 278.23 7.67895 277.911C9.29351 277.471 10.947 276.893 12.6004 276.314C17.6989 274.619 23.2894 272.764 29.1174 271.124C30.2399 270.844 31.3623 270.563 32.3466 270.244C38.8049 268.484 45.3021 266.586 51.1648 263.764C59.1128 259.889 64.7084 254.308 67.5802 247.812C70.9401 240.111 70.6738 232.582 70.209 224.7C70.0758 220.936 69.9427 217.171 70.0254 213.17C70.2463 209.207 70.7608 204.73 71.8626 199.227C72.636 195.419 73.4698 191.927 74.3036 188.435C75.3706 184.114 76.2606 179.892 77.0125 175.632C78.149 168.945 79.3981 160.8 78.3766 151.717C77.2559 142.457 73.5322 132.912 68.3055 127.118C65.7117 124.152 63.0227 122.053 60.2344 119.778L58.7712 118.621C55.4693 116.051 51.6926 113.051 48.8572 108.824C45.7845 104.381 44.0715 99.8744 42.4578 95.5443C40.7449 91.0372 39.0923 86.8453 36.1791 82.8949C30.9873 75.918 22.4967 72.1867 16.2767 69.3926C13.5529 68.477 10.7688 67.2461 7.94579 66.1535Z" fill="url(#paint6_linear)"/>
<path d="M-92.7595 225.344C-100.063 222.692 -105.92 217.019 -108.906 209.619C-110.856 204.896 -111.921 199.677 -112.926 194.773C-114.333 188.116 -115.7 181.321 -119.251 175.402C-123.002 169.129 -127.969 164.004 -132.7 159.095C-135.035 156.798 -137.093 154.579 -139.113 152.222C-143.727 146.898 -150.964 136.066 -146.753 124.282C-142.737 113.188 -130.126 107.048 -109.176 106.236C-97.3914 105.677 -83.2797 105.325 -68.9868 105.919C-53.2348 106.626 -33.3174 108.952 -18.0552 120.403C4.02672 136.755 19.7974 177.12 6.33723 202.699C0.917781 212.95 -10.8507 217.688 -29.8533 217.408C-31.0361 217.373 -32.357 217.3 -33.5787 217.403C-46.6284 217.159 -62.9114 216.75 -73.0919 224.32C-75.5485 226.163 -77.871 227 -80.4525 227.168C-84.8471 227.422 -89.0084 226.847 -92.7595 225.344ZM-33.7542 113.152C-45.6376 108.764 -58.3764 107.415 -69.1208 106.925C-83.3748 106.193 -97.3873 106.721 -109.133 107.142C-129.669 108.071 -141.886 113.875 -145.786 124.554C-149.842 135.786 -142.941 146.225 -138.466 151.51C-136.446 153.867 -134.387 156.086 -132.052 158.383C-127.184 163.331 -122.216 168.456 -118.366 174.906C-114.815 180.825 -113.348 187.797 -111.981 194.592C-110.976 199.496 -109.872 204.577 -107.922 209.3C-103.542 220.223 -92.4575 226.92 -80.4566 226.123C-78.0133 225.917 -75.8677 225.179 -73.5881 223.435C-63.0926 215.805 -46.6325 216.114 -33.4447 216.397C-32.1237 216.471 -30.941 216.506 -29.7193 216.402C-11.17 216.704 0.421545 212.065 5.58624 202.189C16.287 181.647 7.94563 140.839 -18.5647 121.154C-23.4076 117.704 -28.4837 115.083 -33.7542 113.152Z" fill="url(#paint7_linear)"/>
<defs>
<linearGradient id="paint0_linear" x1="1841.75" y1="803.171" x2="-7158.75" y2="-1729.97" gradientUnits="userSpaceOnUse">
<stop stop-color="#F4C15A"/>
<stop offset="0.1066" stop-color="#BE915A"/>
<stop offset="0.1381" stop-color="#C99B5B"/>
<stop offset="0.2561" stop-color="#F0BE5C"/>
<stop offset="0.3178" stop-color="#FFCB5D"/>
<stop offset="0.7563" stop-color="#F3C05A"/>
<stop offset="0.9026" stop-color="#BD914B"/>
<stop offset="1" stop-color="#976F40"/>
</linearGradient>
<linearGradient id="paint1_linear" x1="1568.77" y1="693.58" x2="-6172.47" y2="-1485.15" gradientUnits="userSpaceOnUse">
<stop stop-color="#F4C15A"/>
<stop offset="0.1066" stop-color="#BE915A"/>
<stop offset="0.1381" stop-color="#C99B5B"/>
<stop offset="0.2561" stop-color="#F0BE5C"/>
<stop offset="0.3178" stop-color="#FFCB5D"/>
<stop offset="0.7563" stop-color="#F3C05A"/>
<stop offset="0.9026" stop-color="#BD914B"/>
<stop offset="1" stop-color="#976F40"/>
</linearGradient>
<linearGradient id="paint2_linear" x1="1085.46" y1="491.192" x2="-4504.88" y2="-1082.18" gradientUnits="userSpaceOnUse">
<stop stop-color="#F4C15A"/>
<stop offset="0.1066" stop-color="#BE915A"/>
<stop offset="0.1381" stop-color="#C99B5B"/>
<stop offset="0.2561" stop-color="#F0BE5C"/>
<stop offset="0.3178" stop-color="#FFCB5D"/>
<stop offset="0.7563" stop-color="#F3C05A"/>
<stop offset="0.9026" stop-color="#BD914B"/>
<stop offset="1" stop-color="#976F40"/>
</linearGradient>
<linearGradient id="paint3_linear" x1="1010.39" y1="462.149" x2="-4253.06" y2="-1019.22" gradientUnits="userSpaceOnUse">
<stop stop-color="#F4C15A"/>
<stop offset="0.1066" stop-color="#BE915A"/>
<stop offset="0.1381" stop-color="#C99B5B"/>
<stop offset="0.2561" stop-color="#F0BE5C"/>
<stop offset="0.3178" stop-color="#FFCB5D"/>
<stop offset="0.7563" stop-color="#F3C05A"/>
<stop offset="0.9026" stop-color="#BD914B"/>
<stop offset="1" stop-color="#976F40"/>
</linearGradient>
<linearGradient id="paint4_linear" x1="858.095" y1="408.273" x2="-3728.17" y2="-882.503" gradientUnits="userSpaceOnUse">
<stop stop-color="#F4C15A"/>
<stop offset="0.1066" stop-color="#BE915A"/>
<stop offset="0.1381" stop-color="#C99B5B"/>
<stop offset="0.2561" stop-color="#F0BE5C"/>
<stop offset="0.3178" stop-color="#FFCB5D"/>
<stop offset="0.7563" stop-color="#F3C05A"/>
<stop offset="0.9026" stop-color="#BD914B"/>
<stop offset="1" stop-color="#976F40"/>
</linearGradient>
<linearGradient id="paint5_linear" x1="526.013" y1="311.438" x2="-2397.06" y2="-511.244" gradientUnits="userSpaceOnUse">
<stop stop-color="#F4C15A"/>
<stop offset="0.1066" stop-color="#BE915A"/>
<stop offset="0.1381" stop-color="#C99B5B"/>
<stop offset="0.2561" stop-color="#F0BE5C"/>
<stop offset="0.3178" stop-color="#FFCB5D"/>
<stop offset="0.7563" stop-color="#F3C05A"/>
<stop offset="0.9026" stop-color="#BD914B"/>
<stop offset="1" stop-color="#976F40"/>
</linearGradient>
<linearGradient id="paint6_linear" x1="275.239" y1="273.073" x2="-1456.83" y2="-214.408" gradientUnits="userSpaceOnUse">
<stop stop-color="#F4C15A"/>
<stop offset="0.1066" stop-color="#BE915A"/>
<stop offset="0.1381" stop-color="#C99B5B"/>
<stop offset="0.2561" stop-color="#F0BE5C"/>
<stop offset="0.3178" stop-color="#FFCB5D"/>
<stop offset="0.7563" stop-color="#F3C05A"/>
<stop offset="0.9026" stop-color="#BD914B"/>
<stop offset="1" stop-color="#976F40"/>
</linearGradient>
<linearGradient id="paint7_linear" x1="108.885" y1="216.267" x2="-746.969" y2="-24.6082" gradientUnits="userSpaceOnUse">
<stop stop-color="#F4C15A"/>
<stop offset="0.1066" stop-color="#BE915A"/>
<stop offset="0.1381" stop-color="#C99B5B"/>
<stop offset="0.2561" stop-color="#F0BE5C"/>
<stop offset="0.3178" stop-color="#FFCB5D"/>
<stop offset="0.7563" stop-color="#F3C05A"/>
<stop offset="0.9026" stop-color="#BD914B"/>
<stop offset="1" stop-color="#976F40"/>
</linearGradient>
</defs>
</svg>
