<svg width="1752" height="2073" viewBox="0 0 1752 2073" fill="none" xmlns="http://www.w3.org/2000/svg">
<path d="M1120.18 2072.54C1104.06 2071.14 1088.26 2066.18 1074.94 2061.84C1058.36 2056.58 1041.32 2050.53 1024.74 2044.8C972.217 2026.68 917.99 2007.93 868.877 2003.13C846.102 2000.96 824.876 2002.04 805.509 2006.38C794.199 2008.86 783.044 2012.73 772.354 2016.45C749.733 2024.2 726.339 2032.1 700 2028.69C676.14 2025.44 651.816 2013.04 623.463 1989.65C613.238 1981.12 602.702 1971.36 590.153 1958.97C559.011 1927.98 532.208 1898.55 508.348 1869.26C490.841 1847.73 474.108 1825.26 460.009 1806.36C451.798 1795.36 443.431 1784.05 434.29 1774.29C426.544 1766.08 419.417 1760.04 411.825 1754.92C396.487 1744.85 378.979 1739.27 360.542 1733.23C351.246 1730.29 341.486 1727.19 332.19 1723.47C273.935 1700.23 225.751 1647.71 196.624 1575.67C175.708 1524.38 163.003 1464.27 156.496 1386.49C155.876 1379.06 155.256 1371.15 154.482 1361.39L153.552 1348.84C148.904 1286.56 144.256 1222.26 128.298 1163.85C127.214 1159.83 125.974 1155.64 124.58 1151C115.749 1122.18 104.129 1095.22 94.058 1072.6C93.4383 1071.36 92.9735 1070.12 92.3538 1068.88C91.4242 1066.71 90.4946 1064.7 89.565 1062.53C80.424 1041.46 75.4661 1029.99 77.1704 1021.63C78.8746 1013.26 87.0861 1008.15 104.284 999.316C94.5228 974.372 74.0717 957.639 54.3953 941.526C34.254 924.948 13.3381 907.906 4.50691 882.032C-5.40878 852.595 0.943461 818.045 24.4932 773.579C30.0708 763.044 36.578 752.044 43.8598 741.043C47.2683 735.93 50.6769 730.818 53.9305 725.86C77.4802 690.845 101.805 654.591 106.453 610.9C108.777 588.435 105.678 565.04 102.579 542.265L102.269 540.405C98.706 513.757 96.382 491.757 100.1 469.756C104.593 443.418 116.213 420.952 135.735 400.966C151.538 384.853 172.454 370.289 203.441 353.556C216.61 346.43 230.399 339.922 243.878 333.415C292.682 310.02 338.852 287.865 361.782 244.174C366.43 235.188 369.838 225.582 373.247 216.441C376.5 207.61 379.754 198.469 384.247 189.638C397.571 162.834 420.966 141.918 453.657 127.2C480.15 115.27 511.757 107.833 548.011 104.735C560.406 103.65 572.8 102.875 583.336 102.256L589.223 101.791C642.055 98.2273 696.591 94.509 736.874 64.7619C742.761 60.4238 748.339 55.4659 753.762 50.8179C763.987 41.8318 774.523 32.5359 787.692 26.9583C803.96 20.1413 822.862 19.5215 839.594 19.0567C847.496 18.9018 855.243 18.5919 863.144 18.437C887.469 17.8173 912.723 17.0426 937.202 16.113C989.879 14.0989 1040.08 9.60583 1093.06 4.64798C1103.44 3.71839 1113.83 2.78879 1124.36 1.85919C1155.97 -0.929596 1188.5 -9.23471e-08 1219.95 0.929596C1237.15 1.39439 1255.12 1.85919 1272.63 1.85919C1304.24 1.54933 1332.44 2.16906 1360.17 10.5354C1402.46 23.085 1437.79 53.6067 1471.87 82.889L1472.49 83.5088C1502.4 109.228 1529.66 131.848 1560.34 149.355C1577.07 158.806 1594.58 166.708 1611.62 174.299C1635.48 184.835 1659.96 195.835 1682.58 211.483C1723.49 239.991 1755.25 278.569 1785.92 315.753C1789.49 319.936 1792.9 324.274 1796.46 328.457C1825.43 363.317 1855.49 400.966 1888.18 443.418C1905.53 465.883 1921.95 488.968 1937.91 511.433C1943.03 518.56 1948.14 525.687 1953.1 532.814C1958.52 540.405 1964.1 548.152 1969.52 555.589C1974.94 563.026 1980.36 570.617 1985.79 578.054C2027.62 636.154 2053.96 686.662 2068.99 736.86C2071.46 744.917 2073.48 755.297 2075.18 767.537C2077.66 785.044 2078.44 802.862 2079.21 821.763C2080.14 843.454 2081.07 865.764 2084.79 888.074C2089.59 916.737 2099.82 948.033 2116.86 986.612C2121.35 996.837 2126 1006.75 2130.49 1016.51C2147.38 1052.77 2163.49 1087.01 2166.9 1123.88C2167.83 1133.18 2167.52 1142.63 2166.28 1153.01C2165.2 1161.38 2162.41 1170.67 2157.92 1179.66C2143.35 1208.94 2121.04 1231.56 2097.49 1255.42C2090.37 1262.55 2083.08 1269.98 2076.11 1277.42C2039.7 1316.62 2017.39 1353.49 2007.94 1390.06C2004.84 1401.83 2002.98 1414.54 2002.05 1427.71C2001.44 1436.85 2001.43 1446.3 2001.43 1455.44C2001.43 1480.85 2001.28 1504.71 1990.74 1525.62C1988.42 1530.12 1985.63 1534.45 1982.53 1538.33C1963.94 1561.41 1936.67 1569.62 1907.86 1578.14C1888.64 1583.88 1868.66 1589.76 1851.46 1600.61C1847.9 1602.78 1844.49 1605.26 1841.54 1607.74C1825.28 1620.91 1813.04 1639.5 1801.11 1657.47C1791.97 1671.26 1782.67 1685.51 1771.51 1697.13C1757.73 1711.54 1740.68 1721.61 1724.26 1731.53C1700.4 1745.78 1677.78 1759.26 1665.85 1784.21C1664.15 1787.77 1662.75 1791.33 1661.51 1795.21C1655.01 1816.28 1657.48 1838.43 1659.96 1859.81C1662.44 1882.28 1664.92 1903.66 1656.24 1920.7C1653.61 1925.97 1650.2 1930.62 1646.02 1934.49C1625.26 1953.86 1595.05 1948.12 1560.5 1939.29C1557.55 1938.52 1554.61 1937.74 1551.67 1936.97C1515.88 1927.67 1478.85 1918.07 1453.28 1934.03C1443.68 1940.07 1437.63 1948.28 1431.28 1956.96C1427.87 1961.6 1424.31 1966.25 1420.28 1970.74C1412.07 1979.58 1401.38 1987.01 1387.75 1993.36C1366.99 2003.13 1342.04 2009.17 1318.03 2015.06L1316.32 2015.52C1267.52 2027.45 1227.86 2040 1191.6 2054.72C1189.43 2055.65 1187.26 2056.42 1185.25 2057.35C1183.7 2057.97 1182.15 2058.59 1180.6 2059.21C1166.19 2065.25 1151.32 2071.45 1135.52 2073C1130.71 2073 1125.45 2072.84 1120.18 2072.54ZM865.933 2001.73C867.017 2001.89 867.947 2001.89 869.032 2002.04C918.3 2006.84 972.527 2025.59 1025.05 2043.72C1041.63 2049.45 1058.82 2055.34 1075.25 2060.76C1092.75 2066.34 1114.6 2073.46 1135.83 2071.45C1151.47 2069.9 1166.19 2063.7 1180.6 2057.82C1182.15 2057.2 1183.7 2056.58 1185.25 2055.96C1187.42 2055.03 1189.59 2054.25 1191.76 2053.32C1228.01 2038.45 1267.67 2026.06 1316.48 2014.13L1318.18 2013.66C1342.2 2007.77 1366.99 2001.73 1387.75 1992.13C1401.23 1985.77 1411.76 1978.49 1419.97 1969.66C1424 1965.32 1427.56 1960.67 1430.97 1956.03C1437.17 1947.66 1443.52 1938.98 1453.28 1932.94C1479.16 1916.67 1516.5 1926.43 1552.44 1935.73C1555.38 1936.5 1558.33 1937.28 1561.27 1938.05C1595.51 1946.73 1625.57 1952.46 1645.86 1933.41C1650.05 1929.53 1653.3 1925.04 1655.93 1919.93C1664.46 1903.04 1661.98 1881.97 1659.5 1859.66C1657.02 1838.12 1654.54 1815.81 1661.05 1794.59C1662.29 1790.71 1663.68 1786.99 1665.39 1783.43C1677.32 1758.33 1700.09 1744.7 1724.11 1730.29C1740.53 1720.53 1757.42 1710.3 1771.05 1696.05C1782.05 1684.58 1791.5 1670.33 1800.49 1656.54C1812.42 1638.41 1824.81 1619.82 1841.08 1606.5C1844.18 1604.02 1847.59 1601.54 1851.15 1599.37C1868.5 1588.53 1888.49 1582.64 1907.86 1576.91C1936.52 1568.38 1963.63 1560.33 1982.07 1537.4C1985.17 1533.52 1987.96 1529.34 1990.12 1524.85C2000.51 1504.24 2000.66 1480.38 2000.66 1455.13C2000.66 1445.99 2000.66 1436.54 2001.28 1427.24C2002.05 1414.07 2004.07 1401.21 2007.17 1389.44C2016.62 1352.72 2038.93 1315.84 2075.49 1276.49C2082.46 1269.05 2089.75 1261.62 2096.87 1254.49C2120.42 1230.79 2142.58 1208.32 2157.14 1179.04C2161.64 1170.05 2164.42 1161.07 2165.51 1152.7C2166.75 1142.47 2166.9 1133.02 2166.13 1123.88C2162.72 1087.32 2146.61 1053.08 2129.72 1016.98C2125.23 1007.22 2120.58 997.302 2116.09 987.076C2099.04 948.343 2088.82 917.047 2084.01 888.229C2080.3 865.919 2079.37 843.454 2078.44 821.763C2077.66 802.862 2076.89 785.044 2074.41 767.692C2072.7 755.452 2070.53 745.226 2068.21 737.17C2053.34 687.127 2027 636.774 1985.17 578.674C1979.74 571.237 1974.32 563.645 1968.9 556.209C1963.48 548.772 1957.9 541.025 1952.48 533.433C1947.36 526.307 1942.41 519.18 1937.29 512.053C1921.33 489.587 1904.91 466.502 1887.56 444.037C1854.71 401.431 1824.81 363.937 1795.84 329.077C1792.43 324.894 1788.87 320.711 1785.3 316.373C1754.63 279.189 1722.87 240.765 1682.12 212.258C1659.5 196.61 1635.02 185.764 1611.31 175.229C1594.27 167.637 1576.61 159.891 1559.88 150.285C1529.05 132.777 1501.78 110.002 1471.87 84.4383L1471.26 83.8186C1437.17 54.5363 1402 24.1695 1359.86 11.62C1332.28 3.25359 1304.08 2.78879 1272.63 2.94372C1254.97 3.09865 1237.15 2.47892 1219.8 2.01413C1188.35 1.08453 1155.81 0.154933 1124.36 2.94372C1113.83 3.87332 1103.44 4.80292 1093.06 5.73251C1039.92 10.5354 989.879 15.1834 936.737 17.1975C912.258 18.1271 887.004 18.9018 862.679 19.5215C854.933 19.6765 847.031 19.9863 839.13 20.1413C822.552 20.6061 803.65 21.2258 787.537 28.0428C774.523 33.6204 763.987 42.7614 753.917 51.7475C748.494 56.5505 742.916 61.3534 737.029 65.8464C696.436 95.5935 641.745 99.4668 588.913 103.03L583.026 103.495C572.49 104.115 560.096 105.044 547.701 105.974C511.602 108.918 479.995 116.509 453.657 128.284C421.276 142.848 398.036 163.764 384.867 190.257C380.529 199.089 377.12 208.23 374.021 217.061C370.613 226.357 367.204 235.963 362.402 244.949C339.471 288.95 290.978 312.189 244.033 334.655C230.709 341.007 216.765 347.669 203.75 354.796C172.919 371.374 152.158 385.937 136.355 402.05C116.988 421.882 105.368 444.192 101.03 470.221C97.3116 492.066 99.7905 514.067 103.199 540.56L103.509 542.419C106.608 565.195 109.706 588.744 107.382 611.21C102.734 655.056 78.2549 691.465 54.7051 726.635C51.4515 731.592 47.8881 736.705 44.6345 741.663C37.3527 752.663 31.0004 763.509 25.4228 774.044C1.87306 818.355 -4.47919 852.595 5.43651 881.722C14.1127 907.286 34.8737 924.329 55.015 940.752C75.0013 957.02 95.4524 973.907 105.368 999.316L105.523 999.781L105.058 999.936C71.128 1017.44 72.2125 1019.92 90.4946 1062.06C91.4242 1064.23 92.3538 1066.25 93.2834 1068.42C93.9031 1069.66 94.3679 1070.9 94.9876 1072.13C105.058 1094.75 116.678 1121.71 125.664 1150.53C127.059 1155.18 128.298 1159.36 129.383 1163.39C145.341 1221.95 150.144 1286.25 154.637 1348.53L155.566 1361.08C156.341 1370.84 156.961 1378.75 157.58 1386.03C164.088 1463.8 176.792 1523.76 197.553 1574.89C226.526 1646.78 274.555 1698.99 332.654 1722.23C341.95 1725.95 351.556 1729.05 360.852 1731.99C379.444 1737.88 397.106 1743.61 412.445 1753.68C420.191 1758.8 427.318 1764.99 435.22 1773.21C444.516 1782.97 452.882 1794.43 461.094 1805.43C475.193 1824.49 491.925 1846.8 509.278 1868.33C533.137 1897.62 559.786 1927.05 590.927 1958.04C603.322 1970.43 613.857 1980.04 624.083 1988.56C652.281 2011.8 676.295 2024.2 700 2027.29C726.184 2030.7 749.423 2022.8 771.889 2015.06C782.579 2011.34 793.734 2007.62 805.044 2004.98C823.791 2001.11 844.242 2000.03 865.933 2001.73Z" fill="url(#paint0_linear)"/>
<path d="M788.931 1927.21C773.438 1925.97 757.325 1920.7 740.902 1911.41C718.902 1899.01 696.282 1879.18 678.464 1856.87C676.295 1854.08 674.281 1851.45 672.267 1848.97C662.196 1835.8 654.14 1822.78 645.309 1808.53C641.59 1802.49 638.027 1796.45 634.154 1789.94C626.097 1776.46 617.731 1762.36 608.745 1748.73C599.759 1734.94 591.547 1724.09 583.181 1714.49C576.519 1706.89 568.927 1699.3 560.715 1692.18C542.278 1675.91 521.517 1662.12 499.982 1648.33C477.207 1633.61 452.882 1619.67 426.699 1623.54C413.529 1625.55 401.135 1631.91 389.05 1637.95C378.05 1643.53 366.585 1649.41 354.5 1652.05C335.288 1656.23 316.232 1650.81 300.893 1636.86C283.076 1620.75 271.301 1594.1 270.372 1567.14C269.287 1537.09 276.879 1506.72 284.315 1477.28L284.78 1475.73C288.963 1458.85 292.992 1442.27 295.626 1426C299.654 1402.3 305.386 1343.27 272.696 1307.94C269.907 1304.84 266.808 1302.05 263.554 1299.58C255.343 1293.22 246.047 1288.89 236.906 1284.55C229.159 1280.98 221.258 1277.11 214.131 1272.31C193.37 1258.21 179.581 1234.66 174.158 1204.29C169.355 1176.71 171.834 1145.57 181.285 1116.6C187.328 1097.85 195.849 1079.42 204.06 1061.75C211.187 1046.42 218.469 1030.61 224.202 1014.5C242.484 963.372 246.977 907.131 237.681 842.369C234.427 819.284 229.159 794.65 222.032 767.382C220.948 763.044 219.709 758.551 218.469 754.058C207.314 712.381 195.849 669.31 196.004 627.168C196.159 593.547 203.595 564.575 218.934 538.546C222.187 533.124 225.751 527.701 229.779 522.433C256.118 487.418 294.696 464.798 332.035 442.953C360.542 426.22 390.134 408.868 414.769 385.783C439.868 362.388 461.868 334.81 483.249 308.161C506.954 278.569 531.433 248.047 560.096 222.948C583.026 202.962 606.111 188.243 630.435 177.708C664.83 162.989 704.803 155.088 756.396 153.229C788.002 151.989 824.411 151.059 854.468 154.623C858.186 155.088 861.905 155.553 865.468 156.172C868.722 156.637 872.13 157.102 875.539 157.567C880.187 158.186 884.835 158.496 889.483 158.806C903.427 159.581 918.145 158.651 933.019 156.017C947.273 153.538 961.836 149.355 974.386 145.792L975.935 145.637C1002.27 137.89 1029.39 129.679 1058.67 123.946C1085.47 118.679 1111.66 120.848 1139.39 123.017C1171.93 125.651 1205.55 128.284 1240.56 118.369C1250.79 115.425 1261.17 111.862 1271.24 108.453C1296.96 99.6218 1323.6 90.4808 1350.41 91.1005C1380.62 91.8752 1409.44 104.89 1438.56 130.763C1452.66 143.623 1466.92 159.736 1483.34 181.271C1501.78 205.441 1520.37 230.85 1538.19 255.484C1623.09 372.613 1710.94 493.771 1846.19 536.842C1851.62 538.546 1857.19 540.251 1862.62 541.8C1891.9 550.476 1922.26 559.462 1942.1 582.702C1969.67 615.238 1967.04 664.816 1962.86 699.366C1962.08 705.254 1961.31 711.141 1960.38 717.029C1956.97 739.649 1950.46 762.114 1944.42 783.96C1939.93 799.608 1935.43 815.721 1931.87 831.989L1931.72 832.454C1929.08 844.074 1921.49 885.286 1935.43 928.977C1944.42 956.555 1960.38 980.105 1983 998.851C1996.32 1009.85 2012.59 1016.51 2026.84 1021.78C2029.17 1022.71 2031.65 1023.49 2033.97 1024.42C2050.7 1030.61 2068.06 1036.96 2082.15 1047.66C2087.58 1051.84 2093.47 1057.11 2095.79 1064.54C2099.35 1076.47 2092.69 1089.64 2086.65 1098.47C2081.07 1106.53 2074.25 1114.12 2066.04 1121.4C2049 1136.74 2029.63 1148.36 2006.24 1161.84L2005.62 1162.15C1992.6 1169.59 1979.12 1177.33 1967.35 1186.32C1963.48 1189.26 1959.6 1192.52 1955.57 1195.93C1927.53 1220.87 1908.17 1254.34 1896.39 1298.65C1892.67 1312.44 1890.04 1325.14 1888.18 1337.22C1885.08 1358.45 1883.69 1381.54 1882.29 1403.85C1881.67 1412.68 1881.21 1421.82 1880.59 1430.65C1878.57 1457.61 1875.16 1485.81 1859.05 1507.34C1855.33 1512.3 1850.84 1516.95 1845.88 1520.97C1814.28 1546.38 1776.32 1539.1 1736.04 1531.51C1733.25 1531.05 1730.46 1530.43 1727.51 1529.96C1706.13 1525.93 1681.19 1522.06 1657.48 1527.17C1634.71 1531.97 1613.17 1544.99 1594.74 1564.82C1576.45 1584.65 1561.43 1611.77 1552.44 1641.05C1546.55 1660.57 1542.52 1680.71 1538.5 1700.08L1537.88 1703.49C1535.24 1716.5 1532.14 1731.84 1528.58 1747.02C1524.55 1764.53 1520.52 1778.47 1516.34 1791.18C1507.35 1817.52 1494.5 1841.38 1479.16 1860.43C1461.18 1882.59 1440.42 1897.15 1417.8 1903.81C1406.03 1907.22 1393.63 1908.62 1380 1907.84C1356.6 1906.6 1333.52 1899.48 1311.21 1892.66L1306.72 1891.26C1233.28 1868.8 1160.15 1853.93 1089.19 1847.42C1087.49 1847.26 1085.78 1847.11 1084.08 1846.95C965.245 1837.04 909.004 1865.85 876.933 1888.63C872.285 1891.88 867.792 1895.45 863.299 1898.86C853.383 1906.6 843.158 1914.5 831.693 1919.77C818.524 1925.97 804.115 1928.6 788.931 1927.21ZM441.572 1622.15C462.488 1623.85 482.319 1635.47 500.911 1647.55C522.447 1661.5 543.208 1675.29 561.645 1691.56C569.856 1698.84 577.448 1706.27 584.11 1714.02C592.632 1723.63 600.688 1734.63 609.829 1748.42C618.815 1762.05 627.182 1776.15 635.238 1789.63C639.111 1796.14 642.675 1802.18 646.393 1808.22C655.224 1822.47 663.281 1835.33 673.352 1848.66C675.211 1851.14 677.225 1853.77 679.549 1856.56C697.211 1878.71 719.831 1898.39 741.677 1910.79C773.593 1928.76 804.735 1931.55 831.693 1919C843.003 1913.73 853.228 1905.83 862.989 1898.24C867.482 1894.83 871.975 1891.26 876.623 1888.01C944.794 1839.67 1030.78 1841.22 1089.66 1846.64C1160.62 1853.31 1233.9 1868.02 1307.34 1890.64L1311.83 1892.04C1334.14 1898.86 1357.22 1905.98 1380.31 1907.22C1393.79 1908 1406.03 1906.6 1417.8 1903.19C1459.48 1890.95 1496.04 1849.12 1515.72 1791.18C1520.06 1778.47 1523.93 1764.53 1527.96 1747.18C1531.52 1732.15 1534.62 1716.81 1537.26 1703.8L1537.88 1700.39C1541.75 1680.87 1545.93 1660.72 1551.82 1641.2C1560.81 1611.77 1575.83 1584.5 1594.27 1564.67C1612.71 1544.68 1634.55 1531.67 1657.48 1526.71C1681.5 1521.59 1706.44 1525.47 1727.98 1529.5C1730.77 1529.96 1733.56 1530.58 1736.5 1531.05C1776.47 1538.64 1814.28 1545.92 1845.57 1520.82C1850.53 1516.79 1854.87 1512.3 1858.59 1507.34C1874.55 1486.11 1877.8 1458.07 1879.81 1431.27C1880.43 1422.44 1881.05 1413.3 1881.52 1404.47C1882.91 1382.16 1884.31 1359.07 1887.4 1337.69C1889.26 1325.45 1891.9 1312.9 1895.62 1298.96C1907.55 1254.49 1926.91 1220.72 1955.11 1195.77C1959.14 1192.21 1963.01 1189.11 1966.88 1186.01C1978.66 1177.02 1992.14 1169.28 2005.15 1161.69L2005.77 1161.38C2029.17 1147.9 2048.53 1136.43 2065.42 1121.09C2073.48 1113.81 2080.14 1106.22 2085.72 1098.32C2091.76 1089.64 2098.27 1076.94 2094.7 1065.32C2092.54 1058.19 2086.8 1053.08 2081.38 1048.89C2067.44 1038.2 2050.08 1032.01 2033.35 1025.81C2031.03 1024.88 2028.55 1024.11 2026.22 1023.18C2011.97 1017.91 1995.55 1011.25 1982.07 1000.09C1959.29 981.189 1943.03 957.484 1934.19 929.751C1920.1 885.75 1927.69 844.229 1930.32 832.609L1930.48 832.299C1934.04 816.186 1938.53 799.918 1943.03 784.27C1949.22 762.579 1955.57 740.114 1958.98 717.494C1959.91 711.606 1960.69 705.719 1961.46 699.831C1965.8 665.436 1968.28 616.013 1941.01 583.942C1921.49 560.857 1891.28 551.871 1862 543.349C1856.57 541.8 1851 540.096 1845.57 538.391C1710.01 495.32 1622 374.008 1536.95 256.724C1519.13 232.089 1500.54 206.525 1482.1 182.511C1465.68 160.975 1451.42 145.017 1437.48 132.158C1408.51 106.439 1379.84 93.5794 1349.94 92.8048C1323.29 92.0301 1296.8 101.171 1271.24 110.157C1261.17 113.566 1250.79 117.284 1240.41 120.228C1205.08 130.299 1171.46 127.51 1138.77 124.876C1111.04 122.707 1085.01 120.538 1058.36 125.805C1029.23 131.538 1001.96 139.594 975.78 147.496L974.541 147.806C962.146 151.524 947.428 155.553 933.174 158.031C918.3 160.665 903.582 161.595 889.483 160.82C884.835 160.51 880.032 160.046 875.384 159.581C871.975 159.116 868.567 158.651 865.313 158.186C861.75 157.722 858.031 157.102 854.313 156.637C824.411 153.074 788.157 154.003 756.396 155.243C704.958 157.257 665.14 165.003 630.9 179.722C606.576 190.257 583.645 204.976 560.87 224.807C532.208 249.907 507.728 280.273 484.179 309.866C462.798 336.514 440.643 364.092 415.543 387.487C390.754 410.572 361.162 427.924 332.654 444.812C293.766 467.742 257.047 489.278 230.709 524.138C226.835 529.25 223.272 534.673 220.018 540.096C204.835 565.969 197.398 594.787 197.243 628.097C197.088 670.084 208.553 713.001 219.708 754.677C220.948 759.171 222.032 763.509 223.272 768.002C230.554 795.425 235.667 820.059 239.075 843.144C248.371 908.061 244.033 964.456 225.596 1015.74C219.863 1031.85 212.427 1047.66 205.455 1062.99C197.243 1080.66 188.877 1098.94 182.68 1117.68C173.229 1146.5 170.75 1177.49 175.553 1204.91C180.82 1234.97 194.609 1258.21 215.061 1272.31C222.032 1277.11 229.934 1280.83 237.681 1284.39C246.822 1288.73 256.273 1293.22 264.484 1299.58C267.738 1302.05 270.991 1305 273.78 1308.1C286.33 1321.58 294.541 1340.01 298.104 1362.79C301.203 1382.15 300.738 1404.47 297.02 1427.09C294.231 1443.35 290.358 1459.93 286.175 1476.82L285.71 1478.37C278.428 1507.65 270.836 1538.02 271.921 1567.92C272.85 1594.57 284.47 1620.91 302.133 1636.86C317.316 1650.5 335.908 1655.77 354.81 1651.74C366.895 1649.1 378.205 1643.37 389.05 1637.79C401.135 1631.6 413.529 1625.24 427.009 1623.23C431.966 1621.84 436.769 1621.68 441.572 1622.15Z" fill="url(#paint1_linear)"/>
<path d="M947.582 1789.63C923.723 1787.61 902.342 1772.12 880.961 1754.92C856.947 1735.56 833.862 1717.43 813.876 1710.92C811.242 1709.99 808.608 1709.37 805.664 1709.06C798.847 1707.98 793.269 1708.44 787.847 1708.75C782.579 1709.06 777.466 1709.53 771.579 1708.6C756.395 1706.43 736.254 1694.34 717.972 1676.53C709.451 1668.16 701.239 1658.86 693.338 1650.03C691.943 1648.48 690.549 1646.93 689.155 1645.39C682.957 1638.41 675.676 1630.2 667.774 1622.3C651.971 1606.34 633.534 1590.54 611.378 1573.96C592.941 1560.17 568.307 1543.9 542.123 1539.41C524.151 1536.31 506.644 1538.02 488.362 1539.72C482.01 1540.34 475.347 1540.96 468.53 1541.43C449.474 1542.67 433.671 1538.64 421.586 1529.5C401.29 1514.16 395.712 1488.9 394.628 1470.47C393.853 1456.21 394.782 1441.49 395.712 1427.24C396.487 1414.85 397.261 1403.23 397.106 1391.76C396.797 1378.75 394.937 1366.04 391.064 1351.94C383.008 1321.73 366.12 1290.74 343.345 1264.25C341.021 1261.62 338.542 1258.98 336.218 1256.35C332.654 1252.63 328.936 1249.07 325.373 1245.5C317.781 1238.07 310.654 1231.25 304.612 1222.88C281.837 1190.81 280.597 1136.9 301.203 1085.46C307.4 1070.12 314.992 1055.09 322.584 1040.37C328.316 1029.22 334.049 1017.75 339.317 1006.29C358.528 963.217 367.824 918.441 367.05 873.356C366.585 851.975 363.951 831.059 361.472 813.242C361.007 810.453 360.697 807.509 360.232 804.721C355.275 770.326 350.162 734.846 356.824 702C361.007 680.774 370.148 659.704 385.177 635.999C387.656 632.125 390.289 628.097 393.698 623.294C413.684 594.322 434.29 570.307 456.291 544.743C471.939 526.616 487.897 507.869 503.7 487.418C531.123 451.629 567.532 423.276 602.702 395.853C631.055 373.853 660.337 351.078 684.971 324.429C693.648 314.978 701.704 305.372 709.451 295.921C721.536 281.203 733.001 267.259 746.635 255.174C777.311 227.906 819.918 209.159 876.623 197.539C880.187 196.765 884.37 195.835 888.708 194.905C918.145 188.398 962.456 178.482 984.456 192.736C988.33 195.215 991.428 198.469 994.372 201.412C996.386 203.427 998.4 205.596 1000.72 207.61C1004.44 210.708 1008.78 213.187 1013.74 215.047C1027.84 220.314 1045.65 220.159 1061.46 214.737C1074.16 210.399 1089.5 200.793 1102.98 192.271C1129.63 175.229 1161.08 163.919 1193.93 159.426C1213.6 156.792 1233.28 158.651 1254.19 160.82C1273.72 162.679 1293.86 164.693 1314.62 162.834C1319.58 162.369 1324.53 161.75 1329.49 161.285C1347.77 159.116 1366.68 156.947 1385.89 160.975C1405.1 164.848 1423.38 175.229 1441.97 192.581C1449.87 202.342 1457.93 213.807 1467.38 228.836C1471.26 235.033 1475.28 241.23 1479.16 247.582C1536.79 339.148 1596.44 433.812 1689.56 482.615C1692.81 484.32 1696.22 486.024 1699.47 487.728C1724.26 500.433 1749.82 513.757 1769.81 533.898C1793.52 557.448 1807.77 589.519 1812.42 629.027C1813.04 634.449 1813.5 639.562 1813.66 644.675C1814.9 670.549 1809.78 696.887 1804.98 722.296C1803.28 731.128 1801.57 740.114 1800.02 749.1C1797.7 762.889 1791.81 799.298 1804.36 836.172C1812.26 859.567 1826.98 880.328 1848.05 898.3C1860.14 908.525 1873.93 915.807 1885.86 921.695L1888.8 923.089C1904.45 930.681 1920.56 938.582 1931.87 950.667C1935.28 954.231 1940.08 959.963 1941.63 967.4C1943.8 977.471 1940.55 988.471 1931.87 1000.25C1926.76 1007.37 1920.25 1014.34 1911.42 1022.09C1894.53 1036.96 1877.02 1049.82 1855.8 1064.85C1842.32 1074.46 1830.7 1083.29 1824.66 1094.91C1822.64 1098.78 1821.25 1102.66 1820.01 1107.15C1815.98 1123.42 1821.4 1137.05 1827.45 1153.01C1832.4 1165.87 1838.14 1180.43 1839.22 1198.4C1839.84 1209.56 1838.29 1221.64 1834.11 1236.21C1831.78 1244.57 1828.84 1253.25 1825.9 1261.62C1819.08 1281.45 1812.11 1301.9 1811.33 1322.97C1810.87 1333.97 1811.95 1344.66 1813.04 1355.04C1814.59 1370.07 1816.14 1384.32 1812.73 1398.27C1811.33 1404.16 1809.01 1409.58 1806.06 1414.54C1789.64 1441.65 1756.02 1455.28 1703.5 1455.9C1700.25 1455.9 1697.15 1455.9 1693.89 1456.06C1674.53 1456.21 1654.54 1456.37 1635.33 1460.24C1610.07 1465.2 1588.54 1475.58 1571.19 1491.38C1551.51 1509.2 1536.79 1536 1531.21 1564.98C1530.28 1569.47 1529.51 1573.96 1528.74 1578.45C1526.88 1589.76 1524.86 1601.54 1520.99 1612.23C1517.12 1622.92 1511.69 1632.06 1506.58 1640.43C1500.38 1650.34 1494.65 1658.86 1488.76 1666.61C1470.64 1690.78 1440.27 1721.46 1399.52 1730.75C1390.54 1732.77 1381.24 1733.7 1370.86 1733.7C1353.35 1733.54 1335.84 1730.13 1318.8 1727.04L1314.93 1726.26C1264.73 1716.81 1206.01 1708.29 1151.47 1716.03C1107.01 1722.39 1058.98 1740.51 1000.41 1773.36C999.33 1773.98 998.245 1774.6 997.006 1775.22C986.471 1781.11 975.625 1787.3 963.386 1789.32C957.808 1789.94 952.695 1790.09 947.582 1789.63ZM801.946 1707.51C803.185 1707.67 804.425 1707.82 805.819 1707.98C808.608 1708.44 811.397 1709.06 814.185 1709.99C834.327 1716.65 857.567 1734.78 881.736 1754.15C907.455 1774.91 933.019 1793.04 962.921 1788.08C974.851 1786.06 985.231 1780.33 996.231 1774.13C997.316 1773.52 998.4 1772.9 999.64 1772.28C1058.36 1739.43 1106.39 1721.15 1151.16 1714.95C1205.7 1707.2 1264.57 1715.73 1314.93 1725.18L1318.8 1725.95C1335.84 1729.2 1353.35 1732.46 1370.7 1732.61C1380.93 1732.77 1390.23 1731.84 1399.06 1729.67C1439.65 1720.53 1469.71 1690.01 1487.68 1665.99C1493.41 1658.25 1499.3 1649.72 1505.5 1639.81C1510.61 1631.44 1516.03 1622.46 1519.9 1611.77C1523.62 1601.07 1525.64 1589.45 1527.5 1578.14C1528.27 1573.65 1529.04 1569.16 1529.97 1564.67C1535.71 1535.54 1550.43 1508.42 1570.26 1490.45C1587.76 1474.65 1609.46 1464.11 1634.86 1459.16C1654.23 1455.28 1674.22 1455.13 1693.74 1454.97C1696.99 1454.97 1700.25 1454.97 1703.34 1454.82C1755.56 1454.04 1788.87 1440.72 1804.98 1413.92C1807.92 1409.11 1810.09 1403.85 1811.49 1397.96C1814.9 1384.32 1813.35 1370.07 1811.8 1355.2C1810.71 1344.82 1809.63 1334.13 1810.09 1322.97C1810.87 1301.74 1817.99 1281.14 1824.81 1261.31C1827.6 1252.94 1830.7 1244.26 1833.02 1235.9C1837.21 1221.33 1838.76 1209.56 1838.14 1198.4C1837.05 1180.59 1831.47 1166.02 1826.52 1153.32C1820.32 1137.21 1814.9 1123.42 1818.92 1106.84C1820.01 1102.19 1821.56 1098.16 1823.57 1094.29C1829.77 1082.51 1841.54 1073.53 1855.02 1063.77C1876.25 1048.58 1893.76 1035.88 1910.64 1021.01C1919.48 1013.26 1925.83 1006.29 1930.94 999.316C1939.31 987.696 1942.56 977.006 1940.55 967.245C1939 960.118 1934.35 954.54 1931.1 950.977C1919.94 939.202 1903.83 931.301 1888.33 923.709L1885.39 922.16C1873.46 916.272 1859.52 908.835 1847.43 898.61C1826.21 880.638 1811.33 859.567 1803.43 836.017C1790.88 798.833 1796.92 762.269 1799.09 748.325C1800.49 739.339 1802.35 730.353 1804.05 721.522C1809.01 696.113 1813.97 669.774 1812.73 644.055C1812.42 638.943 1812.11 633.985 1811.49 628.562C1806.84 589.364 1792.59 557.603 1769.19 534.053C1749.2 514.067 1723.8 500.897 1699.16 488.038C1695.75 486.334 1692.5 484.63 1689.25 482.925C1595.98 434.121 1536.17 339.303 1478.54 247.582C1474.66 241.385 1470.64 235.033 1466.76 228.836C1457.31 213.807 1449.25 202.342 1441.35 192.736C1423.07 175.694 1404.94 165.468 1385.89 161.44C1366.99 157.567 1348.08 159.736 1329.8 161.75C1325 162.369 1319.89 162.834 1314.93 163.299C1294.01 165.158 1273.87 163.144 1254.35 161.285C1233.59 159.271 1213.91 157.257 1194.39 159.891C1161.7 164.229 1130.25 175.539 1103.91 192.581C1090.43 201.103 1074.94 210.708 1062.23 215.201C1046.27 220.779 1028.15 220.934 1013.74 215.511C1008.78 213.652 1004.29 211.173 1000.41 207.92C998.09 205.906 995.921 203.736 993.907 201.722C990.964 198.779 988.02 195.68 984.302 193.201C962.766 179.257 918.61 189.018 889.483 195.525C885.145 196.455 880.961 197.384 877.243 198.159C820.693 209.624 778.396 228.526 747.719 255.484C734.085 267.569 722.775 281.513 710.69 296.231C702.944 305.682 694.887 315.443 686.211 324.739C661.422 351.542 632.139 374.317 603.787 396.318C568.617 423.741 532.208 451.939 504.94 487.728C489.291 508.334 473.178 527.081 457.53 545.208C435.685 570.617 414.924 594.632 395.092 623.604C391.684 628.407 389.05 632.59 386.571 636.309C371.543 659.858 362.556 680.774 358.373 701.845C351.866 734.536 356.979 770.016 361.782 804.256C362.247 807.044 362.556 809.988 363.021 812.777C365.5 830.594 368.289 851.51 368.599 873.046C369.373 918.286 360.078 963.062 340.711 1006.44C335.598 1017.91 329.711 1029.53 323.978 1040.53C316.541 1055.09 308.795 1070.12 302.752 1085.46L302.288 1085.3L302.752 1085.46C282.301 1136.59 283.541 1190.19 306.006 1221.95C311.893 1230.17 319.02 1237.14 326.612 1244.42C330.176 1247.83 333.894 1251.39 337.457 1255.26C339.936 1257.9 342.415 1260.53 344.739 1263.17C367.514 1289.66 384.557 1320.96 392.613 1351.17C396.487 1365.42 398.346 1378.13 398.656 1391.14C398.966 1402.61 398.191 1414.85 397.261 1426.62C396.332 1440.87 395.247 1455.59 396.177 1469.69C397.261 1487.97 402.684 1512.76 422.67 1527.95C434.445 1536.93 450.093 1540.81 468.84 1539.57C475.502 1539.1 482.165 1538.48 488.517 1537.86C506.954 1536.16 524.461 1534.45 542.588 1537.55C569.082 1542.05 593.716 1558.47 612.308 1572.26C634.618 1588.84 653.055 1604.64 668.858 1620.75C676.76 1628.81 684.197 1637.02 690.394 1643.99C691.789 1645.54 693.183 1647.09 694.577 1648.64C702.479 1657.63 710.69 1666.77 719.212 1675.13C737.339 1692.79 757.17 1704.72 772.199 1706.89C778.086 1707.82 783.044 1707.36 788.312 1707.05C792.185 1707.36 796.833 1707.05 801.946 1707.51Z" fill="url(#paint2_linear)"/>
<path d="M1080.05 1635.01C1079.28 1635.01 1078.35 1634.85 1077.57 1634.7C1051.39 1631.44 1031.87 1611.77 1013.12 1592.71C1010.8 1590.38 1008.63 1588.06 1006.3 1585.89C966.794 1546.85 939.371 1551.5 929.455 1555.37C921.399 1558.47 914.892 1564.36 908.849 1569.93C908.075 1570.71 907.3 1571.33 906.525 1572.1C902.187 1575.98 897.229 1580.16 891.032 1583.26C873.835 1591.62 848.58 1587.91 826.735 1573.81C810.932 1563.58 797.917 1549.64 785.368 1536.31C782.424 1533.06 779.326 1529.81 776.227 1526.71C765.072 1515.09 753.297 1504.4 741.212 1494.64C696.436 1458.69 644.689 1436.07 591.392 1428.94L589.378 1428.63C576.828 1426.93 563.659 1425.23 553.124 1417.79C533.137 1403.85 531.588 1379.06 529.884 1352.72C528.954 1338.77 528.025 1324.52 524.151 1311.66C523.377 1309.03 522.447 1306.7 521.517 1304.38C511.912 1281.29 490.376 1266.11 469.46 1251.55C455.671 1241.79 441.262 1231.87 430.262 1219.48C410.895 1197.78 401.909 1170.52 403.614 1138.29C404.853 1114.12 412.755 1086.85 426.389 1059.43C433.825 1044.56 442.192 1029.84 450.248 1015.58C469.46 981.809 489.291 946.949 496.883 908.371C499.827 893.497 500.911 878.004 502.151 862.975C504.165 835.397 506.334 807.045 519.503 782.565C525.236 771.72 533.137 762.114 540.729 752.818C546.771 745.381 552.969 737.635 558.082 729.423C571.251 708.352 577.758 683.873 583.955 660.013C589.068 640.337 594.491 620.041 603.477 601.604C623.153 561.941 655.689 537.307 685.126 518.405C695.662 511.588 706.817 505.081 717.662 498.728C741.987 484.475 767.241 469.601 787.847 451.164C792.96 446.671 797.608 442.023 801.791 437.22C814.03 423.586 823.791 407.783 833.242 392.6C841.144 379.895 849.355 366.726 858.961 354.641C890.877 314.823 937.047 290.189 985.386 266.329C995.457 261.372 1008.63 255.019 1022.88 249.287C1041.94 241.54 1063.94 234.258 1081.6 239.681C1085.01 240.765 1088.11 242.625 1090.74 245.413C1094.3 248.977 1096.63 253.315 1098.95 257.963C1100.5 260.907 1102.05 264.005 1104.06 266.794C1111.35 277.02 1122.35 282.132 1130.4 284.611C1141.87 288.175 1153.95 288.175 1164.64 284.456C1174.09 281.203 1189.59 271.132 1206.17 257.188C1212.21 252.23 1218.25 247.582 1224.45 243.244C1248.15 226.976 1274.03 216.596 1299.12 213.187C1328.87 217.835 1363.11 231.624 1398.28 252.85C1407.73 258.583 1417.8 264.78 1427.72 272.372L1427.87 272.527C1430.04 276.245 1432.06 279.963 1434.23 283.682C1435.93 286.471 1437.63 289.414 1439.34 292.358C1445.38 302.429 1451.42 312.809 1457 324.584C1461.8 334.655 1465.68 345.035 1469.55 355.106C1474.04 366.726 1478.54 378.656 1484.27 389.811C1495.27 411.656 1511.69 432.882 1534.47 454.728C1545.78 465.728 1558.48 476.263 1570.72 486.489C1601.71 512.363 1633.62 539.011 1648.19 574.181C1650.67 580.378 1652.68 586.575 1654.08 592.773C1659.5 616.942 1655.93 642.196 1652.37 666.521C1650.36 681.394 1648.19 696.578 1648.03 711.606C1647.88 727.409 1650.05 741.353 1654.7 753.748C1667.4 787.678 1699.32 812.312 1722.4 827.806C1739.91 839.58 1759.74 853.06 1762.53 873.821C1765.32 893.962 1751.06 910.85 1735.26 926.188C1727.36 933.78 1719.3 941.526 1711.4 949.118C1703.5 956.555 1695.44 964.301 1687.7 971.893C1676.85 982.428 1667.09 992.964 1665.7 1006.75C1664.92 1014.65 1666.78 1021.94 1671.27 1028.6C1678.87 1040.22 1692.96 1048.74 1707.84 1057.73C1714.03 1061.44 1720.39 1065.32 1726.27 1069.35C1740.68 1079.42 1749.36 1089.33 1753.39 1100.49C1756.64 1109.63 1756.8 1119.08 1753.85 1129.15C1750.75 1139.38 1744.71 1149.29 1738.82 1158.43C1737.89 1159.98 1736.81 1161.53 1735.88 1162.93C1725.5 1178.88 1714.96 1195.31 1713.41 1213.12C1712.33 1225.98 1715.89 1238.38 1719.46 1250.31C1722.56 1260.69 1725.65 1271.38 1725.81 1282.38C1726.12 1302.36 1716.36 1321.42 1697.77 1337.38C1681.81 1351.17 1660.12 1361.86 1636.88 1367.75C1624.79 1370.84 1611.93 1373.01 1599.69 1375.34C1568.24 1381.07 1535.55 1386.96 1509.83 1405.39C1487.68 1421.2 1472.18 1445.06 1468.47 1469.38C1468.16 1471.71 1467.85 1474.34 1467.54 1476.66C1466.76 1484.41 1465.99 1492.31 1461.34 1498.66C1457 1504.71 1449.87 1508.43 1443.68 1511.52C1416.25 1524.69 1386.51 1533.99 1355.52 1539.1C1347.46 1540.5 1339.25 1541.43 1331.35 1542.2C1319.89 1543.29 1307.96 1543.75 1296.49 1544.21C1260.39 1545.76 1222.9 1547.31 1192.38 1566.06C1179.67 1573.96 1167.74 1584.81 1156.28 1595.34C1131.95 1617.03 1109.8 1637.48 1080.05 1635.01ZM947.582 1551.96C954.554 1552.58 961.991 1554.6 969.738 1558.31C985.231 1565.44 998.4 1576.91 1006.77 1585.27C1009.09 1587.44 1011.26 1589.76 1013.58 1592.09C1032.33 1610.99 1051.7 1630.51 1077.57 1633.77C1108.09 1637.64 1130.71 1616.88 1154.73 1594.88C1166.19 1584.34 1178.12 1573.34 1190.98 1565.44C1221.81 1546.38 1259.31 1544.83 1295.56 1543.44C1307.03 1542.98 1318.96 1542.51 1330.42 1541.43C1338.48 1540.65 1346.53 1539.72 1354.59 1538.33C1385.58 1533.21 1415.17 1523.92 1442.59 1510.9C1449.1 1507.81 1455.76 1504.24 1459.95 1498.51C1464.28 1492.31 1465.21 1484.57 1465.99 1476.97C1466.3 1474.49 1466.45 1472.02 1466.92 1469.54C1470.79 1444.9 1486.44 1420.73 1508.75 1404.78C1534.78 1386.34 1567.47 1380.3 1599.07 1374.56C1611.31 1372.39 1624.02 1370.07 1636.26 1366.97C1697.46 1351.79 1724.88 1312.59 1724.42 1282.69C1724.26 1271.84 1721.16 1261.15 1718.06 1250.93C1714.5 1238.84 1710.78 1226.45 1712.02 1213.43C1713.57 1195.31 1724.26 1178.73 1734.64 1162.77C1735.57 1161.22 1736.65 1159.67 1737.58 1158.28C1743.47 1149.14 1749.51 1139.22 1752.46 1129.15C1755.4 1119.23 1755.25 1110.09 1751.99 1101.26C1747.96 1090.42 1739.6 1080.66 1725.19 1070.59C1719.3 1066.56 1712.95 1062.68 1706.91 1058.97C1691.88 1049.82 1677.78 1041.3 1670.03 1029.53C1665.39 1022.56 1663.53 1015.12 1664.3 1006.91C1665.7 992.654 1675.61 981.964 1686.61 971.428C1694.51 963.837 1702.57 956.09 1710.32 948.653C1718.22 941.216 1726.27 933.47 1734.18 925.723C1749.82 910.695 1763.77 893.962 1761.13 874.285C1758.5 853.989 1738.82 840.665 1721.47 829.045C1673.13 796.509 1659.5 770.945 1653.46 754.522C1648.81 741.818 1646.48 728.029 1646.64 711.916C1646.79 696.887 1648.96 681.549 1650.98 666.676C1654.39 642.351 1657.95 617.252 1652.68 593.392C1651.29 587.195 1649.43 580.998 1646.79 574.955C1632.39 539.941 1600.47 513.447 1569.64 487.728C1557.4 477.503 1544.69 466.967 1533.23 455.967C1510.3 433.967 1493.88 412.741 1482.88 390.74C1477.14 379.43 1472.49 367.5 1468.16 355.88C1464.28 345.81 1460.25 335.429 1455.61 325.514C1450.03 313.894 1443.99 303.513 1437.94 293.443C1436.24 290.499 1434.54 287.555 1432.83 284.766C1430.66 281.048 1428.65 277.485 1426.63 273.766C1416.72 266.174 1406.8 259.977 1397.35 254.245C1362.34 233.019 1328.1 219.385 1298.66 214.737C1273.87 218.145 1248.15 228.526 1224.6 244.639C1218.4 248.822 1212.36 253.47 1206.32 258.428C1198.26 265.09 1178.28 281.203 1164.33 285.851C1153.49 289.569 1141.09 289.569 1129.47 286.006C1121.26 283.527 1109.95 278.259 1102.67 267.879C1100.66 264.935 1099.11 261.836 1097.56 258.893C1095.23 254.4 1093.06 250.216 1089.5 246.653C1086.87 244.019 1083.92 242.16 1080.82 241.23C1063.47 235.963 1041.78 243.089 1022.88 250.836C1008.78 256.569 995.457 262.921 985.386 267.879C937.047 291.583 891.032 316.218 859.271 355.88C849.665 367.81 841.453 380.98 833.552 393.684C824.101 408.867 814.185 424.671 801.946 438.46C797.763 443.108 792.96 447.911 788.002 452.404C767.241 470.996 742.142 485.714 717.662 500.123C706.817 506.475 695.662 513.137 685.126 519.799C655.844 538.546 623.308 563.026 603.942 602.533C594.801 620.815 589.533 641.112 584.42 660.633C578.223 684.493 571.716 709.127 558.391 730.353C553.124 738.564 546.926 746.311 540.884 753.748C533.292 763.044 525.546 772.65 519.813 783.34C506.799 807.509 504.63 835.862 502.616 863.285C501.531 878.314 500.292 893.807 497.348 908.68C489.756 947.569 469.77 982.429 450.558 1016.2C442.502 1030.46 434.135 1045.18 426.699 1060.05C413.219 1087.47 405.318 1114.59 404.078 1138.6C402.374 1170.52 411.36 1197.63 430.572 1219.01C441.572 1231.25 455.826 1241.32 469.615 1250.93C490.686 1265.65 512.376 1280.83 522.137 1304.22C523.067 1306.55 523.996 1309.03 524.771 1311.66C528.644 1324.52 529.574 1338.93 530.504 1352.87C532.208 1378.9 533.757 1403.54 553.279 1417.17C563.659 1424.45 576.673 1426.16 589.068 1427.86L591.082 1428.17C644.534 1435.3 696.591 1458.07 741.367 1494.02C753.452 1503.62 765.227 1514.47 776.382 1526.09C779.48 1529.19 782.579 1532.59 785.523 1535.69C798.072 1549.02 811.087 1562.81 826.735 1573.03C848.271 1586.98 873.06 1590.69 889.947 1582.48C895.835 1579.54 900.948 1575.36 905.131 1571.48C905.906 1570.71 906.68 1570.09 907.455 1569.31C913.652 1563.74 920.159 1557.85 928.526 1554.6C934.723 1552.27 940.92 1551.34 947.582 1551.96Z" fill="url(#paint3_linear)"/>
<path d="M1057.58 1524.69C1037.29 1522.99 1019.78 1512.61 1003.51 1501.92C981.978 1487.66 959.512 1474.49 939.991 1474.34C933.638 1474.19 928.216 1475.42 922.948 1476.35C922.173 1476.51 921.399 1476.66 920.624 1476.82C916.751 1477.59 912.568 1478.21 907.765 1478.37C893.976 1478.52 875.694 1472.33 857.876 1461.17C849.51 1455.9 841.608 1450.17 833.862 1444.59C826.425 1439.17 819.453 1434.06 812.016 1429.41C801.481 1422.75 790.481 1417.32 779.171 1413.3C757.015 1405.4 733.93 1402.92 709.451 1400.28C690.704 1398.27 671.337 1396.25 652.436 1391.61C638.956 1388.2 629.041 1382.77 621.604 1374.1C609.364 1360.15 606.575 1340.17 603.787 1318.94C601.773 1304.22 599.758 1289.04 594.181 1276.03C593.251 1273.86 592.167 1271.69 591.082 1269.67C579.152 1248.29 555.758 1235.43 533.292 1223.19C521.827 1216.84 509.897 1210.49 499.672 1202.9C475.347 1184.93 462.643 1163.7 460.784 1137.83C458.925 1112.42 468.84 1085.61 477.826 1065.01C484.334 1049.98 491.615 1034.95 498.742 1020.39C512.996 990.95 527.715 960.428 537.476 928.822C540.729 918.286 543.518 907.441 546.307 897.061C552.814 871.652 559.631 845.468 573.73 822.383C580.237 811.693 588.139 801.932 595.885 792.481C600.223 787.058 604.716 781.481 609.054 775.903C631.21 746.001 646.083 711.606 660.337 678.296C661.422 675.662 662.661 673.028 663.746 670.394C665.295 666.676 666.844 663.112 668.394 659.549C680.943 629.647 691.943 603.773 713.169 580.068C732.536 558.533 759.029 541.335 784.903 524.602C790.636 520.884 796.523 517.166 802.101 513.447C807.523 509.884 812.326 506.475 816.664 503.377C834.946 490.052 850.904 475.799 867.637 460.77C872.905 455.967 878.482 451.009 884.06 446.051C897.074 434.586 910.708 423.431 924.033 412.741C947.892 393.374 970.358 375.092 989.104 355.261C991.738 352.472 994.682 349.528 997.781 346.275C1002.89 341.007 1008.16 335.584 1013.27 329.852C1015.91 326.908 1018.08 324.429 1020.25 321.795C1028.92 311.57 1034.65 304.753 1051.7 301.499C1054.95 300.879 1058.05 301.499 1060.53 301.964C1066.11 303.203 1070.6 305.992 1075.71 309.091C1076.49 309.556 1077.42 310.175 1078.19 310.64C1081.75 312.809 1085.47 314.823 1089.5 316.992C1094.15 319.626 1099.11 322.26 1103.6 325.049C1111.81 330.162 1120.18 335.429 1129.01 337.753C1138.77 340.387 1154.57 336.979 1170.22 328.767C1175.8 325.979 1181.84 322.415 1188.19 318.542C1195.16 314.204 1202.14 309.711 1208.95 305.373C1223.05 296.231 1236.38 287.71 1250.01 280.583L1250.32 280.428L1252.18 282.133C1274.8 304.598 1302.84 332.486 1342.97 342.866C1351.8 345.19 1360.63 346.12 1369.31 346.894C1372.41 347.204 1375.51 347.514 1378.76 347.824C1382.79 348.909 1386.66 349.838 1390.23 350.923C1402.16 354.331 1419.2 360.683 1429.11 376.332C1437.48 389.656 1438.56 405.924 1439.65 421.572C1440.27 431.023 1441.04 440.784 1443.21 449.77C1450.03 477.348 1470.64 497.954 1494.8 520.109C1498.37 523.363 1501.93 526.616 1505.65 529.87C1535.55 556.673 1566.38 584.251 1572.27 621.125C1573.05 626.238 1573.51 631.041 1573.51 635.844C1573.51 651.182 1569.17 666.831 1565.14 681.859C1561.12 696.423 1557.09 711.606 1556.62 726.635C1556.31 738.564 1558.17 749.255 1562.51 759.635C1572.58 783.495 1594.43 801.467 1615.5 818.665L1615.65 818.82C1629.29 830.13 1641.84 841.44 1644.62 857.553C1647.72 875.835 1638.27 892.568 1627.58 908.061C1622.16 915.962 1616.12 924.019 1610.23 931.766C1604.34 939.512 1598.3 947.724 1592.88 955.625C1586.06 965.386 1578.78 976.851 1578.16 989.865C1577.85 996.992 1579.24 1003.5 1582.81 1010.01C1589.62 1022.56 1602.48 1031.08 1616.12 1040.22C1620.77 1043.32 1625.41 1046.42 1629.91 1049.82C1641.99 1058.81 1650.05 1068.57 1653.77 1078.8C1656.86 1087.32 1657.02 1095.99 1654.23 1104.67C1651.29 1113.81 1645.55 1122.18 1639.36 1130.54C1637.81 1132.71 1636.1 1134.88 1634.55 1136.9C1625.1 1149.6 1615.19 1162.77 1609.46 1176.09C1605.12 1186.01 1602.95 1195.46 1600.78 1204.76C1598.76 1213.28 1596.75 1222.26 1593.03 1231.1C1580.95 1260.22 1547.79 1287.65 1504.41 1304.69C1490.93 1309.96 1476.99 1314.45 1463.35 1318.94C1439.18 1326.84 1414.24 1334.9 1391.93 1347.3C1366.37 1361.55 1349.48 1375.34 1340.18 1389.59C1338.94 1391.45 1338.01 1393.47 1337.08 1395.48C1335.38 1399.04 1333.67 1402.92 1330.27 1405.86C1326.55 1409.27 1321.59 1411.59 1316.94 1413.45C1299.28 1420.89 1279.6 1427.55 1254.81 1434.68C1249.08 1436.38 1243.66 1437.78 1238.39 1439.17C1233.59 1440.41 1228.63 1441.65 1223.83 1442.73C1196.25 1449.4 1170.22 1455.75 1147.29 1472.48C1139.7 1478.06 1132.42 1484.72 1125.29 1491.23C1108.09 1506.88 1090.28 1523.14 1067.66 1524.54C1064.09 1525 1060.84 1525 1057.58 1524.69ZM943.399 1473.41C962.456 1474.96 983.837 1487.51 1004.13 1500.99C1022.88 1513.23 1043.18 1525.16 1067.35 1523.76C1089.66 1522.52 1107.32 1506.41 1124.36 1490.76C1131.49 1484.26 1138.77 1477.59 1146.52 1472.02C1169.6 1454.97 1197.02 1448.47 1223.36 1441.96C1228.17 1440.87 1232.97 1439.64 1237.93 1438.4C1243.19 1437 1248.46 1435.61 1254.35 1433.9C1278.98 1426.93 1298.82 1420.11 1316.32 1412.83C1320.97 1410.82 1325.77 1408.65 1329.34 1405.39C1332.44 1402.45 1334.14 1398.89 1335.84 1395.32C1336.77 1393.31 1337.86 1391.14 1339.1 1389.28C1348.39 1374.87 1365.44 1360.93 1391.15 1346.68C1413.47 1334.28 1438.56 1326.07 1462.73 1318.32C1476.37 1313.98 1490.31 1309.34 1503.79 1304.07C1547.02 1287.18 1579.86 1259.91 1591.95 1231.1C1595.67 1222.26 1597.68 1213.43 1599.69 1204.91C1601.86 1195.62 1604.19 1186.01 1608.37 1176.09C1614.26 1162.62 1624.02 1149.45 1633.62 1136.74C1635.17 1134.57 1636.88 1132.4 1638.43 1130.39C1644.62 1122.02 1650.2 1113.81 1653.15 1104.83C1655.78 1096.3 1655.63 1087.78 1652.68 1079.57C1649.12 1069.66 1641.22 1060.05 1629.29 1051.22C1624.95 1047.97 1620.15 1044.71 1615.5 1041.61C1602.33 1032.78 1588.69 1023.64 1581.88 1010.94C1578.31 1004.27 1576.76 997.612 1577.23 990.33C1577.85 977.161 1585.29 965.541 1592.1 955.625C1597.53 947.724 1603.57 939.667 1609.46 931.766C1615.19 924.019 1621.23 915.962 1626.65 908.061C1637.19 892.722 1646.64 876.145 1643.54 858.327C1640.91 842.679 1628.51 831.369 1614.88 820.214L1614.72 820.059C1593.5 802.707 1571.65 784.734 1561.43 760.565C1557.09 750.184 1555.07 739.184 1555.38 727.099C1555.85 711.916 1559.88 696.733 1563.9 682.014C1567.93 666.986 1572.27 651.492 1572.27 636.309C1572.27 631.506 1571.96 626.703 1571.03 621.745C1565.14 585.181 1534.47 557.758 1504.72 531.109C1501.16 527.856 1497.44 524.602 1493.88 521.349C1469.55 499.038 1448.79 478.432 1441.97 450.544C1439.8 441.403 1439.03 431.643 1438.41 422.192C1437.32 406.544 1436.24 390.431 1428.03 377.416C1418.42 362.078 1401.54 355.881 1389.76 352.472C1386.04 351.388 1382.32 350.458 1378.3 349.373C1375.2 349.064 1372.1 348.754 1369 348.444C1360.32 347.514 1351.34 346.74 1342.51 344.416C1302.22 333.88 1274.03 305.837 1251.25 283.372L1250.01 282.133C1236.53 289.105 1223.36 297.626 1209.42 306.612C1202.6 310.95 1195.63 315.443 1188.66 319.781C1182.31 323.81 1176.11 327.218 1170.69 330.007C1154.57 338.373 1138.92 341.627 1128.7 338.993C1119.71 336.669 1111.19 331.246 1102.98 326.134C1098.49 323.345 1093.68 320.711 1089.04 318.077C1085.01 315.908 1081.29 313.739 1077.73 311.725C1076.8 311.26 1076.02 310.64 1075.25 310.175C1070.13 307.077 1065.8 304.443 1060.37 303.049C1057.89 302.429 1054.95 301.964 1052.01 302.584C1035.27 305.837 1029.7 312.499 1021.18 322.57C1019.01 325.049 1016.84 327.683 1014.05 330.627C1008.78 336.204 1003.51 341.782 998.4 347.049C995.302 350.148 992.358 353.247 989.879 356.036C970.977 376.022 948.512 394.304 924.652 413.671C911.328 424.516 897.694 435.671 884.68 446.981C879.102 451.939 873.525 456.897 868.257 461.7C851.369 476.728 835.566 490.982 817.129 504.461C812.791 507.56 807.988 510.968 802.565 514.532C796.988 518.25 791.1 522.123 785.368 525.687C759.649 542.265 733.156 559.462 713.944 580.998C692.873 604.703 681.873 630.421 669.323 660.168C667.774 663.732 666.38 667.295 664.675 671.014C663.591 673.648 662.351 676.281 661.267 678.915C647.013 712.226 632.139 746.621 609.829 776.678C605.646 782.41 601.153 787.833 596.66 793.256C588.913 802.707 581.012 812.467 574.504 823.158C560.56 846.088 553.743 872.271 547.236 897.68C544.602 908.216 541.659 918.906 538.405 929.596C528.644 961.358 513.926 991.725 499.672 1021.32C492.7 1035.88 485.418 1050.91 478.756 1065.94C469.925 1086.39 459.854 1113.19 461.868 1138.29C463.728 1163.85 476.432 1184.93 500.292 1202.59C510.362 1210.02 522.292 1216.53 533.757 1222.88C556.377 1235.28 579.927 1248.14 592.012 1269.83C593.251 1272 594.336 1274.01 595.265 1276.34C600.843 1289.35 602.857 1304.69 604.871 1319.41C607.66 1340.48 610.294 1360.31 622.379 1373.94C629.815 1382.31 639.421 1387.73 652.745 1391.14C671.647 1395.79 691.014 1397.8 709.761 1399.82C734.24 1402.45 757.48 1404.93 779.79 1412.83C791.1 1416.86 802.256 1422.28 812.791 1429.1C820.228 1433.75 827.2 1438.86 834.636 1444.28C842.228 1449.86 850.13 1455.59 858.496 1460.86C876.158 1471.86 894.131 1478.21 907.765 1477.9C912.413 1477.75 916.596 1477.13 920.314 1476.35C921.089 1476.2 921.864 1476.04 922.638 1475.89C927.906 1474.8 933.484 1473.72 939.836 1473.72C941.075 1473.26 942.16 1473.26 943.399 1473.41Z" fill="url(#paint4_linear)"/>
<path d="M1042.71 1476.97C1027.06 1475.73 1013.43 1470 1002.43 1464.58C997.936 1462.41 993.443 1460.09 988.795 1457.61C973.921 1449.86 958.738 1441.96 944.794 1438.24C939.681 1436.85 934.878 1435.92 930.385 1435.14C929.3 1434.99 928.061 1434.68 926.976 1434.52C923.568 1433.9 919.695 1432.97 915.356 1431.89C903.427 1428.48 888.863 1421.51 871.975 1411.28C869.186 1409.58 866.553 1407.87 863.764 1406.17C851.834 1398.73 840.369 1391.61 828.439 1386.34C818.059 1381.85 807.368 1378.75 796.523 1377.35C780.565 1375.18 763.522 1376.73 747.254 1378.13C724.944 1380.14 701.704 1382.16 679.859 1375.18C668.084 1371.46 659.098 1364.8 652.281 1354.89C643.14 1341.56 640.351 1324.06 637.407 1305.46C634.928 1289.82 632.294 1273.86 625.632 1260.53C624.548 1258.52 623.463 1256.5 622.224 1254.65C608.899 1233.88 584.42 1222.26 560.715 1211.11C550.645 1206.31 540.109 1201.35 530.813 1195.77C503.855 1179.97 489.756 1161.53 486.503 1137.83C483.249 1114.28 492.235 1089.18 501.066 1067.64C508.193 1050.29 515.94 1032.63 523.532 1015.58C534.687 990.33 546.152 964.301 555.912 938.273C558.391 931.611 560.87 924.639 563.194 918.131C572.645 891.793 582.406 864.525 598.054 840.355C605.801 828.425 615.097 817.115 624.083 806.27C626.717 803.016 629.351 799.918 631.984 796.664C659.872 762.269 678.464 731.902 690.704 701.071C695.507 688.986 698.915 677.056 702.169 665.591C708.056 645.14 713.479 625.773 725.719 607.646C744.156 579.913 776.382 559.307 808.453 541.18L812.946 538.701C816.354 536.687 819.918 534.828 823.326 532.814C851.834 516.546 873.989 502.292 895.37 486.644C939.681 454.108 970.977 424.051 990.964 394.614C996.696 386.092 1003.36 376.022 1009.25 365.641C1011.88 360.838 1013.58 356.655 1015.13 352.937C1019.16 343.021 1021.95 335.894 1038.68 329.077C1041.63 327.838 1044.88 327.528 1047.36 327.373C1053.4 326.908 1059.29 327.838 1067.04 330.472C1077.42 333.88 1085.78 338.218 1091.98 343.331C1094.92 345.81 1097.56 348.289 1100.19 350.768C1104.53 354.951 1108.71 358.824 1113.52 361.768C1123.12 367.346 1138.46 367.036 1154.57 360.993C1160.46 358.824 1166.5 355.88 1172.39 352.317C1187.26 343.641 1200.9 332.796 1213.91 322.26C1218.87 318.232 1223.52 314.513 1228.32 310.95L1228.79 310.64L1229.1 311.105C1251.72 345.345 1278.21 377.881 1318.34 383.459C1329.34 385.008 1340.49 383.768 1351.34 382.684C1353.2 382.529 1355.06 382.219 1356.91 382.064C1360.94 381.754 1365.75 381.599 1370.7 381.444C1385.73 381.289 1405.87 384.388 1416.72 399.881C1426.17 413.361 1425.24 430.868 1424.47 447.911C1424 457.671 1423.54 467.742 1424.93 477.193C1429.42 507.56 1453.44 528.785 1476.68 549.392L1477.3 549.856C1504.41 573.871 1538.03 603.928 1538.65 642.661C1538.65 646.999 1538.34 651.492 1537.72 655.675C1536.02 667.45 1531.52 679.225 1527.34 690.535C1522.07 704.634 1516.65 719.198 1516.03 734.071C1515.57 744.297 1517.43 753.748 1521.61 762.889C1529.51 780.551 1545.31 794.805 1560.5 808.594C1563.13 810.918 1565.61 813.242 1568.09 815.566C1578.16 824.862 1589.16 836.172 1592.1 851.046C1595.51 868.708 1587.61 886.06 1579.55 900.779C1575.06 908.836 1570.1 917.047 1565.14 924.794C1560.19 932.85 1555.07 941.061 1550.58 949.118C1544.85 959.498 1539.43 970.809 1539.12 983.048C1538.96 989.865 1540.2 996.218 1543.3 1002.41C1549.65 1015.43 1562.51 1024.42 1574.91 1033.09C1578.93 1035.88 1582.96 1038.82 1586.83 1041.77C1597.99 1050.44 1605.58 1059.74 1609.15 1069.66C1612.09 1077.87 1612.4 1086.23 1609.76 1094.29C1606.98 1103.12 1601.24 1110.71 1595.05 1118.61C1592.41 1121.87 1589.78 1125.28 1587.14 1128.53C1578.78 1138.91 1570.1 1149.6 1563.13 1160.14C1558.17 1167.73 1553.99 1175.32 1549.81 1182.45C1544.69 1191.43 1539.89 1200.11 1533.69 1208.79C1515.57 1234.5 1484.27 1258.83 1445.23 1277.11C1428.34 1285.01 1410.68 1292.14 1393.63 1298.8C1375.51 1305.93 1356.91 1313.36 1339.25 1321.89C1327.48 1327.46 1316.79 1334.28 1306.41 1340.63C1298.2 1345.75 1290.6 1350.55 1282.86 1354.58C1280.69 1355.66 1279.14 1357.68 1277.43 1359.69C1275.88 1361.55 1274.18 1363.56 1271.86 1365.11C1268.45 1367.28 1264.57 1368.99 1260.55 1370.54C1252.65 1373.48 1244.43 1376.42 1236.38 1379.21C1227.7 1382.31 1218.71 1385.41 1210.04 1388.82C1206.17 1390.37 1201.83 1391.92 1197.18 1393.93C1172.54 1403.69 1148.53 1413.92 1127.46 1431.58C1122.66 1435.61 1117.85 1440.1 1113.05 1444.44C1098.02 1458.38 1082.37 1472.64 1063.01 1476.2C1055.88 1477.28 1049.06 1477.59 1042.71 1476.97ZM791.1 1375.65C792.96 1375.8 794.819 1375.96 796.678 1376.27C807.523 1377.66 818.368 1380.76 828.904 1385.41C840.989 1390.68 852.299 1397.8 864.384 1405.24C867.172 1406.94 869.806 1408.65 872.595 1410.35C889.483 1420.58 903.891 1427.55 915.821 1430.96C920.004 1432.2 923.878 1432.97 927.286 1433.59C928.371 1433.75 929.455 1434.06 930.695 1434.21C935.188 1434.99 939.991 1435.92 945.103 1437.31C959.047 1441.03 974.541 1449.09 989.259 1456.83C994.062 1459.31 998.4 1461.64 1002.89 1463.8C1032.18 1478.21 1050.3 1477.44 1062.7 1475.11C1081.91 1471.55 1097.25 1457.3 1112.28 1443.51C1116.92 1439.17 1121.73 1434.68 1126.68 1430.65C1147.91 1412.99 1171.93 1402.76 1196.71 1392.85C1201.52 1390.99 1205.7 1389.28 1209.57 1387.73C1218.25 1384.48 1227.24 1381.23 1235.91 1378.13C1243.81 1375.34 1252.03 1372.39 1259.93 1369.45C1263.96 1367.9 1267.83 1366.35 1271.08 1364.18C1273.25 1362.79 1274.8 1360.77 1276.35 1358.92C1278.05 1356.75 1279.76 1354.89 1282.08 1353.65C1289.67 1349.62 1297.42 1344.82 1305.63 1339.86C1316.01 1333.35 1326.86 1326.69 1338.63 1320.96C1356.29 1312.44 1375.04 1305 1393.01 1297.87C1410.06 1291.05 1427.72 1284.08 1444.61 1276.18C1483.49 1257.9 1514.79 1233.73 1532.61 1208.17C1538.81 1199.49 1543.61 1190.97 1548.57 1181.83C1552.59 1174.55 1556.93 1167.11 1561.89 1159.36C1568.86 1148.67 1577.54 1137.98 1585.91 1127.6C1588.54 1124.35 1591.17 1121.09 1593.81 1117.68C1599.85 1109.94 1605.58 1102.35 1608.37 1093.67C1610.85 1085.77 1610.69 1077.71 1607.75 1069.66C1604.19 1059.89 1596.75 1050.75 1585.75 1042.23C1581.88 1039.29 1577.85 1036.35 1573.82 1033.56C1561.27 1024.73 1548.26 1015.58 1541.9 1002.41C1538.81 996.063 1537.41 989.555 1537.57 982.583C1537.88 970.189 1543.3 958.724 1549.19 948.188C1553.68 940.132 1558.79 931.766 1563.75 923.864C1568.55 915.962 1573.67 907.906 1578.16 899.849C1586.22 885.441 1593.96 868.243 1590.55 850.891C1587.76 836.327 1576.92 825.327 1566.85 816.031C1564.37 813.707 1561.74 811.383 1559.26 809.059C1543.92 795.27 1528.12 780.861 1520.06 763.044C1515.88 753.593 1514.02 743.987 1514.33 733.607C1514.95 718.578 1520.37 703.859 1525.64 689.761C1529.82 678.451 1534.31 666.676 1536.02 655.056C1536.64 650.717 1536.95 646.379 1536.95 642.196C1536.48 603.928 1502.86 574.181 1476.06 550.166L1475.44 549.701C1453.13 529.87 1428.03 507.56 1423.38 476.883C1421.99 467.432 1422.45 457.206 1422.92 447.446C1423.69 429.938 1424.47 413.361 1415.32 400.036C1404.79 384.853 1384.96 381.909 1370.08 382.064C1365.13 382.064 1360.48 382.374 1356.45 382.684C1354.59 382.839 1352.73 382.994 1350.87 383.304C1340.03 384.388 1328.72 385.628 1317.56 384.078C1277.12 378.501 1250.63 346.12 1227.86 311.725C1223.21 315.288 1218.71 318.852 1213.91 322.725C1200.74 333.26 1187.11 344.106 1172.23 352.937C1166.19 356.5 1160.15 359.289 1154.26 361.613C1137.84 367.81 1122.19 368.12 1112.28 362.388C1107.32 359.444 1103.13 355.416 1098.64 351.233C1096.16 348.754 1093.37 346.275 1090.59 343.796C1084.54 338.838 1076.18 334.5 1065.95 331.091C1058.36 328.612 1052.47 327.683 1046.58 327.993C1044.26 328.148 1041.16 328.457 1038.37 329.697C1022.11 336.359 1019.32 343.021 1015.29 352.937C1013.74 356.655 1012.03 360.993 1009.4 365.796C1003.51 376.177 996.851 386.247 991.119 394.769C970.977 424.361 939.681 454.573 895.37 487.109C873.989 502.757 851.679 517.011 823.171 533.279C819.763 535.293 816.354 537.152 812.791 539.166L808.298 541.645C776.382 559.617 744.311 580.223 726.029 607.646C713.944 625.773 708.366 644.985 702.634 665.436C699.38 677.056 695.972 688.986 691.169 701.071C678.929 731.902 660.182 762.424 632.294 796.974C629.66 800.228 627.027 803.326 624.393 806.58C615.407 817.425 606.266 828.58 598.519 840.51C582.871 864.68 573.575 890.708 563.814 918.131C561.49 924.794 559.011 931.611 556.532 938.273C546.771 964.456 535.306 990.485 524.151 1015.74C516.714 1032.78 508.813 1050.44 501.686 1067.8C493.01 1089.18 484.024 1114.12 487.277 1137.36C490.531 1161.07 504.165 1178.73 531.123 1194.53C540.419 1200.11 550.955 1205.07 561.025 1209.71C584.885 1221.02 609.519 1232.64 622.998 1253.56C624.238 1255.42 625.322 1257.43 626.407 1259.6C633.069 1272.93 635.703 1289.2 638.182 1304.84C641.125 1323.28 643.914 1340.79 652.9 1353.8C659.562 1363.56 668.394 1370.07 679.859 1373.63C701.549 1380.45 724.634 1378.44 746.79 1376.42C761.663 1375.65 776.692 1374.41 791.1 1375.65Z" fill="url(#paint5_linear)"/>
<path d="M1205.55 1171.6C1183.08 1169.74 1164.49 1153.32 1146.52 1137.52C1144.19 1135.5 1142.02 1133.49 1139.7 1131.63C1118.63 1113.35 1095.7 1096.3 1071.06 1095.06C1062.23 1094.6 1053.56 1096.15 1044.26 1099.71C1034.34 1103.43 1025.05 1109.16 1015.91 1114.59C1000.57 1123.88 984.611 1133.49 965.864 1134.26C963.54 1134.42 961.062 1134.26 958.738 1134.11C926.667 1131.47 898.934 1103.59 884.68 1086.54L882.975 1084.37C872.13 1071.2 860.975 1057.73 845.327 1052.92C838.82 1050.91 832.158 1050.6 825.495 1050.44C822.242 1050.29 818.988 1050.13 815.58 1049.82C810.467 1049.36 805.199 1048.27 800.241 1046.57C769.1 1036.5 744.156 1006.6 739.508 974.062C734.705 940.132 748.959 905.117 777.001 882.342C784.903 875.835 793.889 870.412 802.72 864.989C818.678 855.229 835.256 845.003 845.172 829.045C853.383 815.876 856.482 800.228 859.426 785.044C862.06 771.565 864.693 757.466 871.201 745.226C884.215 720.437 902.032 718.268 920.934 716.099C931.314 714.86 942.005 713.62 952.385 708.507C957.963 705.718 962.611 698.747 967.724 691.465C976.865 678.14 987.245 662.957 1004.6 671.478C1007.08 672.718 1009.71 674.267 1012.34 676.281C1015.29 678.45 1017.61 681.084 1020.09 683.718C1023.34 687.282 1026.75 690.845 1031.09 693.169C1044.73 700.296 1061.92 690.38 1069.51 676.436C1073.23 669.619 1075.56 662.027 1077.88 654.591C1080.05 647.619 1082.22 640.337 1085.63 633.83C1098.33 609.505 1125.91 597.73 1155.35 586.885L1155.5 587.35L1155.35 586.885C1188.04 574.8 1210.5 576.814 1222.12 592.928C1230.33 604.238 1229.87 618.956 1229.56 633.055C1229.1 649.478 1228.79 665.126 1241.18 674.732C1255.12 685.422 1273.56 677.366 1281 673.338C1283.48 671.943 1286.11 670.394 1288.59 668.999C1297.89 663.422 1307.65 657.689 1318.96 657.534C1328.87 657.379 1338.48 661.873 1346.69 670.394C1357.69 681.704 1364.35 698.901 1363.73 714.085C1362.65 740.423 1346.69 762.424 1331.2 780.551C1329.18 782.875 1327.32 785.044 1325.31 787.368C1311.21 803.636 1296.65 820.369 1289.67 841.749C1285.18 856.003 1285.34 869.947 1289.98 880.947C1296.34 896.131 1310.59 906.201 1324.22 915.807C1340.8 927.582 1356.6 938.582 1358.77 958.259C1360.79 975.301 1349.79 992.964 1329.65 1005.51C1324.53 1008.77 1318.96 1011.71 1313.53 1014.5C1302.22 1020.39 1290.45 1026.58 1281.62 1036.04C1268.14 1050.29 1262.41 1071.67 1267.05 1090.42C1268.14 1094.91 1270 1099.25 1271.7 1103.43C1274.96 1111.18 1278.21 1119.39 1277.12 1127.91C1274.18 1148.98 1246.14 1163.39 1221.04 1169.74L1220.26 1169.9C1215.62 1171.14 1211.28 1172.22 1206.63 1171.76C1205.7 1171.6 1205.7 1171.6 1205.55 1171.6ZM1072.92 1093.98C1097.09 1095.99 1119.71 1112.73 1140.47 1130.7C1142.8 1132.71 1144.97 1134.57 1147.29 1136.59C1165.26 1152.39 1183.7 1168.66 1206.01 1170.36C1210.5 1170.67 1214.84 1169.59 1219.33 1168.5L1220.11 1168.35C1244.9 1162 1272.63 1148.05 1275.42 1127.45C1276.66 1119.23 1273.41 1111.64 1270.15 1103.59C1268.45 1099.25 1266.59 1094.91 1265.5 1090.42C1260.7 1071.2 1266.59 1049.51 1280.38 1034.95C1289.36 1025.5 1301.29 1019.3 1312.6 1013.26C1318.03 1010.47 1323.45 1007.53 1328.56 1004.43C1348.39 992.034 1359.08 974.837 1357.22 958.104C1355.06 939.047 1339.56 928.047 1322.98 916.427C1309.2 906.666 1294.94 896.596 1288.43 881.102C1283.63 869.792 1283.48 855.539 1288.12 841.13C1295.1 819.439 1309.66 802.706 1323.91 786.284C1325.93 783.96 1327.94 781.791 1329.8 779.467C1357.22 747.55 1361.56 728.339 1362.18 713.62C1362.8 698.592 1356.14 681.704 1345.45 670.704C1339.87 664.971 1330.58 658.154 1318.49 658.154C1307.34 658.309 1297.89 663.887 1288.59 669.464C1286.11 671.014 1283.48 672.408 1281 673.802C1273.41 677.831 1254.5 686.197 1240.1 675.042C1227.24 665.126 1227.7 649.323 1228.17 632.59C1228.48 618.491 1228.94 604.083 1220.88 593.082C1209.57 577.434 1187.57 575.575 1155.35 587.505C1126.06 598.35 1098.8 609.97 1086.25 633.985C1082.84 640.492 1080.67 647.619 1078.5 654.591C1076.33 662.027 1074.01 669.619 1070.13 676.591C1062.39 690.845 1044.42 701.225 1030.32 693.789C1025.82 691.465 1022.41 687.746 1019.01 684.183C1016.68 681.704 1014.2 679.07 1011.41 676.901C1008.94 675.042 1006.46 673.492 1003.98 672.253C987.4 664.197 977.794 678.295 968.498 691.93C963.386 699.366 958.583 706.493 952.695 709.437C942.16 714.705 931.314 715.944 920.934 717.184C902.342 719.353 884.835 721.522 871.975 745.846C865.623 757.931 862.989 771.875 860.355 785.354C857.412 800.692 854.468 816.34 845.947 829.665C835.721 845.778 819.143 856.003 803.03 865.919C794.354 871.342 785.368 876.764 777.466 883.271C749.888 905.737 735.634 940.442 740.437 974.062C745.085 1006.29 769.72 1035.73 800.396 1045.8C805.354 1047.35 810.467 1048.43 815.58 1049.05C818.833 1049.36 822.087 1049.51 825.34 1049.67C832.003 1049.98 838.82 1050.13 845.482 1052.15C861.285 1057.11 872.595 1070.74 883.595 1084.06L885.299 1086.23C900.483 1104.52 931.005 1134.88 965.555 1133.64C983.992 1132.87 999.795 1123.42 1015.13 1114.12C1024.27 1108.7 1033.73 1102.97 1043.64 1099.09C1053.09 1095.53 1062.08 1093.98 1070.91 1094.44C1071.68 1093.98 1072.3 1093.98 1072.92 1093.98Z" fill="url(#paint6_linear)"/>
<defs>
<linearGradient id="paint0_linear" x1="3465.21" y1="1023.78" x2="-7901.41" y2="1023.78" gradientUnits="userSpaceOnUse">
<stop stop-color="#F4C15A"/>
<stop offset="0.1066" stop-color="#BE915A"/>
<stop offset="0.1381" stop-color="#C99B5B"/>
<stop offset="0.2561" stop-color="#F0BE5C"/>
<stop offset="0.3178" stop-color="#FFCB5D"/>
<stop offset="0.7563" stop-color="#F3C05A"/>
<stop offset="0.9026" stop-color="#BD914B"/>
<stop offset="1" stop-color="#976F40"/>
</linearGradient>
<linearGradient id="paint1_linear" x1="3249.4" y1="998.053" x2="-6845.87" y2="998.053" gradientUnits="userSpaceOnUse">
<stop stop-color="#F4C15A"/>
<stop offset="0.1066" stop-color="#BE915A"/>
<stop offset="0.1381" stop-color="#C99B5B"/>
<stop offset="0.2561" stop-color="#F0BE5C"/>
<stop offset="0.3178" stop-color="#FFCB5D"/>
<stop offset="0.7563" stop-color="#F3C05A"/>
<stop offset="0.9026" stop-color="#BD914B"/>
<stop offset="1" stop-color="#976F40"/>
</linearGradient>
<linearGradient id="paint2_linear" x1="2933.64" y1="964.002" x2="-5749.21" y2="964.002" gradientUnits="userSpaceOnUse">
<stop stop-color="#F4C15A"/>
<stop offset="0.1066" stop-color="#BE915A"/>
<stop offset="0.1381" stop-color="#C99B5B"/>
<stop offset="0.2561" stop-color="#F0BE5C"/>
<stop offset="0.3178" stop-color="#FFCB5D"/>
<stop offset="0.7563" stop-color="#F3C05A"/>
<stop offset="0.9026" stop-color="#BD914B"/>
<stop offset="1" stop-color="#976F40"/>
</linearGradient>
<linearGradient id="paint3_linear" x1="2576.87" y1="915.473" x2="-4552.53" y2="915.473" gradientUnits="userSpaceOnUse">
<stop stop-color="#F4C15A"/>
<stop offset="0.1066" stop-color="#BE915A"/>
<stop offset="0.1381" stop-color="#C99B5B"/>
<stop offset="0.2561" stop-color="#F0BE5C"/>
<stop offset="0.3178" stop-color="#FFCB5D"/>
<stop offset="0.7563" stop-color="#F3C05A"/>
<stop offset="0.9026" stop-color="#BD914B"/>
<stop offset="1" stop-color="#976F40"/>
</linearGradient>
<linearGradient id="paint4_linear" x1="2372.12" y1="895.032" x2="-3898.2" y2="895.032" gradientUnits="userSpaceOnUse">
<stop stop-color="#F4C15A"/>
<stop offset="0.1066" stop-color="#BE915A"/>
<stop offset="0.1381" stop-color="#C99B5B"/>
<stop offset="0.2561" stop-color="#F0BE5C"/>
<stop offset="0.3178" stop-color="#FFCB5D"/>
<stop offset="0.7563" stop-color="#F3C05A"/>
<stop offset="0.9026" stop-color="#BD914B"/>
<stop offset="1" stop-color="#976F40"/>
</linearGradient>
<linearGradient id="paint5_linear" x1="2285.6" y1="886.806" x2="-3618.06" y2="886.806" gradientUnits="userSpaceOnUse">
<stop stop-color="#F4C15A"/>
<stop offset="0.1066" stop-color="#BE915A"/>
<stop offset="0.1381" stop-color="#C99B5B"/>
<stop offset="0.2561" stop-color="#F0BE5C"/>
<stop offset="0.3178" stop-color="#FFCB5D"/>
<stop offset="0.7563" stop-color="#F3C05A"/>
<stop offset="0.9026" stop-color="#BD914B"/>
<stop offset="1" stop-color="#976F40"/>
</linearGradient>
<linearGradient id="paint6_linear" x1="1738.1" y1="871.854" x2="-1540.51" y2="871.854" gradientUnits="userSpaceOnUse">
<stop stop-color="#F4C15A"/>
<stop offset="0.1066" stop-color="#BE915A"/>
<stop offset="0.1381" stop-color="#C99B5B"/>
<stop offset="0.2561" stop-color="#F0BE5C"/>
<stop offset="0.3178" stop-color="#FFCB5D"/>
<stop offset="0.7563" stop-color="#F3C05A"/>
<stop offset="0.9026" stop-color="#BD914B"/>
<stop offset="1" stop-color="#976F40"/>
</linearGradient>
</defs>
</svg>
